<svg width="229" height="184" viewBox="0 0 229 184" fill="none" xmlns="http://www.w3.org/2000/svg">
<path d="M108.71 183.999C78.9547 183.999 3.72948 114.74 0.358656 111.633C0.245007 111.52 0.154807 111.386 0.0932486 111.238C0.0316902 111.09 0 110.931 0 110.771C0 110.611 0.0316902 110.452 0.0932486 110.304C0.154807 110.156 0.245007 110.022 0.358656 109.909C0.5894 109.685 0.898173 109.56 1.21956 109.56C1.54094 109.56 1.8497 109.685 2.08044 109.909C2.2987 110.128 24.1 130.252 48.6415 148.969C80.8463 173.536 103.011 184.63 112.784 181.013C140.988 170.598 173.75 121.829 183.111 107.118C200.644 79.6133 222.203 43.4183 225.38 27.2993C227.805 15.5256 225.574 5.79112 222.154 3.19362C221.743 2.83425 221.231 2.61097 220.689 2.55447C220.146 2.49797 219.599 2.61099 219.123 2.87803C213.182 5.83966 190.41 28.1733 190.168 28.3918C189.977 28.5849 189.725 28.7051 189.454 28.7317C189.184 28.7583 188.913 28.6896 188.689 28.5374C188.455 28.3966 188.278 28.18 188.185 27.9237C188.092 27.6674 188.09 27.387 188.179 27.1294C191.162 18.6572 193.781 8.65564 193.175 6.56794C190.75 7.07772 180.346 14.943 176.757 46.5985C176.715 46.8683 176.597 47.1206 176.418 47.3267L102.454 122.581C102.343 122.694 102.211 122.784 102.065 122.845C101.919 122.907 101.763 122.938 101.605 122.938C101.447 122.938 101.29 122.907 101.144 122.845C100.999 122.784 100.867 122.694 100.756 122.581L40.1296 63.3972C39.898 63.1719 39.7654 62.8637 39.7609 62.5404C39.7563 62.2172 39.8802 61.9054 40.1053 61.6736C40.3304 61.4419 40.6383 61.3091 40.9612 61.3046C41.2841 61.3 41.5956 61.424 41.8271 61.6494L101.702 119.911L174.453 45.7974C178.115 14.409 189.004 3.99472 193.49 3.99472C193.806 3.99316 194.116 4.07266 194.392 4.22568C194.668 4.3787 194.9 4.6001 195.066 4.86865C196.691 7.29621 194.218 16.3753 192.059 23.0511C198.85 16.5209 213.206 2.9994 218.032 0.596112C218.915 0.127376 219.917 -0.0718401 220.913 0.0230767C221.908 0.117993 222.854 0.502885 223.634 1.13018C228.338 4.74725 230.084 15.8898 227.756 27.6392C224.507 44.1466 202.802 80.6087 185.148 108.307C173.023 127.364 141.739 172.783 113.609 183.173C112.039 183.743 110.379 184.022 108.71 183.999Z" fill="#3C4242"/>
</svg>
