<svg width="80" height="100" viewBox="0 0 80 100" fill="none" xmlns="http://www.w3.org/2000/svg">
<path d="M13.5246 99.9979C13.3304 99.9951 13.1396 99.9476 12.9668 99.8589C12.7939 99.7703 12.6439 99.6431 12.5281 99.487C12.358 99.2194 -4.94615 74.0392 1.39709 45.015C5.62591 25.552 16.6111 13.9229 40.5259 3.48583C46.8037 0.532664 53.7895 -0.577738 60.6724 0.283515C67.5553 1.14477 74.0531 3.94236 79.4116 8.35158C79.5813 8.51927 79.6991 8.7324 79.7509 8.96542C79.8026 9.19844 79.7861 9.44147 79.7033 9.66533C79.6232 9.89202 79.4752 10.0884 79.2795 10.2278C79.0838 10.3671 78.8498 10.4426 78.6096 10.4439C58.0002 11.198 29.0546 23.7273 17.9478 42.8254C5.01832 65.0375 14.5939 98.1489 14.6912 98.4895C14.772 98.765 14.7528 99.0601 14.6372 99.3228C14.5216 99.5855 14.3168 99.7988 14.0593 99.9249C13.8873 99.9829 13.7058 100.008 13.5246 99.9979ZM56.4691 2.43969C51.3045 2.47694 46.2048 3.59571 41.498 5.72407C18.3853 15.8448 7.81324 27.0117 3.75454 45.5745C-0.304162 64.1374 5.91755 81.7027 10.4866 90.972C8.34791 79.4158 6.30643 58.0065 15.8577 41.5846C26.7944 22.7785 54.3546 10.1033 75.2071 8.27859C69.6814 4.51335 63.1534 2.49613 56.4691 2.48834V2.43969Z" fill="#3C4242"/>
</svg>
