<svg width="16" height="16" viewBox="0 0 16 16" fill="none" xmlns="http://www.w3.org/2000/svg">
<path d="M8.00164 3.89686C5.73152 3.89686 3.90043 5.72795 3.90043 7.99806C3.90043 10.2682 5.73152 12.0993 8.00164 12.0993C10.2718 12.0993 12.1028 10.2682 12.1028 7.99806C12.1028 5.72795 10.2718 3.89686 8.00164 3.89686ZM8.00164 10.6644C6.53462 10.6644 5.33532 9.46864 5.33532 7.99806C5.33532 6.52748 6.53105 5.33175 8.00164 5.33175C9.47222 5.33175 10.668 6.52748 10.668 7.99806C10.668 9.46864 9.46865 10.6644 8.00164 10.6644ZM13.2272 3.7291C13.2272 4.26093 12.7989 4.68569 12.2706 4.68569C11.7388 4.68569 11.314 4.25737 11.314 3.7291C11.314 3.20083 11.7423 2.77251 12.2706 2.77251C12.7989 2.77251 13.2272 3.20083 13.2272 3.7291ZM15.9435 4.69997C15.8828 3.41856 15.5901 2.2835 14.6514 1.34833C13.7162 0.413154 12.5811 0.120466 11.2997 0.0562176C9.97907 -0.0187392 6.02063 -0.0187392 4.69997 0.0562176C3.42213 0.116897 2.28707 0.409585 1.34833 1.34476C0.409585 2.27993 0.120466 3.41499 0.0562176 4.6964C-0.0187392 6.01706 -0.0187392 9.97549 0.0562176 11.2962C0.116897 12.5776 0.409585 13.7126 1.34833 14.6478C2.28707 15.583 3.41856 15.8757 4.69997 15.9399C6.02063 16.0149 9.97907 16.0149 11.2997 15.9399C12.5811 15.8792 13.7162 15.5865 14.6514 14.6478C15.5865 13.7126 15.8792 12.5776 15.9435 11.2962C16.0184 9.97549 16.0184 6.02063 15.9435 4.69997ZM14.2373 12.7132C13.9589 13.4128 13.4199 13.9518 12.7168 14.2338C11.6638 14.6514 9.16525 14.555 8.00164 14.555C6.83802 14.555 4.33589 14.6478 3.2865 14.2338C2.5869 13.9553 2.04793 13.4164 1.76595 12.7132C1.34833 11.6602 1.4447 9.16168 1.4447 7.99806C1.4447 6.83445 1.3519 4.33232 1.76595 3.28293C2.04436 2.58333 2.58333 2.04436 3.2865 1.76238C4.33946 1.34476 6.83802 1.44113 8.00164 1.44113C9.16525 1.44113 11.6674 1.34833 12.7168 1.76238C13.4164 2.04079 13.9553 2.57976 14.2373 3.28293C14.6549 4.33589 14.5586 6.83445 14.5586 7.99806C14.5586 9.16168 14.6549 11.6638 14.2373 12.7132Z" fill="#2A2F2F"/>
</svg>
