<svg width="88" height="67" viewBox="0 0 88 67" fill="none" xmlns="http://www.w3.org/2000/svg">
<path d="M88.0001 11.4387C87.5716 12.1315 87.0863 12.7874 86.5491 13.3996L34.9885 64.9409C34.7238 65.3404 34.3644 65.6681 33.9424 65.8948C33.5204 66.1215 33.049 66.2401 32.5701 66.2401C32.0912 66.2401 31.6198 66.1215 31.1978 65.8948C30.7758 65.6681 30.4164 65.3404 30.1517 64.9409C20.478 54.9667 10.8044 44.9764 1.13075 34.97C0.765701 34.6956 0.472373 34.3369 0.275803 33.9245C0.0792325 33.5121 -0.0147524 33.0582 0.00187881 32.6016C0.01851 32.145 0.145256 31.6991 0.371305 31.3021C0.597354 30.9052 0.915983 30.5688 1.30002 30.3218L8.55526 23.7611C8.81572 23.4333 9.14675 23.1686 9.5236 22.9867C9.90046 22.8047 10.3134 22.7102 10.7318 22.7102C11.1503 22.7102 11.5632 22.8047 11.9401 22.9867C12.3169 23.1686 12.6479 23.4333 12.9084 23.7611L30.0549 41.2401C31.8446 43.0558 33.1747 43.08 34.8918 41.2401L74.9407 1.31926C75.2015 0.914523 75.5595 0.581696 75.982 0.351228C76.4045 0.12076 76.8779 0 77.3591 0C77.8402 0 78.3137 0.12076 78.7362 0.351228C79.1587 0.581696 79.5167 0.914523 79.7775 1.31926C82.0508 3.59492 84.3242 5.87059 86.5491 8.17045C87.0627 8.77283 87.5314 9.41205 87.9517 10.083L88.0001 11.4387Z" fill="#8A33FD"/>
</svg>
