<svg width="30" height="21" viewBox="0 0 30 21" fill="none" xmlns="http://www.w3.org/2000/svg">
<path d="M1.21707 21C1.0194 20.9983 0.825117 20.9485 0.650936 20.855C0.476754 20.7614 0.327891 20.6269 0.217201 20.4629C0.125442 20.3322 0.0608125 20.1844 0.0270513 20.0282C-0.00670991 19.8721 -0.0088995 19.7107 0.020651 19.5537C0.0502014 19.3967 0.110905 19.2472 0.199116 19.1141C0.287328 18.9809 0.401252 18.8668 0.534241 18.7785L27.3597 0.225372C27.4888 0.132337 27.6352 0.0660524 27.7902 0.0303886C27.9453 -0.00527518 28.1059 -0.0095988 28.2626 0.0176864C28.4193 0.0449716 28.569 0.10331 28.703 0.189277C28.8369 0.275245 28.9522 0.387116 29.0424 0.518323C29.136 0.649515 29.2026 0.797949 29.2386 0.955077C29.2745 1.1122 29.279 1.27491 29.2518 1.43379C29.2246 1.59267 29.1662 1.74458 29.0801 1.88075C28.9939 2.01692 28.8816 2.13465 28.7498 2.22716L1.92431 20.7803C1.71565 20.9223 1.46939 20.9988 1.21707 21Z" fill="#D1D3D4"/>
</svg>
