<svg width="30" height="21" viewBox="0 0 30 21" fill="none" xmlns="http://www.w3.org/2000/svg">
<path d="M28.0502 20.9996C27.8055 20.9981 27.567 20.9213 27.3672 20.7798L0.534421 2.2216C0.401395 2.13324 0.287365 2.01911 0.19913 1.88592C0.110894 1.75274 0.0502486 1.60319 0.0206901 1.44614C-0.00886846 1.28909 -0.00675271 1.12771 0.0270177 0.971509C0.0607882 0.815312 0.125509 0.667483 0.217294 0.536723C0.307848 0.402756 0.424104 0.288134 0.559285 0.19952C0.694466 0.110906 0.845881 0.0500582 1.00475 0.0205234C1.16362 -0.00901151 1.32673 -0.00664635 1.48468 0.0274723C1.64263 0.061591 1.7923 0.12678 1.92487 0.219268L28.7577 18.7775C28.8896 18.87 29.0018 18.9878 29.088 19.124C29.1742 19.2602 29.2326 19.4121 29.2599 19.5711C29.2871 19.73 29.2826 19.8927 29.2466 20.0499C29.2107 20.2071 29.144 20.3556 29.0504 20.4868C28.94 20.6493 28.7905 20.7815 28.6158 20.8711C28.441 20.9607 28.2465 21.0049 28.0502 20.9996Z" fill="#D1D3D4"/>
</svg>
