<svg width="54" height="8" viewBox="0 0 54 8" fill="none" xmlns="http://www.w3.org/2000/svg">
<path d="M5.19759 6.01495C5.03338 6.01495 4.84373 5.95019 4.6271 5.82144C4.41124 5.69193 4.18151 5.52078 3.93943 5.30724C3.69736 5.09369 3.45915 4.86164 3.22402 4.61032C2.98965 4.35977 2.77302 4.10999 2.57567 3.86098C2.37831 3.61274 2.21256 3.39148 2.07842 3.19798L0.994495 5.53774C0.942072 5.65184 0.860353 5.73279 0.748569 5.77981C0.636785 5.82684 0.51575 5.85537 0.385463 5.86539C0.255177 5.87541 0.126432 5.88004 0 5.88004C0.0963658 5.74127 0.195815 5.58169 0.296035 5.40283C0.397027 5.22398 0.515748 5.00812 0.653744 4.75448C0.79174 4.50085 0.953637 4.19325 1.1402 3.83014C1.32677 3.4678 1.54802 3.03377 1.80551 2.52959C2.06223 2.0254 2.36597 1.43333 2.71674 0.752603C2.7391 0.712515 2.76917 0.657009 2.80617 0.585313C2.84318 0.513617 2.86245 0.447317 2.86245 0.387956C2.86245 0.33322 2.84395 0.290048 2.80617 0.257669C2.76917 0.22529 2.69824 0.209101 2.59417 0.209101C2.41531 0.209101 2.24185 0.257669 2.07456 0.354035C1.90727 0.450401 1.75771 0.573747 1.62742 0.723307C1.49714 0.872096 1.39461 1.02628 1.31983 1.18509C1.24505 1.3439 1.20804 1.48575 1.20804 1.60987C1.20804 1.7047 1.22654 1.78873 1.26355 1.86351C1.01762 1.86351 0.844164 1.82265 0.743944 1.74093C0.642952 1.65921 0.592843 1.55822 0.592843 1.43872C0.592843 1.26989 0.666851 1.10106 0.816411 0.93223C0.9652 0.763397 1.15716 0.607667 1.39229 0.466587C1.62743 0.324737 1.87335 0.212184 2.13007 0.127383C2.38679 0.0433516 2.61961 0.000949483 2.82853 0.000949483C3.02974 0.000949483 3.16542 0.0379549 3.23635 0.112735C3.30727 0.187515 3.34274 0.269233 3.34274 0.358661C3.34274 0.413396 3.33349 0.468132 3.31498 0.522868C3.29648 0.577604 3.27567 0.630025 3.25331 0.679364L2.31432 2.70613C2.4184 2.60668 2.55485 2.51494 2.72214 2.43014C2.88943 2.34611 3.07445 2.24897 3.27567 2.1395C3.61102 1.96064 3.97027 1.75172 4.35419 1.51351C4.73811 1.27529 5.10507 1.02397 5.45507 0.761082C5.80507 0.497425 6.09572 0.244562 6.32699 0.000949483C6.364 0.0310156 6.39021 0.0826652 6.40563 0.157445C6.42028 0.232225 6.42799 0.289276 6.42799 0.328593C6.42799 0.482779 6.33316 0.651612 6.14274 0.835093C5.95232 1.01857 5.70486 1.20899 5.39957 1.4048C5.09428 1.60139 4.75893 1.7949 4.39351 1.98609C4.02809 2.17728 3.66884 2.35767 3.31498 2.52651C2.96113 2.69534 2.64197 2.84181 2.35904 2.96593C2.5826 3.21956 2.80078 3.46009 3.01278 3.68906C3.22478 3.91725 3.45606 4.14082 3.70584 4.35977C3.95562 4.57871 4.2478 4.80228 4.58316 5.03047C4.91851 5.25867 5.32479 5.50459 5.80122 5.76825C5.7488 5.83301 5.66708 5.89005 5.5553 5.93939C5.44351 5.99027 5.32402 6.01495 5.19759 6.01495Z" fill="#3C4242"/>
<path d="M11.1779 5.73182C10.723 5.73182 10.3861 5.64008 10.1664 5.45583C9.94671 5.27235 9.83647 5.05109 9.83647 4.79283C9.51577 5.07576 9.14727 5.29702 8.7302 5.45583C8.31313 5.61464 7.89143 5.69404 7.46742 5.69404C7.01257 5.69404 6.67182 5.61078 6.4444 5.44426C6.21697 5.27774 6.10365 5.07268 6.10365 4.82984C6.10365 4.60627 6.18768 4.37036 6.35497 4.12212C6.52303 3.87389 6.7466 3.6403 7.02567 3.42135C7.30475 3.20318 7.61235 3.0251 7.9477 2.88864C8.28306 2.75219 8.61455 2.68358 8.94297 2.68358C9.11411 2.68358 9.27293 2.71364 9.41786 2.773C9.56357 2.83236 9.63603 2.95417 9.63603 3.13843C9.63603 3.3273 9.552 3.50461 9.38471 3.67113C9.21742 3.83765 8.99694 3.98567 8.72557 4.11442C8.45343 4.24393 8.15508 4.34878 7.83129 4.43127C7.5075 4.51376 7.18449 4.56387 6.86455 4.58391C6.84991 4.63402 6.83834 4.68105 6.83063 4.72576C6.82292 4.77047 6.81907 4.81288 6.81907 4.85219C6.81907 4.95164 6.84528 5.04955 6.8977 5.14669C6.94935 5.24383 7.03878 5.32323 7.16598 5.3849C7.29242 5.44735 7.47127 5.47819 7.70255 5.47819C8.09726 5.47819 8.48889 5.3849 8.87667 5.19911C9.26367 5.01255 9.60288 4.78281 9.89352 4.5099C9.96059 4.30638 10.0801 4.10285 10.2512 3.89856C10.4224 3.69503 10.6298 3.51001 10.8718 3.34349C11.1139 3.17697 11.3768 3.04283 11.6597 2.94107C11.9426 2.83931 12.2302 2.78842 12.5208 2.78842C12.692 2.78842 12.8508 2.81849 12.9957 2.87785C13.1407 2.93721 13.2139 3.05902 13.2139 3.24327C13.2139 3.49691 13.0852 3.71893 12.8284 3.91012C12.5717 4.10131 12.2418 4.25395 11.8393 4.36882C11.4369 4.48292 11.0237 4.55538 10.5989 4.58468C10.5843 4.63479 10.5727 4.68182 10.565 4.72653C10.5573 4.77125 10.5534 4.81365 10.5534 4.85297C10.5534 4.95241 10.5773 5.05417 10.6259 5.15825C10.6745 5.26232 10.76 5.3479 10.8826 5.41497C11.006 5.48204 11.1825 5.51519 11.4138 5.51519C11.7345 5.51519 12.0544 5.45198 12.3751 5.32554C12.6958 5.19911 12.9934 5.03259 13.2694 4.82598C13.5454 4.62014 13.7759 4.39735 13.9625 4.15913L14.0966 4.2262C13.8954 4.52455 13.6364 4.78667 13.3195 5.01255C13.0027 5.23843 12.6604 5.41497 12.2911 5.5414C11.9211 5.6686 11.5502 5.73182 11.1779 5.73182ZM6.91929 4.44206C7.1205 4.39735 7.34792 4.33182 7.60079 4.2447C7.85442 4.15759 8.09803 4.05505 8.33317 3.93556C8.5683 3.81607 8.7618 3.68501 8.91444 3.54085C9.06709 3.39668 9.14341 3.24558 9.14341 3.086C9.14341 3.03127 9.12876 2.98887 9.0987 2.95957C9.06863 2.9295 9.00541 2.91485 8.90905 2.91485C8.73019 2.91485 8.53978 2.96111 8.33856 3.05285C8.13735 3.14459 7.94385 3.26485 7.75728 3.41441C7.57072 3.5632 7.40343 3.72741 7.25387 3.90627C7.10508 4.08435 6.9933 4.26321 6.91929 4.44206ZM10.6529 4.44206C10.8541 4.39735 11.0738 4.33798 11.3128 4.2632C11.551 4.18842 11.7784 4.10054 11.9951 3.99878C12.2109 3.89702 12.3898 3.78061 12.5316 3.64878C12.6727 3.51695 12.7436 3.37201 12.7436 3.2132C12.7436 3.15847 12.7251 3.11221 12.6874 3.07521C12.6504 3.0382 12.5833 3.0197 12.4861 3.0197C12.2479 3.0197 12.0074 3.08908 11.7653 3.22862C11.5233 3.36739 11.3035 3.54547 11.1054 3.76133C10.9081 3.97642 10.757 4.20384 10.6529 4.44206Z" fill="#3C4242"/>
<path d="M13.0232 7.45331C12.9638 7.45331 12.906 7.4325 12.8497 7.3901C12.7935 7.3477 12.7511 7.30298 12.721 7.25596C12.6909 7.20893 12.6763 7.18041 12.6763 7.17039C12.7804 6.92677 12.8829 6.70937 12.9839 6.51818C13.0849 6.32699 13.1851 6.1304 13.2861 5.92919C13.3863 5.72798 13.4858 5.49208 13.5821 5.22148C13.6793 4.95089 13.7795 4.61399 13.8843 4.21157C13.9884 3.80914 14.0932 3.30959 14.1973 2.71366C14.205 2.66895 14.2197 2.63657 14.242 2.61652C14.2644 2.59648 14.3199 2.58645 14.4093 2.58645C14.6028 2.58645 14.7408 2.62269 14.8233 2.69439C14.905 2.76608 14.9459 2.84471 14.9459 2.92875C14.9459 2.99813 14.9235 3.12225 14.8788 3.3011C14.8341 3.47996 14.7709 3.69119 14.6892 3.9348C14.8156 3.7706 14.9744 3.60408 15.1641 3.43524C15.3537 3.26641 15.5719 3.12456 15.8178 3.01046C16.0637 2.89637 16.332 2.83932 16.6227 2.83932C16.9503 2.83932 17.2209 2.91795 17.4329 3.07368C17.6449 3.23018 17.7513 3.43524 17.7513 3.68888C17.7513 3.88238 17.6858 4.08745 17.5555 4.30331C17.4252 4.51917 17.2425 4.72346 17.0081 4.91465C16.7738 5.10584 16.4954 5.26157 16.1755 5.38029C15.8548 5.49978 15.501 5.55915 15.1139 5.55915C14.9197 5.55915 14.7639 5.5445 14.6445 5.51444C14.525 5.48437 14.4656 5.45507 14.4656 5.42501C14.4656 5.40496 14.4934 5.39417 14.5496 5.39109C14.6059 5.38877 14.6707 5.38723 14.7454 5.38723C15.0438 5.38723 15.3283 5.33866 15.6004 5.24153C15.8725 5.14439 16.1162 5.01642 16.3328 4.85761C16.5486 4.69879 16.7182 4.52225 16.8416 4.32875C16.9642 4.13525 17.0258 3.94406 17.0258 3.75518C17.0258 3.59637 16.9757 3.46069 16.8747 3.3489C16.7745 3.23712 16.6119 3.18161 16.3883 3.18161C16.1948 3.18161 16.0028 3.22247 15.8124 3.30419C15.622 3.3859 15.4431 3.49075 15.2758 3.61718C15.1078 3.74361 14.959 3.87544 14.8287 4.0119C14.6984 4.14835 14.5997 4.2717 14.5327 4.3804C14.3985 4.75276 14.2644 5.11201 14.1302 5.45738C13.9961 5.80276 13.8674 6.11575 13.7448 6.39637C13.6214 6.67699 13.5104 6.90673 13.4094 7.08558C13.3092 7.26444 13.2252 7.37391 13.1581 7.41322C13.1196 7.44098 13.0748 7.45331 13.0232 7.45331Z" fill="#3C4242"/>
<path d="M21.8093 5.55992C21.5186 5.55992 21.302 5.49901 21.1609 5.37721C21.0191 5.2554 20.9489 5.10738 20.9489 4.93392C20.9489 4.81983 20.9805 4.67566 21.0437 4.50144C21.107 4.32798 21.191 4.14526 21.2951 3.95407C21.3991 3.76288 21.5202 3.58249 21.6582 3.41366C21.7962 3.24483 21.9434 3.10683 22.0999 2.99967C22.2564 2.89328 22.409 2.83932 22.5586 2.83932C22.6257 2.83932 22.6835 2.85319 22.7321 2.88017C22.7806 2.90716 22.8045 2.94879 22.8045 3.00275C22.8045 3.06212 22.7467 3.15925 22.6311 3.29339C22.5154 3.42753 22.3797 3.58172 22.2233 3.75518C22.0668 3.92941 21.9311 4.11135 21.8154 4.30253C21.6998 4.49372 21.642 4.67643 21.642 4.85066C21.642 5.02952 21.6867 5.14901 21.7761 5.20837C21.8655 5.26773 22.0035 5.2978 22.1901 5.2978C22.4437 5.2978 22.7136 5.21377 23.0003 5.04417C23.2871 4.87533 23.5909 4.58007 23.9116 4.1576L24.0118 4.23238C23.7959 4.65948 23.4845 4.98789 23.0782 5.21608C22.6712 5.44582 22.2487 5.55992 21.8093 5.55992ZM23.1499 2.14702C23.0304 2.14702 22.9248 2.12698 22.8315 2.08766C22.7382 2.04758 22.692 1.9859 22.692 1.9011C22.692 1.79702 22.7829 1.70606 22.9657 1.62896C23.1484 1.55187 23.3288 1.51332 23.5076 1.51332C23.6194 1.51332 23.7088 1.53105 23.7759 1.56575C23.843 1.60044 23.8761 1.66057 23.8761 1.7446C23.8761 1.83865 23.7998 1.92962 23.6472 2.01674C23.4953 2.10385 23.3295 2.14702 23.1499 2.14702Z" fill="#3C4242"/>
<path d="M24.6475 5.70946C24.3268 5.70946 24.0809 5.64702 23.9098 5.5229C23.7386 5.39878 23.653 5.2153 23.653 4.97168C23.653 4.75351 23.7147 4.48369 23.8373 4.16298C23.9599 3.84228 24.1148 3.51386 24.3014 3.17543C24.2266 3.1654 24.1565 3.15692 24.0894 3.14921C24.0223 3.1415 23.9591 3.13071 23.8997 3.11606V2.98192C23.9591 2.98655 24.03 2.99195 24.1117 2.99657C24.1935 3.0012 24.2867 3.00659 24.3908 3.01122C24.5473 2.74294 24.7154 2.48314 24.8935 2.23259C25.0723 1.98203 25.2496 1.75846 25.4246 1.56188C25.5996 1.36606 25.7677 1.20879 25.928 1.09238C26.0884 0.975972 26.2241 0.917385 26.3359 0.917385C26.3952 0.917385 26.4492 0.931259 26.4978 0.958241C26.5463 0.985224 26.5702 1.02686 26.5702 1.08082C26.5702 1.16562 26.4924 1.30285 26.3359 1.49481C26.1794 1.686 25.9859 1.91342 25.7546 2.1763C25.5233 2.43996 25.2997 2.7252 25.0839 3.03357C25.151 3.03357 25.2196 3.03357 25.2905 3.03357C25.3614 3.03357 25.43 3.03357 25.4971 3.03357C25.743 3.03357 26.0021 3.03126 26.2742 3.02587C26.5463 3.02124 26.82 3.00814 27.096 2.98886V3.123C26.6859 3.15307 26.3189 3.17543 25.9951 3.19007C25.6713 3.20472 25.3822 3.21243 25.1286 3.21243C25.0985 3.21243 25.0708 3.21243 25.0446 3.21243C25.0184 3.21243 24.9906 3.21243 24.9605 3.21243C24.7894 3.47609 24.6437 3.74668 24.525 4.02499C24.4055 4.30329 24.3461 4.57389 24.3461 4.83754C24.3461 5.05109 24.3947 5.20373 24.491 5.29547C24.5874 5.38722 24.7478 5.43347 24.9721 5.43347C25.3599 5.43347 25.7399 5.31938 26.1123 5.09041C26.4847 4.86222 26.8123 4.55153 27.096 4.15913L27.2409 4.23391C27.0621 4.51221 26.8362 4.76276 26.5648 4.98633C26.2927 5.2099 25.9928 5.38644 25.6652 5.51519C25.3367 5.6447 24.9983 5.70946 24.6475 5.70946Z" fill="#3C4242"/>
<path d="M30.986 5.7835C30.6283 5.7835 30.3299 5.70409 30.0917 5.54528C29.8535 5.38647 29.734 5.14825 29.734 4.82986C29.734 4.58162 29.8065 4.33955 29.9522 4.10287C30.0971 3.86697 30.2891 3.65497 30.5281 3.46609C30.7663 3.27721 31.0307 3.12688 31.3214 3.0151C31.612 2.90331 31.8988 2.84781 32.1825 2.84781C32.4878 2.84781 32.6967 2.90717 32.8085 3.02666C32.9203 3.14616 32.9758 3.27028 32.9758 3.39902C32.9758 3.54318 32.9257 3.66962 32.8247 3.77909C32.7244 3.88856 32.588 3.9433 32.4169 3.9433C32.2904 3.9433 32.1825 3.90629 32.0923 3.83151C32.2041 3.79219 32.3012 3.71124 32.3829 3.58944C32.4646 3.46763 32.5063 3.35199 32.5063 3.24252C32.5063 3.18316 32.4893 3.13691 32.4562 3.10453C32.4222 3.07215 32.3575 3.05596 32.2603 3.05596C32.0591 3.05596 31.8525 3.11532 31.6398 3.23481C31.4278 3.35431 31.2296 3.50772 31.0477 3.6966C30.865 3.88547 30.7162 4.08437 30.6005 4.29252C30.4849 4.50144 30.4271 4.69726 30.4271 4.88151C30.4271 5.0357 30.4834 5.17678 30.5952 5.30629C30.7069 5.43504 30.9228 5.4998 31.2435 5.4998C31.5418 5.4998 31.8417 5.44506 32.1432 5.33559C32.4446 5.22612 32.726 5.06962 32.9873 4.86609C33.2479 4.66257 33.4568 4.42358 33.6133 4.15067L33.7583 4.22545C33.5871 4.5238 33.352 4.79054 33.0544 5.02645C32.7561 5.26235 32.4284 5.44737 32.0707 5.58151C31.7122 5.71643 31.3507 5.7835 30.986 5.7835Z" fill="#3C4242"/>
<path d="M34.3283 5.58999C34.0076 5.58999 33.7787 5.51675 33.6407 5.37027C33.5027 5.2238 33.4341 5.04109 33.4341 4.82292C33.4341 4.5847 33.5011 4.301 33.6353 3.97335C33.7694 3.64571 33.9467 3.30033 34.1664 2.93723C34.3862 2.57489 34.6267 2.22104 34.8873 1.87489C35.1478 1.52952 35.4084 1.21575 35.6698 0.932052C35.9303 0.649122 36.1709 0.422466 36.3906 0.253633C36.6103 0.0848002 36.7837 0 36.9102 0C36.9919 0 37.059 0.0308388 37.1114 0.0932838C37.1638 0.155729 37.2047 0.229735 37.2347 0.31685C37.264 0.403964 37.2794 0.481831 37.2794 0.551214C37.2794 0.685356 37.2293 0.860352 37.1283 1.07698C37.0281 1.29284 36.8863 1.53414 36.7036 1.80011C36.5209 2.06608 36.305 2.33436 36.0552 2.60496C35.8054 2.87555 35.5333 3.13536 35.2396 3.3836C34.9451 3.63184 34.6344 3.84538 34.306 4.02424C34.2613 4.15838 34.2258 4.28867 34.1996 4.41587C34.1734 4.5423 34.1603 4.66333 34.1603 4.77743C34.1603 4.97093 34.2011 5.1151 34.2829 5.20992C34.3646 5.30398 34.4879 5.35177 34.6521 5.35177C34.8533 5.35177 35.053 5.29241 35.2504 5.17292C35.4477 5.05342 35.6343 4.90309 35.8093 4.72193C35.9843 4.54076 36.1354 4.35342 36.2618 4.15915L36.4291 4.21851C36.1308 4.64098 35.807 4.97479 35.4562 5.22071C35.107 5.46741 34.7308 5.58999 34.3283 5.58999ZM34.407 3.77137C34.6675 3.59714 34.9212 3.39747 35.1671 3.17159C35.413 2.94571 35.642 2.71058 35.8548 2.46774C36.0675 2.22412 36.2557 1.98822 36.4191 1.76003C36.5825 1.53183 36.7097 1.32676 36.7992 1.1456C36.8886 0.964428 36.9333 0.824122 36.9333 0.724673C36.9333 0.675334 36.924 0.642954 36.9055 0.627535C36.887 0.612888 36.8701 0.605175 36.8554 0.605175C36.7961 0.605175 36.6935 0.668393 36.5478 0.794825C36.4029 0.921257 36.2333 1.09163 36.039 1.30518C35.8455 1.51872 35.6482 1.76234 35.447 2.03525C35.2457 2.30816 35.0538 2.59417 34.8711 2.89252C34.6876 3.1901 34.5334 3.48382 34.407 3.77137Z" fill="#3C4242"/>
<path d="M36.5751 5.71643C36.3438 5.71643 36.148 5.66555 35.9884 5.56378C35.828 5.46202 35.7479 5.30707 35.7479 5.09815C35.7479 4.91929 35.8072 4.72656 35.9267 4.52072C36.0454 4.31488 36.2097 4.11059 36.4186 3.90938C36.6275 3.70817 36.8642 3.52468 37.1286 3.35816C37.393 3.19164 37.6721 3.05905 37.9674 2.9596C38.2619 2.86015 38.554 2.81081 38.8447 2.81081C39.1353 2.81081 39.3774 2.86169 39.5709 2.96345C39.7644 3.06521 39.8615 3.2009 39.8615 3.36973C39.8615 3.49385 39.8114 3.57865 39.7104 3.62336C39.6094 3.66808 39.4776 3.69043 39.3134 3.69043C39.328 3.65034 39.3412 3.60717 39.3527 3.56015C39.3643 3.51312 39.3697 3.46995 39.3697 3.42986C39.3697 3.31576 39.3288 3.21785 39.2471 3.13536C39.1646 3.05365 39.0235 3.01279 38.8223 3.01279C38.6134 3.01279 38.4014 3.06136 38.1848 3.15772C37.9689 3.25486 37.76 3.3836 37.5588 3.5455C37.3576 3.70739 37.1787 3.88239 37.0222 4.07127C36.8657 4.26015 36.7431 4.44671 36.6529 4.63019C36.5635 4.81367 36.5188 4.97788 36.5188 5.12204C36.5188 5.31555 36.619 5.41268 36.821 5.41268C36.9921 5.41268 37.1787 5.35949 37.3799 5.25233C37.5811 5.14594 37.7877 5.00872 38.0005 4.8422C38.2125 4.67568 38.416 4.50299 38.6095 4.32414C38.803 4.14528 38.975 3.98107 39.1238 3.83229C39.1531 3.80222 39.1723 3.78757 39.1793 3.78757C39.224 3.7922 39.2818 3.80222 39.3527 3.81764C39.4236 3.83229 39.4853 3.85233 39.537 3.877C39.5894 3.90167 39.6156 3.93405 39.6156 3.97413C39.6156 4.01885 39.5817 4.07975 39.5146 4.15684C39.4475 4.23394 39.3728 4.32182 39.291 4.42127C39.2086 4.52072 39.1345 4.62171 39.0675 4.72348C39.0004 4.82524 38.9673 4.92083 38.9673 5.01026C38.9673 5.08504 38.9965 5.15828 39.0567 5.22998C39.116 5.30244 39.2132 5.3379 39.3473 5.3379C39.5485 5.3379 39.813 5.23999 40.1406 5.04341C40.4683 4.84759 40.8005 4.5531 41.1359 4.15993L41.2477 4.23471C41.0912 4.50299 40.8899 4.73889 40.644 4.94242C40.3981 5.14594 40.1352 5.30552 39.8561 5.41962C39.5771 5.53372 39.3026 5.59077 39.0343 5.59077C38.7583 5.59077 38.5556 5.53603 38.4253 5.42656C38.295 5.31709 38.2295 5.19837 38.2295 5.06885C38.2295 5.03878 38.2333 5.00563 38.241 4.96863C38.248 4.93163 38.2557 4.89308 38.2634 4.85299C37.9427 5.14132 37.6505 5.35718 37.3861 5.50134C37.1209 5.64473 36.8503 5.71643 36.5751 5.71643Z" fill="#3C4242"/>
<path d="M42.0859 5.74649C41.7359 5.74649 41.4584 5.69561 41.2533 5.59385C41.0483 5.49209 40.9033 5.36642 40.817 5.21764C40.7314 5.06885 40.6882 4.91929 40.6882 4.7705C40.6882 4.62171 40.7183 4.50684 40.7777 4.42744C40.8378 4.34803 40.9103 4.28867 40.9958 4.24858C41.0814 4.20849 41.1631 4.1792 41.2418 4.15915C41.3204 4.13911 41.3736 4.11906 41.4037 4.09979C41.6272 3.93558 41.8323 3.76444 42.0189 3.58558C42.2054 3.40673 42.3689 3.21785 42.5107 3.01895V2.92953C42.5107 2.74605 42.557 2.61499 42.6503 2.53789C42.7435 2.4608 42.8422 2.42225 42.9463 2.42225C43.0056 2.42225 43.0504 2.43228 43.0804 2.45232C43.1105 2.47237 43.1251 2.49472 43.1251 2.51939C43.1251 2.54406 43.1143 2.58415 43.092 2.63888C43.0696 2.69362 43.0581 2.76301 43.0581 2.84781C43.0581 3.01201 43.1066 3.18933 43.203 3.38052C43.3001 3.57171 43.3965 3.77292 43.4936 3.98415C43.59 4.19539 43.6386 4.4151 43.6386 4.64329C43.6386 4.70805 43.6332 4.77127 43.6216 4.83294C43.6108 4.89539 43.5939 4.95321 43.5715 5.00795C43.8321 4.97788 44.078 4.90001 44.3093 4.77358C44.5406 4.64715 44.7641 4.44439 44.98 4.16609L45.0802 4.24087C44.9384 4.51378 44.7264 4.72116 44.4434 4.86301C44.1605 5.00486 43.8506 5.09275 43.5152 5.12744C43.3957 5.34098 43.2076 5.49748 42.9509 5.59693C42.695 5.69715 42.4059 5.74649 42.0859 5.74649ZM42.1083 5.48592C42.1977 5.48592 42.3172 5.46587 42.466 5.42656C42.6148 5.38647 42.7304 5.28471 42.8129 5.12127C42.4999 5.08195 42.2224 4.99946 41.9803 4.87534C41.7382 4.75122 41.5571 4.6271 41.4384 4.50298C41.2741 4.50838 41.1924 4.59473 41.1924 4.76356C41.1924 4.94241 41.2726 5.10739 41.433 5.25926C41.5918 5.40959 41.8176 5.48592 42.1083 5.48592ZM42.8684 5.001C42.8831 4.95167 42.8946 4.89924 42.9016 4.84451C42.9093 4.78977 42.9131 4.72501 42.9131 4.65101C42.9131 4.41742 42.87 4.18536 42.7844 3.95409C42.6988 3.72281 42.6264 3.50541 42.5662 3.30188C42.3951 3.49076 42.2139 3.67116 42.0243 3.8423C41.8346 4.01345 41.6534 4.15684 41.4823 4.27094C41.5941 4.42975 41.7675 4.57931 42.0019 4.71808C42.237 4.85761 42.5254 4.95167 42.8684 5.001Z" fill="#3C4242"/>
<path d="M45.9419 5.74649C45.5919 5.74649 45.3144 5.69561 45.1093 5.59385C44.9043 5.49209 44.7593 5.36642 44.673 5.21764C44.5874 5.06885 44.5442 4.91929 44.5442 4.7705C44.5442 4.62171 44.5743 4.50684 44.6337 4.42744C44.6938 4.34803 44.7663 4.28867 44.8518 4.24858C44.9374 4.20849 45.0191 4.1792 45.0978 4.15915C45.1764 4.13911 45.2296 4.11906 45.2597 4.09979C45.4832 3.93558 45.6883 3.76444 45.8749 3.58558C46.0614 3.40673 46.2249 3.21785 46.3667 3.01895V2.92953C46.3667 2.74605 46.413 2.61499 46.5063 2.53789C46.5995 2.4608 46.6982 2.42225 46.8023 2.42225C46.8616 2.42225 46.9064 2.43228 46.9364 2.45232C46.9665 2.47237 46.9811 2.49472 46.9811 2.51939C46.9811 2.54406 46.9703 2.58415 46.948 2.63888C46.9256 2.69362 46.9141 2.76301 46.9141 2.84781C46.9141 3.01201 46.9626 3.18933 47.059 3.38052C47.1561 3.57171 47.2525 3.77292 47.3497 3.98415C47.446 4.19539 47.4946 4.4151 47.4946 4.64329C47.4946 4.70805 47.4892 4.77127 47.4776 4.83294C47.4668 4.89539 47.4499 4.95321 47.4275 5.00795C47.6881 4.97788 47.934 4.90001 48.1653 4.77358C48.3966 4.64715 48.6201 4.44439 48.836 4.16609L48.9362 4.24087C48.7944 4.51378 48.5824 4.72116 48.2994 4.86301C48.0165 5.00486 47.7066 5.09275 47.3712 5.12744C47.2517 5.34098 47.0636 5.49748 46.8069 5.59693C46.5517 5.69715 46.2626 5.74649 45.9419 5.74649ZM45.9643 5.48592C46.0537 5.48592 46.1732 5.46587 46.322 5.42656C46.4708 5.38647 46.5864 5.28471 46.6689 5.12127C46.3559 5.08195 46.0784 4.99946 45.8363 4.87534C45.5942 4.75122 45.4131 4.6271 45.2944 4.50298C45.1302 4.50838 45.0484 4.59473 45.0484 4.76356C45.0484 4.94241 45.1286 5.10739 45.289 5.25926C45.4485 5.40959 45.6737 5.48592 45.9643 5.48592ZM46.7244 5.001C46.7391 4.95167 46.7506 4.89924 46.7576 4.84451C46.7653 4.78977 46.7691 4.72501 46.7691 4.65101C46.7691 4.41742 46.726 4.18536 46.6404 3.95409C46.5548 3.72281 46.4824 3.50541 46.4222 3.30188C46.2511 3.49076 46.0699 3.67116 45.8803 3.8423C45.6906 4.01345 45.5094 4.15684 45.3383 4.27094C45.4501 4.42975 45.6235 4.57931 45.8579 4.71808C46.093 4.85761 46.3821 4.95167 46.7244 5.001Z" fill="#3C4242"/>
<path d="M49.1061 7.45333C48.9195 7.45333 48.7561 7.42018 48.6142 7.35311C48.4724 7.28604 48.4015 7.18813 48.4015 7.05861C48.4015 6.8998 48.4616 6.75795 48.5803 6.63383C48.6991 6.50971 48.8594 6.39561 49.0614 6.29077C49.2626 6.18669 49.4931 6.08724 49.7544 5.99242C50.015 5.89837 50.2872 5.80354 50.5701 5.70949C50.6742 5.52601 50.7805 5.32095 50.8885 5.09506C50.9964 4.86918 51.0989 4.6194 51.1961 4.34649C50.9579 4.60475 50.7027 4.82678 50.4306 5.01335C50.1584 5.19991 49.8693 5.29242 49.564 5.29242C49.4222 5.29242 49.2826 5.27161 49.1446 5.22921C49.0066 5.1868 48.8933 5.12128 48.8039 5.03185C48.7145 4.94242 48.6698 4.82832 48.6698 4.68879C48.6698 4.55002 48.7052 4.38812 48.7761 4.20464C48.8471 4.02116 48.9342 3.84231 49.039 3.66808C49.1431 3.49462 49.251 3.35045 49.3636 3.23559C49.4761 3.12072 49.5725 3.06444 49.6542 3.06444C49.6843 3.06444 49.7383 3.07215 49.8161 3.0868C49.8948 3.10145 49.9688 3.12303 50.0397 3.15001C50.1106 3.17777 50.1461 3.20629 50.1461 3.23559C50.079 3.30034 50.0042 3.39209 49.9225 3.51158C49.84 3.63107 49.7606 3.76367 49.682 3.91015C49.6041 4.05662 49.5386 4.19925 49.4862 4.33879C49.4337 4.47755 49.4083 4.59704 49.4083 4.69649C49.4083 4.78592 49.4376 4.85762 49.4977 4.91235C49.5571 4.96709 49.6619 4.99407 49.8107 4.99407C49.9518 4.99407 50.1106 4.94859 50.2856 4.85607C50.4606 4.76433 50.6356 4.64639 50.8114 4.50222C50.9864 4.35806 51.1483 4.20387 51.2978 4.04043C51.3202 3.9857 51.3402 3.93019 51.3595 3.87314C51.378 3.81609 51.395 3.7575 51.4096 3.69814C51.432 3.62876 51.486 3.54781 51.5715 3.45607C51.6571 3.36433 51.7935 3.31808 51.9793 3.31808C52.0163 3.31808 52.0534 3.31962 52.0911 3.32193C52.1281 3.32425 52.169 3.33041 52.2137 3.34044C52.2137 3.41984 52.1782 3.56786 52.1073 3.78372C52.0364 3.99958 51.9354 4.25244 51.8051 4.54C51.6748 4.82832 51.5199 5.12359 51.341 5.42656C51.691 5.33713 52.0341 5.18912 52.3694 4.98328C52.7048 4.77744 52.9769 4.50222 53.1851 4.15993L53.33 4.23471C53.2182 4.47292 53.0486 4.6803 52.8212 4.85685C52.5938 5.03339 52.3386 5.18449 52.0557 5.3117C51.7727 5.43813 51.4929 5.54374 51.2169 5.62854C51.0234 5.94617 50.8129 6.24451 50.5855 6.52282C50.3581 6.80112 50.1199 7.02623 49.8701 7.19738C49.6218 7.36775 49.3667 7.45333 49.1061 7.45333ZM49.0498 7.21434C49.1616 7.21434 49.3497 7.11643 49.6141 6.91985C49.8786 6.72326 50.16 6.37943 50.4583 5.88757C50.153 5.99705 49.8693 6.10498 49.6087 6.21214C49.3482 6.31852 49.1392 6.43416 48.9828 6.55905C48.8263 6.68317 48.7484 6.82733 48.7484 6.99154C48.7484 7.03163 48.7708 7.07866 48.8155 7.13339C48.8602 7.18736 48.938 7.21434 49.0498 7.21434Z" fill="#3C4242"/>
<path d="M53.4202 5.44121C53.3231 5.44121 53.2398 5.42502 53.1689 5.39264C53.098 5.36026 53.0625 5.30938 53.0625 5.23999C53.0625 5.18526 53.0957 5.13438 53.1627 5.08735C53.2298 5.04033 53.3138 5.00255 53.4141 4.97557C53.5143 4.94858 53.613 4.93471 53.7101 4.93471C53.7995 4.93471 53.8705 4.94704 53.9221 4.97171C53.9738 4.99638 54 5.04418 54 5.11357C54 5.16368 53.9722 5.21301 53.9159 5.26235C53.8597 5.31169 53.7872 5.3541 53.6978 5.38879C53.6083 5.42348 53.5174 5.44121 53.4202 5.44121Z" fill="#3C4242"/>
</svg>
