<svg width="54" height="8" viewBox="0 0 54 8" fill="none" xmlns="http://www.w3.org/2000/svg">
<path d="M5.19756 6.01492C5.03336 6.01492 4.84371 5.95016 4.62708 5.82142C4.41122 5.6919 4.18149 5.52076 3.93942 5.30721C3.69735 5.09367 3.45913 4.86162 3.224 4.6103C2.98964 4.35975 2.77301 4.10997 2.57565 3.86096C2.3783 3.61272 2.21255 3.39147 2.07841 3.19796L0.99449 5.53772C0.942067 5.65182 0.860349 5.73276 0.748566 5.77979C0.636782 5.82681 0.515748 5.85534 0.385462 5.86536C0.255176 5.87538 0.126431 5.88001 0 5.88001C0.0963654 5.74124 0.195814 5.58166 0.296034 5.40281C0.397025 5.22395 0.515746 5.00809 0.653741 4.75446C0.791736 4.50083 0.953632 4.19323 1.1402 3.83012C1.32676 3.46779 1.54801 3.03376 1.8055 2.52958C2.06222 2.02539 2.36596 1.43332 2.71673 0.752599C2.73909 0.712511 2.76916 0.657006 2.80616 0.58531C2.84316 0.513615 2.86244 0.447315 2.86244 0.387954C2.86244 0.333219 2.84393 0.290047 2.80616 0.257668C2.76916 0.225289 2.69823 0.2091 2.59416 0.2091C2.4153 0.2091 2.24184 0.257668 2.07455 0.354034C1.90726 0.450399 1.7577 0.573745 1.62742 0.723304C1.49713 0.872092 1.3946 1.02628 1.31982 1.18509C1.24504 1.3439 1.20804 1.48575 1.20804 1.60987C1.20804 1.70469 1.22654 1.78872 1.26354 1.8635C1.01762 1.8635 0.84416 1.82264 0.74394 1.74092C0.642949 1.65921 0.59284 1.55821 0.59284 1.43872C0.59284 1.26989 0.666848 1.10106 0.816407 0.932226C0.965195 0.763394 1.15716 0.607664 1.39229 0.466585C1.62742 0.324735 1.87334 0.212184 2.13006 0.127382C2.38678 0.0433514 2.6196 0.000949479 2.82852 0.000949479C3.02973 0.000949479 3.16541 0.0379547 3.23633 0.112734C3.30726 0.187514 3.34272 0.269232 3.34272 0.358659C3.34272 0.413394 3.33347 0.46813 3.31497 0.522866C3.29647 0.577601 3.27565 0.630022 3.25329 0.679361L2.31431 2.70612C2.41838 2.60667 2.55484 2.51493 2.72213 2.43013C2.88942 2.3461 3.07444 2.24896 3.27565 2.13949C3.611 1.96064 3.97025 1.75172 4.35417 1.5135C4.73809 1.27528 5.10505 1.02396 5.45505 0.761078C5.80505 0.497423 6.09569 0.244561 6.32697 0.000949479C6.36397 0.0310155 6.39018 0.0826649 6.4056 0.157444C6.42025 0.232224 6.42796 0.289275 6.42796 0.328592C6.42796 0.482776 6.33313 0.651609 6.14271 0.835089C5.9523 1.01857 5.70483 1.20898 5.39955 1.4048C5.09426 1.60138 4.75891 1.79489 4.39349 1.98608C4.02807 2.17727 3.66882 2.35766 3.31497 2.52649C2.96112 2.69533 2.64195 2.8418 2.35902 2.96592C2.58259 3.21955 2.80076 3.46008 3.01277 3.68904C3.22477 3.91724 3.45605 4.1408 3.70583 4.35975C3.95561 4.57869 4.24778 4.80226 4.58314 5.03045C4.91849 5.25864 5.32477 5.50457 5.8012 5.76822C5.74877 5.83298 5.66705 5.89003 5.55527 5.93937C5.44349 5.99025 5.32399 6.01492 5.19756 6.01492Z" fill="#3C4242"/>
<path d="M11.1783 5.73179C10.7235 5.73179 10.3866 5.64006 10.1669 5.45581C9.94716 5.27233 9.83692 5.05107 9.83692 4.79281C9.51622 5.07574 9.14772 5.297 8.73065 5.45581C8.31358 5.61462 7.89188 5.69402 7.46787 5.69402C7.01303 5.69402 6.67228 5.61076 6.44486 5.44424C6.21744 5.27772 6.10411 5.07266 6.10411 4.82982C6.10411 4.60625 6.18814 4.37034 6.35543 4.12211C6.52349 3.87387 6.74706 3.64028 7.02613 3.42134C7.30521 3.20317 7.61281 3.02508 7.94816 2.88863C8.28351 2.75217 8.615 2.68356 8.94342 2.68356C9.11456 2.68356 9.27338 2.71363 9.41831 2.77299C9.56401 2.83235 9.63648 2.95416 9.63648 3.13841C9.63648 3.32729 9.55245 3.5046 9.38516 3.67112C9.21787 3.83764 8.99739 3.98565 8.72602 4.1144C8.45389 4.24391 8.15554 4.34876 7.83175 4.43125C7.50796 4.51373 7.18495 4.56385 6.86501 4.58389C6.85036 4.634 6.8388 4.68103 6.83109 4.72574C6.82338 4.77045 6.81953 4.81285 6.81953 4.85217C6.81953 4.95162 6.84574 5.04953 6.89816 5.14666C6.94981 5.2438 7.03924 5.3232 7.16644 5.38488C7.29287 5.44732 7.47173 5.47816 7.70301 5.47816C8.09772 5.47816 8.48935 5.38488 8.87712 5.19909C9.26412 5.01252 9.60333 4.78279 9.89397 4.50988C9.96104 4.30636 10.0805 4.10283 10.2517 3.89854C10.4228 3.69502 10.6302 3.50999 10.8723 3.34347C11.1143 3.17696 11.3772 3.04282 11.6602 2.94106C11.9431 2.83929 12.2306 2.78841 12.5213 2.78841C12.6924 2.78841 12.8512 2.81848 12.9962 2.87784C13.1411 2.9372 13.2143 3.05901 13.2143 3.24326C13.2143 3.49689 13.0856 3.71891 12.8289 3.9101C12.5722 4.10129 12.2422 4.25393 11.8398 4.3688C11.4374 4.4829 11.0241 4.55536 10.5994 4.58466C10.5847 4.63477 10.5732 4.6818 10.5654 4.72651C10.5577 4.77122 10.5539 4.81363 10.5539 4.85294C10.5539 4.95239 10.5778 5.05415 10.6263 5.15823C10.6749 5.2623 10.7605 5.34787 10.8831 5.41494C11.0064 5.48201 11.183 5.51516 11.4142 5.51516C11.7349 5.51516 12.0549 5.45195 12.3756 5.32552C12.6963 5.19909 12.9938 5.03257 13.2698 4.82596C13.5458 4.62012 13.7763 4.39733 13.9629 4.15911L14.097 4.22618C13.8958 4.52453 13.6368 4.78664 13.3199 5.01253C13.0031 5.23841 12.6608 5.41495 12.2915 5.54138C11.9215 5.66858 11.5507 5.73179 11.1783 5.73179ZM6.91974 4.44204C7.12096 4.39733 7.34838 4.3318 7.60124 4.24468C7.85488 4.15757 8.09849 4.05504 8.33362 3.93554C8.56875 3.81605 8.76225 3.68499 8.91489 3.54083C9.06754 3.39667 9.14386 3.24557 9.14386 3.08599C9.14386 3.03125 9.12921 2.98885 9.09915 2.95956C9.06908 2.92949 9.00586 2.91484 8.9095 2.91484C8.73064 2.91484 8.54023 2.9611 8.33902 3.05284C8.13781 3.14458 7.9443 3.26484 7.75774 3.4144C7.57117 3.56319 7.40389 3.72739 7.25433 3.90625C7.10554 4.08433 6.99375 4.26319 6.91974 4.44204ZM10.6533 4.44204C10.8545 4.39733 11.0743 4.33796 11.3132 4.26319C11.5515 4.18841 11.7789 4.10052 11.9955 3.99876C12.2114 3.897 12.3902 3.78059 12.5321 3.64876C12.6731 3.51693 12.7441 3.372 12.7441 3.21319C12.7441 3.15845 12.7256 3.1122 12.6878 3.0752C12.6508 3.03819 12.5837 3.01969 12.4866 3.01969C12.2484 3.01969 12.0078 3.08907 11.7658 3.22861C11.5237 3.36737 11.304 3.54546 11.1059 3.76131C10.9085 3.9764 10.7574 4.20382 10.6533 4.44204Z" fill="#3C4242"/>
<path d="M13.0236 7.45328C12.9643 7.45328 12.9064 7.43246 12.8502 7.39006C12.7939 7.34766 12.7515 7.30295 12.7214 7.25592C12.6914 7.2089 12.6767 7.18037 12.6767 7.17035C12.7808 6.92674 12.8833 6.70934 12.9843 6.51815C13.0853 6.32696 13.1855 6.13037 13.2865 5.92916C13.3867 5.72795 13.4862 5.49205 13.5825 5.22146C13.6797 4.95086 13.7799 4.61397 13.8847 4.21155C13.9888 3.80913 14.0937 3.30957 14.1977 2.71365C14.2054 2.66893 14.2201 2.63655 14.2425 2.61651C14.2648 2.59647 14.3203 2.58644 14.4097 2.58644C14.6032 2.58644 14.7412 2.62268 14.8237 2.69437C14.9054 2.76607 14.9463 2.8447 14.9463 2.92873C14.9463 2.99812 14.924 3.12224 14.8792 3.30109C14.8345 3.47994 14.7713 3.69117 14.6896 3.93479C14.816 3.77058 14.9748 3.60406 15.1645 3.43523C15.3541 3.2664 15.5723 3.12455 15.8182 3.01045C16.0641 2.89635 16.3324 2.83931 16.6231 2.83931C16.9507 2.83931 17.2213 2.91794 17.4333 3.07367C17.6453 3.23016 17.7517 3.43523 17.7517 3.68886C17.7517 3.88236 17.6862 4.08743 17.5559 4.30329C17.4256 4.51915 17.2429 4.72344 17.0085 4.91463C16.7742 5.10582 16.4959 5.26154 16.1759 5.38027C15.8552 5.49976 15.5014 5.55912 15.1144 5.55912C14.9201 5.55912 14.7644 5.54448 14.6449 5.51441C14.5254 5.48435 14.466 5.45505 14.466 5.42498C14.466 5.40494 14.4938 5.39414 14.5501 5.39106C14.6063 5.38875 14.6711 5.38721 14.7459 5.38721C15.0442 5.38721 15.3287 5.33864 15.6008 5.2415C15.873 5.14437 16.1166 5.01639 16.3332 4.85758C16.5491 4.69877 16.7187 4.52223 16.842 4.32873C16.9646 4.13523 17.0263 3.94404 17.0263 3.75516C17.0263 3.59635 16.9761 3.46067 16.8752 3.34889C16.7749 3.2371 16.6123 3.1816 16.3887 3.1816C16.1952 3.1816 16.0032 3.22245 15.8128 3.30417C15.6224 3.38589 15.4436 3.49073 15.2763 3.61717C15.1082 3.7436 14.9594 3.87543 14.8291 4.01188C14.6988 4.14833 14.6002 4.27168 14.5331 4.38038C14.3989 4.75274 14.2648 5.11199 14.1307 5.45736C13.9965 5.80273 13.8678 6.11573 13.7452 6.39634C13.6219 6.67696 13.5108 6.90669 13.4099 7.08555C13.3096 7.2644 13.2256 7.37387 13.1585 7.41319C13.12 7.44094 13.0753 7.45328 13.0236 7.45328Z" fill="#3C4242"/>
<path d="M21.8092 5.55989C21.5185 5.55989 21.3019 5.49899 21.1608 5.37718C21.019 5.25538 20.9488 5.10736 20.9488 4.9339C20.9488 4.8198 20.9804 4.67564 21.0436 4.50141C21.1069 4.32796 21.1909 4.14525 21.295 3.95406C21.399 3.76287 21.5201 3.58248 21.6581 3.41364C21.7961 3.24481 21.9433 3.10681 22.0998 2.99965C22.2563 2.89327 22.4089 2.83931 22.5585 2.83931C22.6256 2.83931 22.6834 2.85318 22.732 2.88016C22.7805 2.90714 22.8044 2.94878 22.8044 3.00274C22.8044 3.0621 22.7466 3.15923 22.631 3.29338C22.5153 3.42752 22.3796 3.5817 22.2231 3.75516C22.0667 3.92939 21.931 4.11133 21.8153 4.30252C21.6997 4.4937 21.6419 4.67641 21.6419 4.85064C21.6419 5.02949 21.6866 5.14899 21.776 5.20835C21.8654 5.26771 22.0034 5.29778 22.19 5.29778C22.4436 5.29778 22.7135 5.21375 23.0002 5.04414C23.287 4.87531 23.5908 4.58005 23.9115 4.15758L24.0117 4.23236C23.7958 4.65945 23.4844 4.98786 23.0781 5.21606C22.6711 5.44579 22.2486 5.55989 21.8092 5.55989ZM23.1498 2.14701C23.0303 2.14701 22.9247 2.12697 22.8314 2.08766C22.7381 2.04757 22.6919 1.98589 22.6919 1.90109C22.6919 1.79701 22.7828 1.70605 22.9655 1.62895C23.1483 1.55186 23.3287 1.51332 23.5075 1.51332C23.6193 1.51332 23.7087 1.53105 23.7758 1.56574C23.8429 1.60043 23.876 1.66056 23.876 1.74459C23.876 1.83865 23.7997 1.92961 23.647 2.01673C23.4952 2.10384 23.3294 2.14701 23.1498 2.14701Z" fill="#3C4242"/>
<path d="M24.6464 5.70944C24.3257 5.70944 24.0798 5.64699 23.9087 5.52287C23.7375 5.39876 23.652 5.21527 23.652 4.97166C23.652 4.75349 23.7136 4.48367 23.8362 4.16296C23.9588 3.84226 24.1137 3.51385 24.3003 3.17541C24.2255 3.16539 24.1554 3.15691 24.0883 3.1492C24.0212 3.14149 23.958 3.1307 23.8986 3.11605V2.98191C23.958 2.98654 24.0289 2.99193 24.1107 2.99656C24.1924 3.00118 24.2857 3.00658 24.3897 3.01121C24.5462 2.74292 24.7143 2.48313 24.8924 2.23258C25.0712 1.98203 25.2485 1.75846 25.4235 1.56187C25.5985 1.36606 25.7666 1.20879 25.9269 1.09238C26.0873 0.975968 26.223 0.917381 26.3348 0.917381C26.3941 0.917381 26.4481 0.931255 26.4967 0.958237C26.5452 0.985219 26.5691 1.02685 26.5691 1.08082C26.5691 1.16562 26.4913 1.30284 26.3348 1.4948C26.1783 1.68599 25.9848 1.91341 25.7535 2.17629C25.5222 2.43995 25.2986 2.72519 25.0828 3.03356C25.1499 3.03356 25.2185 3.03356 25.2894 3.03356C25.3603 3.03356 25.4289 3.03356 25.496 3.03356C25.7419 3.03356 26.001 3.03125 26.2731 3.02585C26.5452 3.02123 26.8189 3.00812 27.0949 2.98885V3.12299C26.6848 3.15306 26.3178 3.17541 25.994 3.19006C25.6702 3.20471 25.3811 3.21242 25.1275 3.21242C25.0974 3.21242 25.0697 3.21242 25.0435 3.21242C25.0173 3.21242 24.9895 3.21242 24.9594 3.21242C24.7883 3.47607 24.6426 3.74667 24.5239 4.02497C24.4044 4.30327 24.345 4.57387 24.345 4.83752C24.345 5.05107 24.3936 5.20371 24.49 5.29545C24.5863 5.38719 24.7467 5.43344 24.971 5.43344C25.3588 5.43344 25.7388 5.31935 26.1112 5.09039C26.4836 4.86219 26.8112 4.55151 27.0949 4.15911L27.2398 4.23389C27.061 4.51219 26.8351 4.76274 26.5637 4.98631C26.2916 5.20988 25.9917 5.38642 25.6641 5.51516C25.3357 5.64468 24.9972 5.70944 24.6464 5.70944Z" fill="#3C4242"/>
<path d="M30.9865 5.78347C30.6288 5.78347 30.3304 5.70406 30.0922 5.54525C29.854 5.38644 29.7345 5.14823 29.7345 4.82984C29.7345 4.5816 29.807 4.33953 29.9527 4.10285C30.0976 3.86695 30.2896 3.65495 30.5286 3.46608C30.7668 3.2772 31.0312 3.12687 31.3218 3.01508C31.6125 2.9033 31.8993 2.84779 32.183 2.84779C32.4882 2.84779 32.6972 2.90716 32.8089 3.02665C32.9207 3.14614 32.9762 3.27026 32.9762 3.39901C32.9762 3.54317 32.9261 3.6696 32.8251 3.77907C32.7249 3.88854 32.5885 3.94328 32.4173 3.94328C32.2909 3.94328 32.183 3.90627 32.0928 3.83149C32.2045 3.79218 32.3017 3.71123 32.3834 3.58942C32.4651 3.46762 32.5067 3.35198 32.5067 3.24251C32.5067 3.18315 32.4898 3.13689 32.4566 3.10451C32.4227 3.07213 32.358 3.05594 32.2608 3.05594C32.0596 3.05594 31.853 3.11531 31.6402 3.2348C31.4282 3.35429 31.2301 3.5077 31.0482 3.69658C30.8654 3.88546 30.7167 4.08435 30.601 4.2925C30.4854 4.50142 30.4276 4.69724 30.4276 4.88149C30.4276 5.03567 30.4838 5.17675 30.5956 5.30627C30.7074 5.43501 30.9233 5.49977 31.244 5.49977C31.5423 5.49977 31.8422 5.44504 32.1436 5.33556C32.4451 5.22609 32.7265 5.06959 32.9878 4.86607C33.2484 4.66255 33.4573 4.42356 33.6138 4.15066L33.7587 4.22543C33.5876 4.52378 33.3524 4.79052 33.0549 5.02642C32.7565 5.26233 32.4289 5.44735 32.0712 5.58149C31.7127 5.7164 31.3511 5.78347 30.9865 5.78347Z" fill="#3C4242"/>
<path d="M34.3277 5.58996C34.007 5.58996 33.778 5.51672 33.64 5.37025C33.502 5.22377 33.4334 5.04107 33.4334 4.82289C33.4334 4.58468 33.5005 4.30098 33.6346 3.97334C33.7688 3.64569 33.9461 3.30032 34.1658 2.93722C34.3855 2.57488 34.626 2.22103 34.8866 1.87489C35.1472 1.52951 35.4078 1.21575 35.6691 0.932048C35.9297 0.649119 36.1702 0.422464 36.3899 0.253632C36.6096 0.0847998 36.7831 0 36.9095 0C36.9912 0 37.0583 0.0308386 37.1107 0.0932834C37.1631 0.155728 37.204 0.229734 37.2341 0.316848C37.2634 0.403963 37.2788 0.481829 37.2788 0.551212C37.2788 0.685353 37.2287 0.860348 37.1277 1.07698C37.0275 1.29284 36.8856 1.53414 36.7029 1.8001C36.5202 2.06607 36.3043 2.33435 36.0546 2.60495C35.8048 2.87554 35.5326 3.13535 35.2389 3.38358C34.9444 3.63182 34.6338 3.84537 34.3053 4.02422C34.2606 4.15836 34.2252 4.28865 34.199 4.41585C34.1727 4.54228 34.1596 4.66331 34.1596 4.77741C34.1596 4.97091 34.2005 5.11508 34.2822 5.2099C34.3639 5.30395 34.4873 5.35175 34.6515 5.35175C34.8527 5.35175 35.0524 5.29238 35.2497 5.17289C35.4471 5.0534 35.6336 4.90307 35.8086 4.7219C35.9836 4.54074 36.1347 4.3534 36.2612 4.15913L36.4285 4.21849C36.1301 4.64095 35.8063 4.97476 35.4556 5.22069C35.1063 5.46738 34.7301 5.58996 34.3277 5.58996ZM34.4063 3.77135C34.6669 3.59713 34.9205 3.39746 35.1665 3.17158C35.4124 2.9457 35.6413 2.71057 35.8541 2.46773C36.0669 2.22411 36.255 1.98821 36.4184 1.76002C36.5819 1.53183 36.7091 1.32676 36.7985 1.14559C36.8879 0.964424 36.9326 0.824119 36.9326 0.72467C36.9326 0.675331 36.9234 0.642951 36.9049 0.627533C36.8864 0.612885 36.8694 0.605173 36.8548 0.605173C36.7954 0.605173 36.6929 0.66839 36.5472 0.794821C36.4022 0.921253 36.2326 1.09163 36.0384 1.30517C35.8449 1.51872 35.6475 1.76233 35.4463 2.03524C35.2451 2.30815 35.0531 2.59416 34.8704 2.89251C34.6869 3.19008 34.5328 3.4838 34.4063 3.77135Z" fill="#3C4242"/>
<path d="M36.5756 5.7164C36.3444 5.7164 36.1485 5.66552 35.989 5.56376C35.8286 5.462 35.7484 5.30704 35.7484 5.09812C35.7484 4.91927 35.8078 4.72654 35.9273 4.5207C36.046 4.31487 36.2102 4.11057 36.4191 3.90936C36.6281 3.70815 36.8647 3.52467 37.1292 3.35815C37.3936 3.19163 37.6727 3.05903 37.9679 2.95958C38.2624 2.86013 38.5546 2.8108 38.8452 2.8108C39.1359 2.8108 39.3779 2.86167 39.5714 2.96344C39.765 3.0652 39.8621 3.20088 39.8621 3.36971C39.8621 3.49383 39.812 3.57863 39.711 3.62335C39.61 3.66806 39.4782 3.69042 39.314 3.69042C39.3286 3.65033 39.3417 3.60716 39.3533 3.56013C39.3648 3.5131 39.3702 3.46993 39.3702 3.42984C39.3702 3.31575 39.3294 3.21784 39.2477 3.13535C39.1652 3.05363 39.0241 3.01278 38.8229 3.01278C38.614 3.01278 38.402 3.06135 38.1853 3.15771C37.9695 3.25485 37.7605 3.38359 37.5593 3.54548C37.3581 3.70738 37.1793 3.88238 37.0228 4.07125C36.8663 4.26013 36.7437 4.44669 36.6535 4.63017C36.5641 4.81365 36.5194 4.97786 36.5194 5.12202C36.5194 5.31552 36.6196 5.41266 36.8216 5.41266C36.9927 5.41266 37.1793 5.35947 37.3805 5.25231C37.5817 5.14592 37.7883 5.00869 38.0011 4.84218C38.2131 4.67566 38.4166 4.50297 38.6101 4.32412C38.8036 4.14526 38.9755 3.98106 39.1243 3.83227C39.1536 3.8022 39.1729 3.78755 39.1798 3.78755C39.2245 3.79218 39.2824 3.8022 39.3533 3.81762C39.4242 3.83227 39.4859 3.85231 39.5375 3.87698C39.59 3.90165 39.6162 3.93403 39.6162 3.97412C39.6162 4.01883 39.5822 4.07973 39.5152 4.15682C39.4481 4.23392 39.3733 4.3218 39.2916 4.42125C39.2091 4.5207 39.1351 4.62169 39.068 4.72345C39.001 4.82522 38.9678 4.92081 38.9678 5.01024C38.9678 5.08502 38.9971 5.15826 39.0572 5.22995C39.1166 5.30242 39.2137 5.33788 39.3479 5.33788C39.5491 5.33788 39.8135 5.23997 40.1412 5.04339C40.4688 4.84757 40.8011 4.55308 41.1364 4.15991L41.2482 4.23469C41.0917 4.50297 40.8905 4.73887 40.6446 4.94239C40.3986 5.14592 40.1358 5.3055 39.8567 5.4196C39.5776 5.53369 39.3032 5.59074 39.0349 5.59074C38.7589 5.59074 38.5561 5.53601 38.4259 5.42654C38.2956 5.31707 38.23 5.19834 38.23 5.06883C38.23 5.03876 38.2339 5.00561 38.2416 4.96861C38.2485 4.9316 38.2563 4.89306 38.264 4.85297C37.9433 5.14129 37.6511 5.35715 37.3867 5.50131C37.1215 5.64471 36.8509 5.7164 36.5756 5.7164Z" fill="#3C4242"/>
<path d="M42.0859 5.74646C41.7359 5.74646 41.4583 5.69558 41.2533 5.59382C41.0482 5.49206 40.9033 5.3664 40.8169 5.21761C40.7314 5.06882 40.6882 4.91927 40.6882 4.77048C40.6882 4.62169 40.7182 4.50682 40.7776 4.42742C40.8377 4.34801 40.9102 4.28865 40.9958 4.24856C41.0814 4.20847 41.1631 4.17918 41.2417 4.15914C41.3203 4.13909 41.3735 4.11905 41.4036 4.09977C41.6272 3.93557 41.8322 3.76442 42.0188 3.58557C42.2054 3.40671 42.3688 3.21784 42.5106 3.01894V2.92951C42.5106 2.74603 42.5569 2.61497 42.6502 2.53788C42.7435 2.46079 42.8421 2.42224 42.9462 2.42224C43.0056 2.42224 43.0503 2.43227 43.0804 2.45231C43.1104 2.47235 43.1251 2.49471 43.1251 2.51938C43.1251 2.54405 43.1143 2.58414 43.0919 2.63887C43.0696 2.69361 43.058 2.76299 43.058 2.84779C43.058 3.012 43.1066 3.18931 43.2029 3.3805C43.3001 3.57169 43.3964 3.7729 43.4936 3.98413C43.5899 4.19537 43.6385 4.41508 43.6385 4.64327C43.6385 4.70803 43.6331 4.77125 43.6215 4.83292C43.6107 4.89537 43.5938 4.95319 43.5714 5.00792C43.832 4.97786 44.0779 4.89999 44.3092 4.77356C44.5405 4.64713 44.764 4.44437 44.9799 4.16607L45.0801 4.24085C44.9383 4.51376 44.7263 4.72114 44.4433 4.86299C44.1604 5.00484 43.8505 5.09272 43.5152 5.12741C43.3957 5.34096 43.2076 5.49745 42.9508 5.5969C42.6949 5.69712 42.4058 5.74646 42.0859 5.74646ZM42.1082 5.48589C42.1976 5.48589 42.3171 5.46585 42.4659 5.42653C42.6147 5.38645 42.7304 5.28468 42.8128 5.12125C42.4998 5.08193 42.2223 4.99944 41.9802 4.87532C41.7382 4.7512 41.557 4.62708 41.4383 4.50296C41.2741 4.50836 41.1924 4.5947 41.1924 4.76354C41.1924 4.94239 41.2725 5.10737 41.4329 5.25924C41.5917 5.40957 41.8176 5.48589 42.1082 5.48589ZM42.8683 5.00098C42.883 4.95164 42.8946 4.89922 42.9015 4.84449C42.9092 4.78975 42.9131 4.72499 42.9131 4.65098C42.9131 4.4174 42.8699 4.18534 42.7843 3.95407C42.6987 3.72279 42.6263 3.50539 42.5661 3.30187C42.395 3.49075 42.2138 3.67114 42.0242 3.84229C41.8345 4.01343 41.6534 4.15682 41.4822 4.27092C41.594 4.42973 41.7675 4.57929 42.0018 4.71805C42.237 4.85759 42.5253 4.95164 42.8683 5.00098Z" fill="#3C4242"/>
<path d="M45.9416 5.74646C45.5916 5.74646 45.3141 5.69558 45.109 5.59382C44.9039 5.49206 44.759 5.3664 44.6727 5.21761C44.5871 5.06882 44.5439 4.91927 44.5439 4.77048C44.5439 4.62169 44.574 4.50682 44.6333 4.42742C44.6935 4.34801 44.7659 4.28865 44.8515 4.24856C44.9371 4.20847 45.0188 4.17918 45.0974 4.15914C45.1761 4.13909 45.2293 4.11905 45.2593 4.09977C45.4829 3.93557 45.688 3.76442 45.8745 3.58557C46.0611 3.40671 46.2245 3.21784 46.3664 3.01894V2.92951C46.3664 2.74603 46.4126 2.61497 46.5059 2.53788C46.5992 2.46079 46.6979 2.42224 46.802 2.42224C46.8613 2.42224 46.906 2.43227 46.9361 2.45231C46.9662 2.47235 46.9808 2.49471 46.9808 2.51938C46.9808 2.54405 46.97 2.58414 46.9477 2.63887C46.9253 2.69361 46.9137 2.76299 46.9137 2.84779C46.9137 3.012 46.9623 3.18931 47.0587 3.3805C47.1558 3.57169 47.2522 3.7729 47.3493 3.98413C47.4457 4.19537 47.4942 4.41508 47.4942 4.64327C47.4942 4.70803 47.4888 4.77125 47.4773 4.83292C47.4665 4.89537 47.4495 4.95319 47.4272 5.00792C47.6877 4.97786 47.9337 4.89999 48.1649 4.77356C48.3962 4.64713 48.6198 4.44437 48.8356 4.16607L48.9359 4.24085C48.794 4.51376 48.582 4.72114 48.2991 4.86299C48.0162 5.00484 47.7062 5.09272 47.3709 5.12741C47.2514 5.34096 47.0633 5.49745 46.8066 5.5969C46.5514 5.69712 46.2623 5.74646 45.9416 5.74646ZM45.964 5.48589C46.0534 5.48589 46.1729 5.46585 46.3217 5.42653C46.4705 5.38645 46.5861 5.28468 46.6686 5.12125C46.3556 5.08193 46.0781 4.99944 45.836 4.87532C45.5939 4.7512 45.4128 4.62708 45.294 4.50296C45.1298 4.50836 45.0481 4.5947 45.0481 4.76354C45.0481 4.94239 45.1283 5.10737 45.2886 5.25924C45.4482 5.40957 45.6733 5.48589 45.964 5.48589ZM46.7241 5.00098C46.7387 4.95164 46.7503 4.89922 46.7572 4.84449C46.7649 4.78975 46.7688 4.72499 46.7688 4.65098C46.7688 4.4174 46.7256 4.18534 46.6401 3.95407C46.5545 3.72279 46.482 3.50539 46.4219 3.30187C46.2507 3.49075 46.0696 3.67114 45.8799 3.84229C45.6903 4.01343 45.5091 4.15682 45.338 4.27092C45.4498 4.42973 45.6232 4.57929 45.8576 4.71805C46.0927 4.85759 46.3818 4.95164 46.7241 5.00098Z" fill="#3C4242"/>
<path d="M49.1062 7.45329C48.9197 7.45329 48.7562 7.42014 48.6144 7.35307C48.4725 7.286 48.4016 7.1881 48.4016 7.05858C48.4016 6.89977 48.4618 6.75792 48.5805 6.6338C48.6992 6.50968 48.8595 6.39558 49.0615 6.29074C49.2627 6.18666 49.4932 6.08722 49.7546 5.99239C50.0152 5.89834 50.2873 5.80352 50.5702 5.70947C50.6743 5.52599 50.7807 5.32092 50.8886 5.09504C50.9965 4.86916 51.0991 4.61938 51.1962 4.34647C50.958 4.60473 50.7028 4.82676 50.4307 5.01332C50.1586 5.19989 49.8695 5.2924 49.5642 5.2924C49.4223 5.2924 49.2828 5.27158 49.1448 5.22918C49.0068 5.18678 48.8935 5.12125 48.804 5.03183C48.7146 4.9424 48.6699 4.8283 48.6699 4.68876C48.6699 4.55 48.7054 4.3881 48.7763 4.20462C48.8472 4.02114 48.9343 3.84229 49.0392 3.66806C49.1432 3.4946 49.2512 3.35044 49.3637 3.23557C49.4763 3.1207 49.5727 3.06443 49.6544 3.06443C49.6844 3.06443 49.7384 3.07214 49.8163 3.08678C49.8949 3.10143 49.9689 3.12302 50.0398 3.15C50.1108 3.17775 50.1462 3.20628 50.1462 3.23557C50.0792 3.30033 50.0044 3.39207 49.9227 3.51156C49.8402 3.63106 49.7608 3.76365 49.6821 3.91013C49.6043 4.0566 49.5387 4.19923 49.4863 4.33877C49.4339 4.47753 49.4084 4.59702 49.4084 4.69647C49.4084 4.7859 49.4377 4.85759 49.4979 4.91233C49.5572 4.96706 49.6621 4.99405 49.8109 4.99405C49.9519 4.99405 50.1108 4.94856 50.2858 4.85605C50.4608 4.76431 50.6358 4.64636 50.8115 4.5022C50.9865 4.35804 51.1484 4.20385 51.298 4.04041C51.3203 3.98568 51.3404 3.93017 51.3597 3.87313C51.3782 3.81608 51.3951 3.75749 51.4098 3.69812C51.4321 3.62874 51.4861 3.5478 51.5717 3.45606C51.6572 3.36432 51.7937 3.31806 51.9795 3.31806C52.0165 3.31806 52.0535 3.31961 52.0913 3.32192C52.1283 3.32423 52.1691 3.3304 52.2138 3.34042C52.2138 3.41983 52.1784 3.56784 52.1074 3.7837C52.0365 3.99956 51.9355 4.25242 51.8052 4.53998C51.675 4.8283 51.52 5.12357 51.3412 5.42654C51.6912 5.33711 52.0342 5.18909 52.3696 4.98326C52.7049 4.77742 52.977 4.5022 53.1852 4.15991L53.3301 4.23469C53.2183 4.4729 53.0487 4.68028 52.8213 4.85682C52.5939 5.03337 52.3387 5.18447 52.0558 5.31167C51.7729 5.4381 51.493 5.54372 51.217 5.62852C51.0235 5.94614 50.8131 6.24448 50.5856 6.52279C50.3582 6.80109 50.12 7.0262 49.8702 7.19735C49.622 7.36772 49.3668 7.45329 49.1062 7.45329ZM49.05 7.21431C49.1617 7.21431 49.3499 7.1164 49.6143 6.91982C49.8787 6.72323 50.1601 6.3794 50.4584 5.88755C50.1532 5.99702 49.8695 6.10495 49.6089 6.21211C49.3483 6.3185 49.1394 6.43413 48.9829 6.55902C48.8264 6.68314 48.7485 6.8273 48.7485 6.99151C48.7485 7.0316 48.7709 7.07863 48.8156 7.13336C48.8603 7.18733 48.9382 7.21431 49.05 7.21431Z" fill="#3C4242"/>
<path d="M53.4207 5.44118C53.3236 5.44118 53.2403 5.425 53.1694 5.39262C53.0985 5.36024 53.063 5.30935 53.063 5.23997C53.063 5.18523 53.0962 5.13436 53.1632 5.08733C53.2303 5.0403 53.3143 5.00253 53.4146 4.97554C53.5148 4.94856 53.6135 4.93469 53.7106 4.93469C53.8 4.93469 53.8709 4.94702 53.9226 4.97169C53.9743 4.99636 54.0005 5.04416 54.0005 5.11354C54.0005 5.16365 53.9727 5.21299 53.9164 5.26233C53.8601 5.31167 53.7877 5.35407 53.6983 5.38876C53.6088 5.42345 53.5179 5.44118 53.4207 5.44118Z" fill="#3C4242"/>
</svg>
