<svg width="54" height="44" viewBox="0 0 54 44" fill="none" xmlns="http://www.w3.org/2000/svg">
<path d="M52.7429 43.6064C52.5736 43.6047 52.4063 43.5692 52.2508 43.5019C52.0954 43.4346 51.9549 43.3369 51.8377 43.2146C51.5441 42.8717 21.5242 10.2981 0.923666 2.41183C0.75668 2.3696 0.600484 2.29254 0.4653 2.1857C0.330116 2.07887 0.218975 1.94468 0.139183 1.79189C0.0593904 1.63909 0.0127441 1.47117 0.00226636 1.29908C-0.00821141 1.12698 0.0177219 0.954586 0.0783871 0.793223C0.139052 0.631861 0.233069 0.485149 0.354292 0.362673C0.475514 0.240196 0.621213 0.144721 0.781841 0.0825024C0.942468 0.0202833 1.1144 -0.00726339 1.28641 0.00163161C1.45841 0.0105266 1.62661 0.0556547 1.77998 0.134112C22.9432 8.33874 52.4004 40.1776 53.6482 41.5491C53.8739 41.7822 54.0001 42.094 54.0001 42.4186C54.0001 42.7432 53.8739 43.055 53.6482 43.2881C53.5265 43.3995 53.3836 43.4851 53.228 43.5398C53.0725 43.5945 52.9075 43.6172 52.7429 43.6064Z" fill="#3C4242"/>
</svg>
