<svg width="30" height="21" viewBox="0 0 30 21" fill="none" xmlns="http://www.w3.org/2000/svg">
<path d="M1.21773 20.9996C1.02144 21.0049 0.826954 20.9607 0.652184 20.8711C0.477415 20.7815 0.327967 20.6493 0.217587 20.4868C0.0348641 20.2197 -0.0367499 19.8918 0.0178936 19.5727C0.0725372 19.2537 0.249168 18.9684 0.510334 18.7775L27.3431 0.219268C27.4757 0.12678 27.6253 0.061591 27.7832 0.0274723C27.9412 -0.00664635 28.1043 -0.00901151 28.2632 0.0205234C28.4221 0.0500582 28.5735 0.110906 28.7087 0.19952C28.8439 0.288134 28.9601 0.402756 29.0507 0.536723C29.1425 0.667483 29.2071 0.815312 29.2409 0.971509C29.2747 1.12771 29.2768 1.28909 29.2473 1.44614C29.2177 1.60319 29.157 1.75274 29.0688 1.88592C28.9806 2.01911 28.8666 2.13324 28.7335 2.2216L1.90074 20.7798C1.70242 20.9243 1.46302 21.0013 1.21773 20.9996Z" fill="#D1D3D4"/>
</svg>
