<svg width="54" height="8" viewBox="0 0 54 8" fill="none" xmlns="http://www.w3.org/2000/svg">
<path d="M5.19766 6.01503C5.03345 6.01503 4.8438 5.95027 4.62716 5.82152C4.4113 5.69201 4.18156 5.52086 3.93949 5.30731C3.69741 5.09376 3.45919 4.86171 3.22406 4.61038C2.98969 4.35983 2.77306 4.11004 2.5757 3.86103C2.37834 3.61279 2.21259 3.39153 2.07845 3.19802L0.994508 5.53782C0.942085 5.65192 0.860365 5.73286 0.748579 5.77989C0.636793 5.82692 0.515757 5.85545 0.385468 5.86547C0.25518 5.87549 0.126434 5.88012 0 5.88012C0.0963671 5.74135 0.195818 5.58176 0.29604 5.40291C0.397032 5.22405 0.515755 5.00818 0.653753 4.75454C0.791751 4.50091 0.95365 4.1933 1.14022 3.83019C1.32678 3.46785 1.54804 3.03381 1.80553 2.52962C2.06226 2.02543 2.366 1.43335 2.71678 0.752613C2.73914 0.712524 2.76921 0.657018 2.80621 0.585321C2.84322 0.513624 2.86249 0.447324 2.86249 0.387961C2.86249 0.333225 2.84399 0.290052 2.80621 0.257673C2.76921 0.225293 2.69828 0.209103 2.5942 0.209103C2.41535 0.209103 2.24189 0.257673 2.07459 0.35404C1.9073 0.450407 1.75774 0.573755 1.62745 0.723317C1.49716 0.872108 1.39462 1.02629 1.31984 1.18511C1.24506 1.34392 1.20806 1.48577 1.20806 1.60989C1.20806 1.70472 1.22656 1.78875 1.26356 1.86353C1.01764 1.86353 0.844176 1.82267 0.743954 1.74095C0.642961 1.65924 0.592851 1.55824 0.592851 1.43874C0.592851 1.26991 0.66686 1.10108 0.816422 0.932243C0.965213 0.763407 1.15718 0.607675 1.39231 0.466594C1.62745 0.324741 1.87338 0.212187 2.1301 0.127384C2.38682 0.0433522 2.61964 0.000949496 2.82857 0.000949496C3.02978 0.000949496 3.16547 0.0379554 3.23639 0.112736C3.30732 0.187517 3.34278 0.269237 3.34278 0.358665C3.34278 0.413402 3.33353 0.468139 3.31503 0.522875C3.29653 0.577612 3.27571 0.630033 3.25335 0.679373L2.31435 2.70616C2.41843 2.60671 2.55488 2.51498 2.72218 2.43017C2.88947 2.34614 3.0745 2.249 3.27571 2.13953C3.61107 1.96067 3.97032 1.75175 4.35425 1.51353C4.73818 1.27531 5.10514 1.02398 5.45515 0.761092C5.80515 0.497432 6.0958 0.244566 6.32708 0.000949496C6.36409 0.031016 6.3903 0.0826664 6.40572 0.157447C6.42036 0.232228 6.42807 0.28928 6.42807 0.328598C6.42807 0.482785 6.33325 0.651621 6.14283 0.835104C5.9524 1.01859 5.70493 1.209 5.39964 1.40482C5.09435 1.60141 4.75899 1.79492 4.39357 1.98611C4.02815 2.1773 3.66889 2.3577 3.31503 2.52654C2.96117 2.69538 2.642 2.84185 2.35907 2.96597C2.58264 3.21961 2.80081 3.46014 3.01282 3.68911C3.22483 3.91731 3.45611 4.14088 3.70589 4.35983C3.95568 4.57877 4.24786 4.80234 4.58322 5.03054C4.91858 5.25874 5.32486 5.50467 5.8013 5.76833C5.74888 5.83309 5.66716 5.89013 5.55537 5.93947C5.44359 5.99036 5.32409 6.01503 5.19766 6.01503Z" fill="#3C4242"/>
<path d="M11.1785 5.7319C10.7237 5.7319 10.3868 5.64016 10.1671 5.4559C9.94734 5.27242 9.8371 5.05116 9.8371 4.7929C9.51639 5.07583 9.14788 5.29709 8.73081 5.4559C8.31373 5.61472 7.89203 5.69412 7.46801 5.69412C7.01316 5.69412 6.6724 5.61086 6.44498 5.44434C6.21755 5.27782 6.10422 5.07275 6.10422 4.8299C6.10422 4.60633 6.18825 4.37042 6.35555 4.12218C6.52361 3.87394 6.74718 3.64035 7.02626 3.4214C7.30534 3.20323 7.61294 3.02514 7.9483 2.88868C8.28366 2.75222 8.61516 2.68361 8.94358 2.68361C9.11473 2.68361 9.27354 2.71368 9.41848 2.77304C9.56419 2.8324 9.63666 2.95421 9.63666 3.13847C9.63666 3.32735 9.55262 3.50466 9.38533 3.67118C9.21804 3.83771 8.99755 3.98573 8.72618 4.11447C8.45404 4.24399 8.15568 4.34884 7.83189 4.43133C7.5081 4.51382 7.18508 4.56393 6.86514 4.58398C6.85049 4.63409 6.83892 4.68111 6.83122 4.72582C6.82351 4.77054 6.81965 4.81294 6.81965 4.85226C6.81965 4.95171 6.84586 5.04962 6.89829 5.14676C6.94994 5.2439 7.03937 5.3233 7.16657 5.38498C7.293 5.44742 7.47186 5.47826 7.70314 5.47826C8.09786 5.47826 8.4895 5.38498 8.87728 5.19918C9.26429 5.01261 9.6035 4.78288 9.89415 4.50996C9.96122 4.30644 10.0807 4.10291 10.2519 3.89861C10.423 3.69508 10.6304 3.51006 10.8725 3.34354C11.1145 3.17701 11.3774 3.04287 11.6604 2.94111C11.9433 2.83934 12.2309 2.78846 12.5215 2.78846C12.6926 2.78846 12.8515 2.81853 12.9964 2.87789C13.1413 2.93725 13.2146 3.05906 13.2146 3.24331C13.2146 3.49695 13.0858 3.71898 12.8291 3.91017C12.5724 4.10136 12.2424 4.25401 11.84 4.36888C11.4376 4.48298 11.0243 4.55545 10.5996 4.58474C10.5849 4.63485 10.5733 4.68188 10.5656 4.7266C10.5579 4.77131 10.5541 4.81371 10.5541 4.85303C10.5541 4.95248 10.578 5.05424 10.6265 5.15832C10.6751 5.2624 10.7607 5.34797 10.8833 5.41504C11.0066 5.48211 11.1832 5.51526 11.4144 5.51526C11.7351 5.51526 12.0551 5.45205 12.3758 5.32562C12.6965 5.19918 12.9941 5.03266 13.2701 4.82605C13.5461 4.62021 13.7766 4.39741 13.9632 4.15919L14.0973 4.22626C13.8961 4.52461 13.637 4.78673 13.3202 5.01262C13.0033 5.2385 12.661 5.41504 12.2918 5.54148C11.9217 5.66868 11.5509 5.7319 11.1785 5.7319ZM6.91987 4.44212C7.12108 4.39741 7.34851 4.33188 7.60138 4.24476C7.85502 4.15765 8.09864 4.05511 8.33377 3.93561C8.56891 3.81612 8.76241 3.68506 8.91506 3.5409C9.0677 3.39673 9.14403 3.24563 9.14403 3.08605C9.14403 3.03131 9.12938 2.98891 9.09931 2.95961C9.06924 2.92954 9.00603 2.91489 8.90966 2.91489C8.7308 2.91489 8.54038 2.96115 8.33917 3.05289C8.13795 3.14463 7.94445 3.2649 7.75788 3.41446C7.57131 3.56325 7.40402 3.72746 7.25446 3.90632C7.10567 4.08441 6.99388 4.26326 6.91987 4.44212ZM10.6535 4.44212C10.8547 4.39741 11.0745 4.33804 11.3134 4.26326C11.5517 4.18848 11.7791 4.1006 11.9957 3.99883C12.2116 3.89707 12.3904 3.78066 12.5323 3.64883C12.6734 3.517 12.7443 3.37206 12.7443 3.21325C12.7443 3.15851 12.7258 3.11226 12.688 3.07525C12.651 3.03825 12.5839 3.01974 12.4868 3.01974C12.2486 3.01974 12.0081 3.08913 11.766 3.22867C11.5239 3.36744 11.3042 3.54552 11.1061 3.76138C10.9087 3.97647 10.7576 4.2039 10.6535 4.44212Z" fill="#3C4242"/>
<path d="M13.0229 7.45342C12.9635 7.45342 12.9057 7.4326 12.8494 7.3902C12.7931 7.3478 12.7507 7.30308 12.7207 7.25606C12.6906 7.20903 12.676 7.18051 12.676 7.17048C12.78 6.92687 12.8826 6.70946 12.9836 6.51827C13.0846 6.32708 13.1848 6.13049 13.2858 5.92927C13.386 5.72806 13.4854 5.49215 13.5818 5.22155C13.6789 4.95095 13.7792 4.61406 13.884 4.21163C13.9881 3.8092 14.0929 3.30963 14.197 2.7137C14.2047 2.66898 14.2194 2.6366 14.2417 2.61656C14.2641 2.59651 14.3196 2.58649 14.409 2.58649C14.6025 2.58649 14.7405 2.62273 14.823 2.69442C14.9047 2.76612 14.9456 2.84475 14.9456 2.92879C14.9456 2.99817 14.9232 3.12229 14.8785 3.30115C14.8338 3.48001 14.7706 3.69124 14.6889 3.93486C14.8153 3.77065 14.9741 3.60413 15.1638 3.43529C15.3534 3.26646 15.5716 3.1246 15.8175 3.0105C16.0635 2.89641 16.3317 2.83936 16.6224 2.83936C16.95 2.83936 17.2206 2.91799 17.4326 3.07372C17.6446 3.23022 17.751 3.43529 17.751 3.68893C17.751 3.88243 17.6855 4.08751 17.5552 4.30337C17.4249 4.51923 17.2422 4.72353 17.0079 4.91472C16.7735 5.10591 16.4952 5.26164 16.1752 5.38036C15.8545 5.49986 15.5007 5.55922 15.1137 5.55922C14.9194 5.55922 14.7637 5.54458 14.6442 5.51451C14.5247 5.48444 14.4653 5.45515 14.4653 5.42508C14.4653 5.40504 14.4931 5.39424 14.5493 5.39116C14.6056 5.38885 14.6704 5.38731 14.7452 5.38731C15.0435 5.38731 15.328 5.33873 15.6001 5.2416C15.8723 5.14446 16.1159 5.01648 16.3325 4.85767C16.5484 4.69886 16.718 4.52232 16.8413 4.32881C16.9639 4.1353 17.0256 3.94411 17.0256 3.75523C17.0256 3.59642 16.9755 3.46073 16.8745 3.34895C16.7743 3.23716 16.6116 3.18166 16.388 3.18166C16.1945 3.18166 16.0026 3.22251 15.8121 3.30423C15.6217 3.38595 15.4429 3.4908 15.2756 3.61723C15.1075 3.74367 14.9587 3.8755 14.8284 4.01195C14.6981 4.14841 14.5994 4.27176 14.5324 4.38046C14.3982 4.75282 14.2641 5.11208 14.1299 5.45746C13.9958 5.80284 13.8671 6.11584 13.7445 6.39646C13.6211 6.67708 13.5101 6.90682 13.4091 7.08568C13.3089 7.26453 13.2249 7.37401 13.1578 7.41333C13.1192 7.44108 13.0745 7.45342 13.0229 7.45342Z" fill="#3C4242"/>
<path d="M21.8096 5.55999C21.5189 5.55999 21.3023 5.49909 21.1612 5.37728C21.0194 5.25547 20.9492 5.10745 20.9492 4.93399C20.9492 4.81989 20.9808 4.67573 21.044 4.5015C21.1072 4.32804 21.1913 4.14532 21.2953 3.95413C21.3994 3.76294 21.5205 3.58254 21.6585 3.41371C21.7965 3.24487 21.9437 3.10687 22.1002 2.99971C22.2567 2.89332 22.4094 2.83936 22.5589 2.83936C22.626 2.83936 22.6838 2.85323 22.7324 2.88021C22.7809 2.9072 22.8048 2.94883 22.8048 3.00279C22.8048 3.06216 22.747 3.15929 22.6314 3.29343C22.5157 3.42758 22.3801 3.58177 22.2236 3.75523C22.0671 3.92946 21.9314 4.1114 21.8157 4.30259C21.7001 4.49379 21.6423 4.6765 21.6423 4.85073C21.6423 5.02959 21.687 5.14908 21.7764 5.20844C21.8658 5.26781 22.0038 5.29787 22.1904 5.29787C22.444 5.29787 22.7139 5.21384 23.0007 5.04423C23.2874 4.8754 23.5912 4.58013 23.9119 4.15766L24.0121 4.23244C23.7963 4.65954 23.4848 4.98795 23.0785 5.21615C22.6715 5.44589 22.249 5.55999 21.8096 5.55999ZM23.1502 2.14705C23.0307 2.14705 22.9251 2.12701 22.8318 2.08769C22.7385 2.0476 22.6923 1.98593 22.6923 1.90112C22.6923 1.79705 22.7833 1.70608 22.966 1.62898C23.1487 1.55189 23.3291 1.51334 23.5079 1.51334C23.6197 1.51334 23.7092 1.53107 23.7762 1.56577C23.8433 1.60046 23.8764 1.66059 23.8764 1.74463C23.8764 1.83868 23.8001 1.92965 23.6475 2.01676C23.4956 2.10388 23.3298 2.14705 23.1502 2.14705Z" fill="#3C4242"/>
<path d="M24.6479 5.70954C24.3272 5.70954 24.0812 5.64709 23.9101 5.52297C23.7389 5.39885 23.6534 5.21537 23.6534 4.97175C23.6534 4.75358 23.715 4.48375 23.8376 4.16304C23.9602 3.84233 24.1152 3.51391 24.3017 3.17547C24.2269 3.16545 24.1568 3.15697 24.0897 3.14926C24.0226 3.14155 23.9594 3.13075 23.9001 3.11611V2.98196C23.9594 2.98659 24.0304 2.99199 24.1121 2.99661C24.1938 3.00124 24.2871 3.00663 24.3911 3.01126C24.5476 2.74297 24.7157 2.48317 24.8938 2.23262C25.0727 1.98206 25.25 1.75849 25.425 1.5619C25.6 1.36608 25.768 1.20881 25.9284 1.0924C26.0888 0.975985 26.2244 0.917397 26.3362 0.917397C26.3956 0.917397 26.4496 0.931272 26.4981 0.958254C26.5467 0.985237 26.5706 1.02687 26.5706 1.08084C26.5706 1.16564 26.4927 1.30286 26.3362 1.49483C26.1797 1.68602 25.9862 1.91344 25.7549 2.17633C25.5237 2.43999 25.3001 2.72524 25.0842 3.03362C25.1513 3.03362 25.2199 3.03362 25.2908 3.03362C25.3618 3.03362 25.4304 3.03362 25.4974 3.03362C25.7434 3.03362 26.0024 3.0313 26.2745 3.02591C26.5467 3.02128 26.8204 3.00818 27.0964 2.9889V3.12305C26.6862 3.15311 26.3193 3.17547 25.9955 3.19012C25.6717 3.20477 25.3826 3.21247 25.1289 3.21247C25.0989 3.21247 25.0711 3.21247 25.0449 3.21247C25.0187 3.21247 24.9909 3.21247 24.9609 3.21247C24.7897 3.47613 24.644 3.74674 24.5253 4.02504C24.4058 4.30335 24.3464 4.57395 24.3464 4.83761C24.3464 5.05116 24.395 5.20381 24.4914 5.29555C24.5877 5.38729 24.7481 5.43354 24.9724 5.43354C25.3602 5.43354 25.7403 5.31945 26.1127 5.09048C26.485 4.86228 26.8127 4.55159 27.0964 4.15919L27.2413 4.23397C27.0624 4.51227 26.8366 4.76283 26.5652 4.9864C26.2931 5.20997 25.9932 5.38652 25.6655 5.51526C25.3371 5.64478 24.9986 5.70954 24.6479 5.70954Z" fill="#3C4242"/>
<path d="M30.9861 5.78358C30.6284 5.78358 30.33 5.70417 30.0918 5.54535C29.8536 5.38654 29.7341 5.14832 29.7341 4.82993C29.7341 4.58168 29.8065 4.33961 29.9522 4.10293C30.0972 3.86702 30.2891 3.65502 30.5281 3.46614C30.7663 3.27726 31.0308 3.12692 31.3214 3.01514C31.6121 2.90335 31.8989 2.84785 32.1826 2.84785C32.4878 2.84785 32.6968 2.90721 32.8086 3.0267C32.9203 3.1462 32.9759 3.27032 32.9759 3.39907C32.9759 3.54323 32.9257 3.66967 32.8247 3.77914C32.7245 3.88861 32.5881 3.94335 32.4169 3.94335C32.2905 3.94335 32.1826 3.90634 32.0924 3.83156C32.2041 3.79224 32.3013 3.71129 32.383 3.58949C32.4647 3.46768 32.5064 3.35204 32.5064 3.24257C32.5064 3.1832 32.4894 3.13695 32.4562 3.10457C32.4223 3.07219 32.3576 3.056 32.2604 3.056C32.0592 3.056 31.8526 3.11536 31.6398 3.23486C31.4278 3.35435 31.2297 3.50777 31.0477 3.69665C30.865 3.88553 30.7162 4.08443 30.6006 4.29258C30.485 4.5015 30.4271 4.69732 30.4271 4.88158C30.4271 5.03577 30.4834 5.17685 30.5952 5.30637C30.707 5.43511 30.9228 5.49987 31.2436 5.49987C31.5419 5.49987 31.8418 5.44513 32.1432 5.33566C32.4447 5.22619 32.7261 5.06969 32.9874 4.86616C33.248 4.66263 33.4569 4.42364 33.6134 4.15073L33.7584 4.22551C33.5872 4.52386 33.3521 4.79061 33.0545 5.02651C32.7561 5.26242 32.4285 5.44745 32.0708 5.58159C31.7123 5.7165 31.3507 5.78358 30.9861 5.78358Z" fill="#3C4242"/>
<path d="M34.3283 5.59007C34.0076 5.59007 33.7786 5.51682 33.6406 5.37035C33.5026 5.22387 33.434 5.04116 33.434 4.82298C33.434 4.58476 33.5011 4.30106 33.6352 3.97341C33.7694 3.64576 33.9467 3.30038 34.1664 2.93727C34.3861 2.57493 34.6267 2.22107 34.8872 1.87492C35.1478 1.52954 35.4084 1.21577 35.6697 0.932065C35.9303 0.649131 36.1709 0.422472 36.3906 0.253637C36.6103 0.0848014 36.7838 0 36.9102 0C36.9919 0 37.059 0.0308392 37.1114 0.0932851C37.1638 0.155731 37.2047 0.229738 37.2348 0.316854C37.264 0.40397 37.2795 0.481838 37.2795 0.551222C37.2795 0.685365 37.2294 0.860364 37.1284 1.077C37.0281 1.29286 36.8863 1.53416 36.7036 1.80014C36.5209 2.06611 36.305 2.3344 36.0552 2.60499C35.8054 2.87559 35.5333 3.1354 35.2396 3.38364C34.9451 3.63189 34.6344 3.84544 34.306 4.02429C34.2612 4.15844 34.2258 4.28873 34.1996 4.41593C34.1734 4.54236 34.1603 4.6634 34.1603 4.7775C34.1603 4.971 34.2011 5.11517 34.2828 5.20999C34.3645 5.30405 34.4879 5.35184 34.6521 5.35184C34.8533 5.35184 35.053 5.29248 35.2504 5.17299C35.4477 5.05349 35.6343 4.90316 35.8093 4.72199C35.9843 4.54082 36.1354 4.35348 36.2618 4.15921L36.4291 4.21857C36.1308 4.64104 35.807 4.97485 35.4562 5.22078C35.107 5.46748 34.7307 5.59007 34.3283 5.59007ZM34.407 3.77142C34.6675 3.59719 34.9212 3.39752 35.1671 3.17164C35.413 2.94575 35.642 2.71062 35.8548 2.46777C36.0676 2.22415 36.2557 1.98825 36.4191 1.76005C36.5825 1.53185 36.7097 1.32678 36.7992 1.14561C36.8886 0.964441 36.9333 0.824134 36.9333 0.724683C36.9333 0.675343 36.9241 0.642963 36.9056 0.627544C36.8871 0.612896 36.8701 0.605184 36.8554 0.605184C36.7961 0.605184 36.6936 0.668402 36.5478 0.794836C36.4029 0.92127 36.2333 1.09165 36.039 1.3052C35.8455 1.51875 35.6482 1.76236 35.4469 2.03528C35.2457 2.30819 35.0538 2.5942 34.8711 2.89256C34.6876 3.19014 34.5334 3.48386 34.407 3.77142Z" fill="#3C4242"/>
<path d="M36.5753 5.71651C36.344 5.71651 36.1482 5.66562 35.9886 5.56386C35.8283 5.4621 35.7481 5.30714 35.7481 5.09821C35.7481 4.91936 35.8075 4.72662 35.927 4.52078C36.0457 4.31494 36.2099 4.11065 36.4188 3.90943C36.6277 3.70822 36.8644 3.52473 37.1289 3.35821C37.3933 3.19169 37.6724 3.05909 37.9676 2.95964C38.2621 2.86019 38.5543 2.81085 38.845 2.81085C39.1356 2.81085 39.3777 2.86173 39.5712 2.96349C39.7647 3.06525 39.8618 3.20094 39.8618 3.36978C39.8618 3.4939 39.8117 3.5787 39.7107 3.62341C39.6097 3.66813 39.4779 3.69048 39.3137 3.69048C39.3283 3.65039 39.3414 3.60722 39.353 3.56019C39.3646 3.51317 39.37 3.46999 39.37 3.42991C39.37 3.31581 39.3291 3.2179 39.2474 3.13541C39.1649 3.05369 39.0238 3.01283 38.8226 3.01283C38.6137 3.01283 38.4017 3.0614 38.185 3.15777C37.9692 3.25491 37.7603 3.38365 37.559 3.54555C37.3578 3.70744 37.179 3.88245 37.0225 4.07133C36.866 4.26021 36.7434 4.44677 36.6532 4.63026C36.5638 4.81374 36.519 4.97795 36.519 5.12211C36.519 5.31562 36.6193 5.41276 36.8213 5.41276C36.9924 5.41276 37.179 5.35956 37.3802 5.2524C37.5814 5.14601 37.788 5.00879 38.0008 4.84226C38.2128 4.67574 38.4163 4.50305 38.6098 4.3242C38.8033 4.14534 38.9753 3.98113 39.124 3.83234C39.1533 3.80227 39.1726 3.78762 39.1795 3.78762C39.2243 3.79225 39.2821 3.80227 39.353 3.81769C39.4239 3.83234 39.4856 3.85238 39.5373 3.87705C39.5897 3.90172 39.6159 3.9341 39.6159 3.97419C39.6159 4.0189 39.582 4.07981 39.5149 4.1569C39.4478 4.23399 39.3731 4.32188 39.2913 4.42133C39.2088 4.52078 39.1348 4.62178 39.0678 4.72354C39.0007 4.8253 38.9675 4.9209 38.9675 5.01033C38.9675 5.08511 38.9968 5.15835 39.057 5.23005C39.1163 5.30251 39.2135 5.33798 39.3476 5.33798C39.5488 5.33798 39.8133 5.24007 40.1409 5.04348C40.4686 4.84766 40.8008 4.55316 41.1362 4.15999L41.248 4.23476C41.0915 4.50305 40.8903 4.73896 40.6443 4.94248C40.3984 5.14601 40.1355 5.3056 39.8564 5.41969C39.5774 5.53379 39.3029 5.59084 39.0346 5.59084C38.7586 5.59084 38.5559 5.53611 38.4256 5.42663C38.2953 5.31716 38.2298 5.19844 38.2298 5.06892C38.2298 5.03885 38.2336 5.0057 38.2413 4.9687C38.2483 4.93169 38.256 4.89315 38.2637 4.85306C37.943 5.14139 37.6508 5.35725 37.3863 5.50141C37.1211 5.64481 36.8506 5.71651 36.5753 5.71651Z" fill="#3C4242"/>
<path d="M42.0866 5.74657C41.7366 5.74657 41.4591 5.69569 41.254 5.59392C41.0489 5.49216 40.904 5.3665 40.8177 5.21771C40.7321 5.06892 40.6889 4.91935 40.6889 4.77056C40.6889 4.62177 40.719 4.5069 40.7783 4.4275C40.8385 4.34809 40.9109 4.28873 40.9965 4.24864C41.0821 4.20855 41.1638 4.17926 41.2425 4.15921C41.3211 4.13917 41.3743 4.11912 41.4043 4.09985C41.6279 3.93564 41.833 3.76449 42.0196 3.58563C42.2061 3.40678 42.3696 3.21789 42.5114 3.01899V2.92957C42.5114 2.74608 42.5577 2.61502 42.651 2.53793C42.7442 2.46083 42.8429 2.42229 42.947 2.42229C43.0064 2.42229 43.0511 2.43231 43.0811 2.45236C43.1112 2.4724 43.1258 2.49476 43.1258 2.51943C43.1258 2.5441 43.1151 2.58418 43.0927 2.63892C43.0703 2.69366 43.0588 2.76304 43.0588 2.84785C43.0588 3.01206 43.1073 3.18937 43.2037 3.38056C43.3009 3.57175 43.3972 3.77297 43.4944 3.98421C43.5907 4.19544 43.6393 4.41516 43.6393 4.64336C43.6393 4.70812 43.6339 4.77133 43.6223 4.83301C43.6115 4.89546 43.5946 4.95328 43.5722 5.00801C43.8328 4.97795 44.0787 4.90008 44.31 4.77365C44.5413 4.64721 44.7649 4.44445 44.9807 4.16615L45.0809 4.24093C44.9391 4.51384 44.7271 4.72122 44.4442 4.86308C44.1612 5.00493 43.8513 5.09282 43.5159 5.12751C43.3964 5.34106 43.2083 5.49755 42.9516 5.59701C42.6957 5.69723 42.4066 5.74657 42.0866 5.74657ZM42.109 5.48599C42.1984 5.48599 42.3179 5.46595 42.4667 5.42663C42.6155 5.38654 42.7311 5.28478 42.8136 5.12134C42.5006 5.08202 42.2231 4.99953 41.981 4.87541C41.7389 4.75129 41.5578 4.62717 41.439 4.50305C41.2748 4.50844 41.1931 4.59479 41.1931 4.76362C41.1931 4.94248 41.2733 5.10746 41.4336 5.25933C41.5925 5.40967 41.8183 5.48599 42.109 5.48599ZM42.8691 5.00107C42.8838 4.95173 42.8953 4.89931 42.9023 4.84458C42.91 4.78984 42.9138 4.72508 42.9138 4.65107C42.9138 4.41748 42.8707 4.18542 42.7851 3.95414C42.6995 3.72286 42.6271 3.50546 42.5669 3.30193C42.3958 3.49081 42.2146 3.67121 42.025 3.84236C41.8353 4.01351 41.6541 4.1569 41.483 4.271C41.5948 4.42981 41.7682 4.57937 42.0026 4.71814C42.2377 4.85768 42.5261 4.95173 42.8691 5.00107Z" fill="#3C4242"/>
<path d="M45.9424 5.74657C45.5924 5.74657 45.3149 5.69569 45.1098 5.59392C44.9048 5.49216 44.7598 5.3665 44.6735 5.21771C44.5879 5.06892 44.5447 4.91935 44.5447 4.77056C44.5447 4.62177 44.5748 4.5069 44.6342 4.4275C44.6943 4.34809 44.7668 4.28873 44.8523 4.24864C44.9379 4.20855 45.0196 4.17926 45.0983 4.15921C45.1769 4.13917 45.2301 4.11912 45.2602 4.09985C45.4837 3.93564 45.6888 3.76449 45.8754 3.58563C46.0619 3.40678 46.2254 3.21789 46.3672 3.01899V2.92957C46.3672 2.74608 46.4135 2.61502 46.5068 2.53793C46.6 2.46083 46.6987 2.42229 46.8028 2.42229C46.8622 2.42229 46.9069 2.43231 46.937 2.45236C46.967 2.4724 46.9817 2.49476 46.9817 2.51943C46.9817 2.5441 46.9709 2.58418 46.9485 2.63892C46.9262 2.69366 46.9146 2.76304 46.9146 2.84785C46.9146 3.01206 46.9632 3.18937 47.0595 3.38056C47.1567 3.57175 47.253 3.77297 47.3502 3.98421C47.4465 4.19544 47.4951 4.41516 47.4951 4.64336C47.4951 4.70812 47.4897 4.77133 47.4781 4.83301C47.4673 4.89546 47.4504 4.95328 47.428 5.00801C47.6886 4.97795 47.9345 4.90008 48.1658 4.77365C48.3971 4.64721 48.6207 4.44445 48.8365 4.16615L48.9368 4.24093C48.7949 4.51384 48.5829 4.72122 48.3 4.86308C48.017 5.00493 47.7071 5.09282 47.3718 5.12751C47.2523 5.34106 47.0642 5.49755 46.8074 5.59701C46.5522 5.69723 46.2632 5.74657 45.9424 5.74657ZM45.9648 5.48599C46.0542 5.48599 46.1737 5.46595 46.3225 5.42663C46.4713 5.38654 46.5869 5.28478 46.6694 5.12134C46.3564 5.08202 46.0789 4.99953 45.8368 4.87541C45.5947 4.75129 45.4136 4.62717 45.2949 4.50305C45.1306 4.50844 45.0489 4.59479 45.0489 4.76362C45.0489 4.94248 45.1291 5.10746 45.2895 5.25933C45.449 5.40967 45.6742 5.48599 45.9648 5.48599ZM46.7249 5.00107C46.7396 4.95173 46.7512 4.89931 46.7581 4.84458C46.7658 4.78984 46.7697 4.72508 46.7697 4.65107C46.7697 4.41748 46.7265 4.18542 46.6409 3.95414C46.5553 3.72286 46.4829 3.50546 46.4227 3.30193C46.2516 3.49081 46.0704 3.67121 45.8808 3.84236C45.6911 4.01351 45.5099 4.1569 45.3388 4.271C45.4506 4.42981 45.624 4.57937 45.8584 4.71814C46.0935 4.85768 46.3826 4.95173 46.7249 5.00107Z" fill="#3C4242"/>
<path d="M49.1071 7.45343C48.9206 7.45343 48.7571 7.42028 48.6153 7.35321C48.4734 7.28614 48.4025 7.18823 48.4025 7.05871C48.4025 6.8999 48.4626 6.75804 48.5814 6.63392C48.7001 6.5098 48.8604 6.3957 49.0624 6.29085C49.2636 6.18678 49.4941 6.08733 49.7555 5.9925C50.0161 5.89845 50.2882 5.80362 50.5712 5.70957C50.6752 5.52609 50.7816 5.32102 50.8895 5.09513C50.9975 4.86925 51.1 4.61946 51.1972 4.34655C50.9589 4.60482 50.7037 4.82685 50.4316 5.01342C50.1595 5.19998 49.8704 5.29249 49.5651 5.29249C49.4232 5.29249 49.2837 5.27168 49.1457 5.22928C49.0077 5.18687 48.8944 5.12135 48.8049 5.03192C48.7155 4.94249 48.6708 4.82839 48.6708 4.68885C48.6708 4.55008 48.7063 4.38818 48.7772 4.2047C48.8481 4.02122 48.9352 3.84236 49.0401 3.66813C49.1441 3.49467 49.2521 3.3505 49.3646 3.23563C49.4772 3.12076 49.5736 3.06448 49.6553 3.06448C49.6853 3.06448 49.7393 3.07219 49.8172 3.08684C49.8958 3.10149 49.9698 3.12307 50.0407 3.15006C50.1117 3.17781 50.1471 3.20633 50.1471 3.23563C50.0801 3.30039 50.0053 3.39213 49.9236 3.51163C49.8411 3.63112 49.7617 3.76372 49.683 3.9102C49.6052 4.05668 49.5396 4.19931 49.4872 4.33885C49.4348 4.47761 49.4093 4.59711 49.4093 4.69656C49.4093 4.78599 49.4386 4.85768 49.4988 4.91242C49.5581 4.96715 49.663 4.99414 49.8118 4.99414C49.9529 4.99414 50.1117 4.94865 50.2867 4.85614C50.4617 4.7644 50.6367 4.64645 50.8124 4.50228C50.9874 4.35812 51.1493 4.20393 51.2989 4.04049C51.3213 3.98575 51.3413 3.93025 51.3606 3.8732C51.3791 3.81615 51.396 3.75755 51.4107 3.69819C51.433 3.62881 51.487 3.54786 51.5726 3.45612C51.6582 3.36438 51.7946 3.31812 51.9804 3.31812C52.0174 3.31812 52.0544 3.31967 52.0922 3.32198C52.1292 3.32429 52.1701 3.33046 52.2148 3.34048C52.2148 3.41989 52.1793 3.56791 52.1084 3.78377C52.0375 3.99963 51.9365 4.2525 51.8062 4.54006C51.6759 4.82839 51.5209 5.12366 51.3421 5.42664C51.6921 5.33721 52.0352 5.18919 52.3705 4.98335C52.7059 4.77751 52.978 4.50228 53.1862 4.15999L53.3311 4.23477C53.2193 4.47299 53.0497 4.68037 52.8223 4.85691C52.5949 5.03346 52.3397 5.18456 52.0567 5.31177C51.7738 5.4382 51.494 5.54382 51.218 5.62862C51.0245 5.94625 50.814 6.2446 50.5866 6.52291C50.3591 6.80121 50.1209 7.02633 49.8711 7.19748C49.6229 7.36785 49.3677 7.45343 49.1071 7.45343ZM49.0509 7.21444C49.1626 7.21444 49.3508 7.11653 49.6152 6.91994C49.8796 6.72335 50.161 6.37951 50.4594 5.88766C50.1541 5.99713 49.8704 6.10506 49.6098 6.21222C49.3492 6.31861 49.1403 6.43425 48.9838 6.55914C48.8273 6.68326 48.7494 6.82743 48.7494 6.99164C48.7494 7.03173 48.7718 7.07876 48.8165 7.13349C48.8612 7.18746 48.9391 7.21444 49.0509 7.21444Z" fill="#3C4242"/>
<path d="M53.4207 5.44128C53.3236 5.44128 53.2403 5.42509 53.1694 5.39271C53.0985 5.36033 53.063 5.30945 53.063 5.24007C53.063 5.18533 53.0961 5.13445 53.1632 5.08742C53.2303 5.04039 53.3143 5.00262 53.4145 4.97563C53.5148 4.94865 53.6135 4.93478 53.7106 4.93478C53.8 4.93478 53.8709 4.94711 53.9226 4.97178C53.9742 4.99645 54.0005 5.04425 54.0005 5.11364C54.0005 5.16375 53.9727 5.21309 53.9164 5.26243C53.8601 5.31177 53.7877 5.35417 53.6983 5.38886C53.6088 5.42355 53.5179 5.44128 53.4207 5.44128Z" fill="#3C4242"/>
</svg>
