<svg width="448" height="328" viewBox="0 0 448 328" fill="none" xmlns="http://www.w3.org/2000/svg">
<path d="M329.711 243.961C290.012 243.961 254.92 246.9 233.464 251.421C213.726 244.323 187.501 240.002 158.71 240.002C97.3432 240.002 47.5945 259.652 47.5945 283.897C47.5945 308.143 97.3432 327.793 158.71 327.793C220.077 327.793 269.826 308.143 269.826 283.897C269.826 281.544 269.34 279.24 268.444 276.986C286.313 278.617 307.284 279.564 329.711 279.564C395.051 279.564 448 271.594 448 261.769C448.012 251.919 395.051 243.961 329.711 243.961Z" fill="#EDEEF2"/>
<path d="M254.348 259.801C250.712 259.801 247.337 256.24 246.827 251.869L232.456 130.206C231.933 125.835 235.059 122.286 239.417 122.286H420.032C424.378 122.286 427.503 125.835 426.993 130.206L412.622 251.869C412.099 256.24 408.725 259.801 405.101 259.801H254.348Z" fill="#F6F6F6"/>
<path d="M419.733 125.025C422.572 125.025 424.614 127.354 424.291 130.218L410.319 251.881C409.995 254.746 407.778 257.074 405.387 257.074H254.049C251.658 257.074 249.454 254.746 249.118 251.881L235.146 130.218C234.822 127.354 236.864 125.025 239.704 125.025H419.733ZM420.318 119.559H239.118C233.241 119.559 229.044 124.341 229.754 130.218L244.523 251.881C245.233 257.759 249.778 262.541 254.647 262.541H404.79C409.659 262.541 414.191 257.759 414.914 251.881L429.683 130.218C430.392 124.341 426.196 119.559 420.318 119.559Z" fill="#3C4242"/>
<path d="M419.732 125.025H393.581L386.185 220.924C385.96 223.788 383.756 226.117 381.266 226.117H246.166L249.13 251.869C249.466 254.733 251.67 257.062 254.061 257.062H405.387C407.778 257.062 409.982 254.733 410.318 251.869L424.29 130.206C424.614 127.342 422.571 125.025 419.732 125.025Z" fill="#EDEEF2"/>
<path d="M419.733 125.025H409.957L399.273 235.394C398.999 238.258 396.782 240.587 394.329 240.587H247.823L249.118 251.881C249.454 254.746 251.658 257.074 254.049 257.074H405.375C407.766 257.074 409.97 254.746 410.306 251.881L424.278 130.218C424.614 127.342 422.572 125.025 419.733 125.025Z" fill="#8A33FD"/>
<path d="M246.054 155.51L252.268 214.785" stroke="white" stroke-width="5.46568" stroke-miterlimit="10" stroke-linecap="round" stroke-linejoin="round"/>
<path d="M279.029 241.135C279.141 242.691 278.157 243.961 276.825 243.961H270.424C269.104 243.961 267.909 242.691 267.772 241.135L261.47 168.622C261.333 167.053 262.417 165.796 263.899 165.796H270.997C272.479 165.796 273.749 167.053 273.861 168.622L279.029 241.135Z" fill="#BEBCBD" stroke="#3C4242" stroke-width="5.46568" stroke-miterlimit="10" stroke-linecap="round" stroke-linejoin="round"/>
<path d="M307.185 241.135C307.234 242.691 306.201 243.961 304.868 243.961H298.468C297.135 243.961 296.002 242.691 295.927 241.135L292.49 168.622C292.416 167.053 293.549 165.796 295.018 165.796H302.116C303.586 165.796 304.831 167.053 304.881 168.622L307.185 241.135Z" fill="#BEBCBD" stroke="#3C4242" stroke-width="5.46568" stroke-miterlimit="10" stroke-linecap="round" stroke-linejoin="round"/>
<path d="M335.339 241.135C335.327 242.691 334.244 243.961 332.911 243.961H326.523C325.19 243.961 324.107 242.691 324.095 241.135L323.522 168.622C323.509 167.053 324.692 165.796 326.162 165.796H333.26C334.742 165.796 335.925 167.053 335.912 168.622L335.339 241.135Z" fill="#BEBCBD" stroke="#3C4242" stroke-width="5.46568" stroke-miterlimit="10" stroke-linecap="round" stroke-linejoin="round"/>
<path d="M363.496 241.135C363.421 242.691 362.288 243.961 360.955 243.961H354.555C353.222 243.961 352.189 242.691 352.238 241.135L354.53 168.622C354.579 167.053 355.812 165.796 357.294 165.796H364.392C365.862 165.796 367.007 167.053 366.933 168.622L363.496 241.135Z" fill="#BEBCBD" stroke="#3C4242" stroke-width="5.46568" stroke-miterlimit="10" stroke-linecap="round" stroke-linejoin="round"/>
<path d="M391.651 241.135C391.514 242.691 390.331 243.961 388.999 243.961H382.598C381.265 243.961 380.282 242.691 380.394 241.135L385.549 168.622C385.661 167.053 386.944 165.796 388.413 165.796H395.511C396.981 165.796 398.077 167.053 397.94 168.622L391.651 241.135Z" fill="#BEBCBD" stroke="#3C4242" stroke-width="5.46568" stroke-miterlimit="10" stroke-linecap="round" stroke-linejoin="round"/>
<path d="M265.992 128.961C265.195 130.193 263.551 130.554 262.331 129.757L256.391 125.934C255.158 125.138 254.797 123.494 255.594 122.273L292.429 64.9784C293.226 63.7455 294.87 63.3969 296.103 64.1814L302.043 67.9919C303.275 68.7889 303.637 70.4326 302.84 71.6655L265.992 128.961Z" fill="#BEBCBD" stroke="#3C4242" stroke-width="5.46568" stroke-miterlimit="10" stroke-linecap="round" stroke-linejoin="round"/>
<path d="M393.433 128.961C394.23 130.193 395.874 130.554 397.107 129.757L403.047 125.934C404.28 125.138 404.628 123.494 403.844 122.273L367.009 64.9784C366.212 63.7455 364.568 63.3969 363.347 64.1814L357.408 67.9919C356.175 68.7889 355.814 70.4326 356.611 71.6655L393.433 128.961Z" fill="#BEBCBD" stroke="#3C4242" stroke-width="5.46568" stroke-miterlimit="10" stroke-linecap="round" stroke-linejoin="round"/>
<path d="M227.214 148.561C223.017 148.561 219.605 145.149 219.605 140.952V126.109C219.605 121.912 223.017 118.5 227.214 118.5H432.21C436.407 118.5 439.819 121.912 439.819 126.109V140.952C439.819 145.149 436.407 148.561 432.21 148.561H227.214Z" fill="#F6F6F6"/>
<path d="M432.223 121.227C434.925 121.227 437.104 123.407 437.104 126.109V140.952C437.104 143.642 434.925 145.834 432.223 145.834H227.213C224.523 145.834 222.332 143.655 222.332 140.952V126.109C222.332 123.419 224.523 121.227 227.213 121.227H432.223ZM432.223 115.761H227.213C221.51 115.761 216.865 120.405 216.865 126.109V140.952C216.865 146.656 221.51 151.301 227.213 151.301H432.21C437.913 151.301 442.558 146.656 442.558 140.952V126.109C442.571 120.405 437.926 115.761 432.223 115.761Z" fill="#3C4242"/>
<path d="M432.223 121.227H422.46V128.649C422.46 131.351 420.281 133.531 417.579 133.531H222.332V140.952C222.332 143.642 224.524 145.834 227.214 145.834H432.21C434.913 145.834 437.092 143.655 437.092 140.952V126.109C437.104 123.419 434.913 121.227 432.223 121.227Z" fill="#8A33FD"/>
<path d="M69.7237 186.903C69.3003 186.903 68.8645 186.803 68.4785 186.604L42.39 173.292C41.4311 172.807 40.8458 171.785 40.8957 170.715C40.9579 169.631 41.6428 168.697 42.639 168.311L131.626 134.103C131.938 133.979 132.274 133.917 132.61 133.917C132.909 133.917 133.22 133.966 133.507 134.066L155.785 141.799C156.88 142.185 157.628 143.219 157.628 144.377V151.425C157.628 152.558 156.93 153.567 155.872 153.978L70.695 186.729C70.3837 186.841 70.06 186.903 69.7237 186.903Z" fill="#EDEEF2"/>
<path d="M132.622 136.656L154.9 144.389V151.438L69.7235 184.188L43.6351 170.864L132.622 136.656ZM132.622 131.19C131.95 131.19 131.29 131.314 130.655 131.551L41.68 165.758C39.6626 166.53 38.2928 168.423 38.1808 170.578C38.0687 172.732 39.2268 174.749 41.157 175.733L67.2454 189.045C68.0175 189.443 68.8767 189.643 69.736 189.643C70.396 189.643 71.0684 189.518 71.7035 189.282L156.88 156.531C158.997 155.721 160.379 153.692 160.379 151.425V144.377C160.379 142.048 158.91 139.969 156.706 139.209L134.428 131.476C133.843 131.289 133.232 131.19 132.622 131.19Z" fill="#3C4242"/>
<path d="M85.1156 178.248L68.018 170.067L146.022 141.289L132.623 136.656L43.6356 170.864L69.724 184.176L85.1156 178.248Z" fill="#BEBCBD"/>
<path d="M247.698 186.903C247.362 186.903 247.038 186.841 246.714 186.716L161.538 153.966C160.479 153.555 159.782 152.546 159.782 151.413V144.365C159.782 143.194 160.517 142.16 161.625 141.787L183.903 134.054C184.189 133.954 184.5 133.904 184.799 133.904C185.136 133.904 185.459 133.966 185.783 134.091L274.77 168.299C275.779 168.685 276.464 169.631 276.514 170.702C276.576 171.785 275.991 172.794 275.032 173.28L248.943 186.592C248.557 186.803 248.134 186.903 247.698 186.903Z" fill="#EDEEF2"/>
<path d="M184.799 136.656L273.787 170.864L247.698 184.176L162.521 151.425V144.377L184.799 136.656ZM184.799 131.19C184.189 131.19 183.591 131.289 183.006 131.488L160.728 139.222C158.524 139.981 157.055 142.061 157.055 144.389V151.438C157.055 153.704 158.449 155.734 160.566 156.543L245.743 189.294C246.378 189.543 247.038 189.655 247.711 189.655C248.57 189.655 249.417 189.456 250.201 189.057L276.29 175.745C278.207 174.762 279.378 172.744 279.266 170.59C279.154 168.436 277.784 166.543 275.767 165.771L186.779 131.563C186.132 131.302 185.459 131.19 184.799 131.19Z" fill="#3C4242"/>
<path d="M232.306 178.248L249.416 170.067L171.4 141.289L184.799 136.656L273.786 170.864L247.698 184.176L232.306 178.248Z" fill="#BEBCBD"/>
<path d="M247.698 276.936C247.362 276.936 247.038 276.874 246.714 276.75L157.727 242.542C156.669 242.131 155.971 241.122 155.971 239.989V151.002C155.971 150.105 156.42 149.258 157.154 148.748C157.615 148.437 158.151 148.262 158.698 148.262C159.035 148.262 159.358 148.324 159.682 148.449L248.669 182.657C249.728 183.068 250.425 184.076 250.425 185.209V274.197C250.425 275.093 249.977 275.94 249.242 276.451C248.782 276.774 248.246 276.936 247.698 276.936Z" fill="#BEBCBD"/>
<path d="M158.711 151.002L247.698 185.209V274.197L158.711 239.989V151.002ZM158.711 145.535C157.615 145.535 156.544 145.859 155.61 146.494C154.128 147.515 153.244 149.196 153.244 151.002V239.989C153.244 242.255 154.639 244.285 156.743 245.095L245.731 279.302C246.366 279.551 247.026 279.663 247.698 279.663C248.794 279.663 249.865 279.34 250.799 278.705C252.281 277.683 253.165 276.002 253.165 274.197V185.209C253.165 182.943 251.77 180.913 249.653 180.104L160.666 145.896C160.043 145.66 159.371 145.535 158.711 145.535Z" fill="#3C4242"/>
<path d="M227.164 177.314L158.711 206.516V239.989L247.698 274.209V185.209L227.164 177.314Z" fill="#8A33FD"/>
<path d="M158.711 312.427C158.163 312.427 157.628 312.265 157.167 311.941C156.42 311.43 155.984 310.584 155.984 309.687V220.7C155.984 219.567 156.681 218.558 157.74 218.147L246.727 183.939C247.038 183.815 247.375 183.753 247.711 183.753C248.259 183.753 248.794 183.914 249.255 184.238C250.002 184.749 250.438 185.596 250.438 186.492V275.479C250.438 276.613 249.741 277.621 248.682 278.032L159.695 312.24C159.371 312.364 159.047 312.427 158.711 312.427Z" fill="#EDEEF2"/>
<path d="M247.698 186.492V275.479L158.711 309.687V220.7L247.698 186.492ZM247.698 181.025C247.038 181.025 246.366 181.15 245.731 181.386L156.743 215.594C154.626 216.404 153.244 218.433 153.244 220.7V309.687C153.244 311.493 154.128 313.174 155.61 314.195C156.532 314.83 157.615 315.154 158.711 315.154C159.371 315.154 160.043 315.029 160.678 314.793L249.666 280.585C251.783 279.776 253.177 277.746 253.177 275.479V186.492C253.177 184.686 252.293 183.005 250.811 181.984C249.865 181.349 248.794 181.025 247.698 181.025Z" fill="#3C4242"/>
<path d="M232.307 192.42V262.653L158.711 290.946V309.699L247.698 275.479V186.492L232.307 192.42Z" fill="#BEBCBD"/>
<path d="M69.7229 276.936C69.1749 276.936 68.6395 276.774 68.1787 276.451C67.4315 275.94 66.9957 275.093 66.9957 274.197V185.209C66.9957 184.076 67.6931 183.068 68.7515 182.657L157.739 148.449C158.05 148.324 158.386 148.262 158.723 148.262C159.27 148.262 159.806 148.424 160.267 148.748C161.014 149.258 161.45 150.105 161.45 151.002V239.989C161.45 241.122 160.752 242.131 159.694 242.542L70.7066 276.75C70.3828 276.874 70.0591 276.936 69.7229 276.936Z" fill="#EDEEF2"/>
<path d="M158.71 151.002V239.989L69.7233 274.197V185.209L158.71 151.002ZM158.71 145.535C158.05 145.535 157.39 145.66 156.743 145.896L67.7557 180.104C65.6388 180.913 64.2441 182.943 64.2441 185.209V274.197C64.2441 276.002 65.1282 277.683 66.6101 278.705C67.5316 279.34 68.615 279.663 69.7108 279.663C70.3708 279.663 71.0433 279.539 71.6783 279.302L160.666 245.095C162.783 244.285 164.165 242.255 164.165 239.989V151.002C164.165 149.196 163.281 147.515 161.799 146.494C160.89 145.859 159.806 145.535 158.71 145.535Z" fill="#3C4242"/>
<path d="M146.096 155.858V230.687L69.7229 260.05V274.209L158.71 239.989V151.002L146.096 155.858Z" fill="#BEBCBD"/>
<path d="M158.71 312.427C158.374 312.427 158.05 312.364 157.726 312.24L68.7388 278.032C67.6804 277.621 66.983 276.613 66.983 275.479V186.492C66.983 185.596 67.4313 184.749 68.166 184.238C68.6268 183.927 69.1622 183.753 69.7102 183.753C70.0464 183.753 70.3702 183.815 70.6939 183.939L159.681 218.147C160.74 218.558 161.437 219.567 161.437 220.7V309.687C161.437 310.584 160.989 311.43 160.254 311.941C159.793 312.265 159.258 312.427 158.71 312.427Z" fill="#8A33FD"/>
<path d="M69.7235 186.492L158.711 220.7V309.687L69.7235 275.479V186.492ZM69.7235 181.025C68.6277 181.025 67.5567 181.349 66.6228 181.984C65.1409 183.005 64.2568 184.686 64.2568 186.492V275.479C64.2568 277.746 65.6515 279.776 67.7684 280.585L156.756 314.793C157.391 315.042 158.051 315.154 158.723 315.154C159.819 315.154 160.89 314.83 161.824 314.195C163.306 313.174 164.19 311.493 164.19 309.687V220.7C164.19 218.433 162.795 216.404 160.691 215.594L71.7035 181.386C71.0559 181.15 70.3835 181.025 69.7235 181.025Z" fill="#3C4242"/>
<path d="M144.601 215.283V288.741L69.7229 259.951V275.479L158.71 309.699V220.7L144.601 215.283Z" fill="#BEBCBD"/>
<path d="M176.879 250.051C175.995 250.051 175.148 249.627 174.625 248.855L160.267 227.823C159.955 227.374 159.794 226.827 159.794 226.279V219.23C159.794 218.097 160.491 217.088 161.549 216.678L246.726 183.927C247.05 183.802 247.374 183.74 247.71 183.74C248.594 183.74 249.441 184.176 249.964 184.936L268.132 211.547C268.606 212.232 268.73 213.104 268.481 213.901C268.232 214.698 267.634 215.333 266.85 215.644L177.862 249.852C177.539 250.001 177.202 250.051 176.879 250.051Z" fill="#EDEEF2"/>
<path d="M247.698 186.492L265.866 213.104L176.879 247.311L162.521 226.279V219.23L247.698 186.492ZM247.698 181.025C247.038 181.025 246.378 181.15 245.743 181.386L160.554 214.137C158.437 214.947 157.042 216.976 157.042 219.243V226.291C157.042 227.387 157.378 228.47 157.988 229.367L172.346 250.4C173.392 251.931 175.098 252.79 176.867 252.79C177.527 252.79 178.187 252.666 178.822 252.429L267.809 218.222C269.366 217.624 270.573 216.341 271.072 214.747C271.57 213.153 271.308 211.423 270.374 210.04L252.206 183.429C251.172 181.885 249.466 181.025 247.698 181.025Z" fill="#3C4242"/>
<path d="M232.305 192.42L240.3 204.187L166.704 232.493L176.878 247.324L265.866 213.116L247.697 186.492L232.305 192.42Z" fill="#BEBCBD"/>
<path d="M140.542 250.051C140.219 250.051 139.882 249.989 139.559 249.864L50.5713 215.656C49.7868 215.358 49.1891 214.722 48.94 213.913C48.691 213.116 48.8155 212.244 49.2887 211.559L67.4572 184.948C67.9802 184.188 68.827 183.753 69.7112 183.753C70.0349 183.753 70.3712 183.815 70.6949 183.939L156.644 216.989C157.702 217.4 158.4 218.408 158.4 219.542V225.158C158.4 225.706 158.238 226.241 157.926 226.702L142.796 248.88C142.286 249.627 141.426 250.051 140.542 250.051Z" fill="#EDEEF2"/>
<path d="M69.7238 186.492L155.673 219.542V225.158L140.542 247.336L51.5552 213.129L69.7238 186.492ZM69.7238 181.025C67.9555 181.025 66.2494 181.885 65.2034 183.416L47.0473 210.028C46.1009 211.41 45.8519 213.141 46.35 214.735C46.8481 216.329 48.0435 217.612 49.6126 218.209L138.6 252.417C139.235 252.666 139.907 252.778 140.555 252.778C142.323 252.778 144.029 251.919 145.075 250.387L160.205 228.209C160.828 227.3 161.152 226.229 161.152 225.133V219.517C161.152 217.25 159.757 215.221 157.64 214.411L71.6913 181.362C71.0437 181.15 70.3838 181.025 69.7238 181.025Z" fill="#3C4242"/>
<path d="M85.1156 192.42L77.1334 204.187L150.729 232.493L140.543 247.324L51.5554 213.116L69.724 186.492L85.1156 192.42Z" fill="#BEBCBD"/>
<path d="M162.222 171.437C161.088 171.437 160.042 170.727 159.644 169.619L139.981 114.441L24.6064 122.846C24.5442 122.846 24.4694 122.859 24.4072 122.859C19.0151 122.859 14.6193 118.525 14.5197 113.146L2.73943 12.9384C2.72698 12.8388 2.71452 12.7267 2.71452 12.6146C2.71452 7.16034 7.1477 2.72716 12.602 2.72716C12.6643 2.72716 12.7141 2.72716 12.7763 2.72716L175.409 13.0505C180.814 13.1003 185.197 17.5086 185.197 22.9255V101.963C185.197 107.38 180.826 111.788 175.421 111.838L164.949 112.598V168.685C164.949 170.017 163.99 171.15 162.682 171.375C162.533 171.424 162.383 171.437 162.222 171.437Z" fill="#F6F6F6"/>
<path d="M12.6146 5.46675L175.334 15.8025C179.282 15.8025 182.482 19.0029 182.482 22.9504V101.988C182.482 105.935 179.282 109.136 175.334 109.136L162.234 110.095V168.722L141.874 111.576L24.4198 120.132C20.4723 120.132 17.2719 116.931 17.2719 112.984L5.4792 12.6271C5.46675 8.6671 8.6671 5.46675 12.6146 5.46675ZM12.6146 0C5.65354 0 0 5.66599 0 12.6271C0 12.8388 0.0124512 13.0505 0.0373567 13.2622L11.8052 113.332C12.0044 120.119 17.5833 125.586 24.4198 125.586C24.5568 125.586 24.6813 125.586 24.8183 125.573L138.113 117.317L157.079 170.54C157.863 172.744 159.943 174.176 162.222 174.176C162.533 174.176 162.844 174.151 163.156 174.102C165.771 173.653 167.688 171.375 167.688 168.71V115.163L175.546 114.59C182.395 114.466 187.937 108.862 187.937 101.975V22.9379C187.937 16.0516 182.383 10.4354 175.521 10.3233L12.9633 0.0124554C12.8512 2.66047e-06 12.7391 0 12.6146 0Z" fill="#3C4242"/>
<path d="M41.5419 16.089L21.9538 14.8437C18.4546 14.8437 15.6278 17.6829 15.6278 21.1697L21.3685 70.0217" stroke="#3C4242" stroke-width="5.46568" stroke-miterlimit="10" stroke-linecap="round" stroke-linejoin="round"/>
<path d="M175.335 15.7901L164.015 15.0678V85.8865C164.015 89.834 160.815 93.0344 156.867 93.0344L147.864 93.6943L147.067 93.7566L143.755 93.9932L16.1143 103.295L17.2599 112.971C17.2599 116.919 20.4603 120.119 24.4078 120.119L141.862 111.564L143.767 116.894L162.235 168.71V110.082L175.335 109.123C179.282 109.123 182.483 105.923 182.483 101.975V22.9379C182.483 18.9904 179.282 15.7901 175.335 15.7901Z" fill="#8A33FD"/>
<path d="M175.334 15.7901L172.059 15.5784V94.5287C172.059 98.4762 168.859 101.677 164.911 101.677L151.811 102.635V139.458L162.234 168.71V110.082L175.334 109.123C179.282 109.123 182.482 105.923 182.482 101.975V22.938C182.482 18.9904 179.282 15.7901 175.334 15.7901Z" fill="#BEBCBD"/>
<circle cx="66.738" cy="45.3207" r="5.31102" fill="#2A2F2F"/>
<circle cx="116.308" cy="45.3207" r="5.31102" fill="#2A2F2F"/>
<path d="M83.3795 75.6449C87.2743 68.0915 98.7461 57.5166 113.475 75.6449" stroke="#2A2F2F" stroke-width="5" stroke-linecap="round"/>
</svg>
