<svg width="34" height="43" viewBox="0 0 34 43" fill="none" xmlns="http://www.w3.org/2000/svg">
<path d="M23.6831 43C16.6753 43 8.33379 38.1453 3.65383 30.8632C1.19119 27.3403 -0.0869581 23.1239 0.0045968 18.8251C0.0961517 14.5263 1.55265 10.3684 4.16304 6.95371C7.53359 2.09899 11.4376 -0.328384 15.5356 0.0357203C25.235 0.64256 32.8006 15.0368 33.14 15.6436C33.2849 15.9339 33.3102 16.2694 33.2104 16.5781C33.1107 16.8868 32.8938 17.144 32.6066 17.2942C32.3232 17.44 31.9938 17.4683 31.6898 17.3729C31.3858 17.2775 31.1315 17.0661 30.9819 16.7845C30.9819 16.6389 23.7074 2.97283 15.3901 2.46308C12.1408 2.24462 9.01274 4.23507 6.15142 8.3373C3.84083 11.3682 2.54924 15.0542 2.4621 18.8659C2.37497 22.6776 3.49678 26.4188 5.66646 29.5524C10.3707 36.8345 19.4154 41.5436 25.8412 40.2813C26.1591 40.2241 26.4868 40.2936 26.7541 40.4751C27.0215 40.6565 27.2073 40.9355 27.2719 41.2523C27.3286 41.5676 27.2584 41.8926 27.0767 42.1563C26.895 42.42 26.6165 42.6012 26.302 42.6602C25.4424 42.86 24.5651 42.9739 23.6831 43Z" fill="#3C4242"/>
</svg>
