<svg width="8" height="5" viewBox="0 0 8 5" fill="none" xmlns="http://www.w3.org/2000/svg">
<path d="M1.30996 4.40641C1.07137 4.41149 0.83631 4.34814 0.632529 4.22384C0.485633 4.1379 0.357379 4.02343 0.255301 3.88717C0.153223 3.75091 0.0793774 3.59563 0.0381125 3.4304C-0.00315238 3.26517 -0.0109998 3.09334 0.0150141 2.92503C0.0410281 2.75672 0.100387 2.59531 0.189604 2.45029C0.555751 1.86426 1.03459 1.35691 1.59831 0.957744C2.16202 0.558577 2.79938 0.275541 3.47331 0.125083C4.14725 -0.0253746 4.84433 -0.0402595 5.52406 0.0813059C6.20379 0.202871 6.8526 0.458466 7.4328 0.833218C7.69588 1.01349 7.88379 1.28407 7.96094 1.59373C8.0381 1.90338 7.99915 2.23061 7.85145 2.51344C7.70376 2.79628 7.45759 3.01508 7.15956 3.12841C6.86152 3.24175 6.53232 3.24173 6.23429 3.12839C3.62882 1.79823 2.53453 3.57178 2.43031 3.78043C2.3134 3.97268 2.14878 4.13138 1.95246 4.24107C1.75613 4.35076 1.53479 4.40772 1.30996 4.40641Z" fill="#3C4242"/>
</svg>
