<svg width="42" height="17" viewBox="0 0 42 17" fill="none" xmlns="http://www.w3.org/2000/svg">
<path d="M19.8631 8.09171V12.9467H18.3122V0.957072H22.4255C22.9165 0.946887 23.4047 1.03336 23.8618 1.21151C24.319 1.38966 24.7361 1.65596 25.0891 1.99503C25.4456 2.31352 25.7294 2.7041 25.9213 3.14054C26.1132 3.57698 26.2088 4.04916 26.2017 4.52535C26.2119 5.00408 26.1178 5.47934 25.9257 5.91857C25.7337 6.35779 25.4483 6.75058 25.0891 7.07002C24.3698 7.75115 23.482 8.09139 22.4255 8.09076H19.8631V8.09171ZM19.8631 2.43317V6.61848H22.4641C22.7492 6.62688 23.033 6.57608 23.2972 6.46933C23.5614 6.36259 23.8003 6.20225 23.9986 5.99858C24.1958 5.80815 24.3526 5.58037 24.4597 5.32873C24.5667 5.07708 24.6219 4.80667 24.6219 4.53348C24.6219 4.2603 24.5667 3.98988 24.4597 3.73824C24.3526 3.48659 24.1958 3.25881 23.9986 3.06838C23.8028 2.86042 23.5648 2.69615 23.3002 2.58647C23.0356 2.4768 22.7506 2.42422 22.4641 2.43221H19.8631V2.43317Z" fill="#5F6368"/>
<path d="M29.7755 4.47564C30.9219 4.47564 31.8267 4.77986 32.4901 5.38828C33.1535 5.99671 33.4849 6.8309 33.4843 7.89086V12.9467H32.0008V11.8083H31.9333C31.2911 12.7458 30.437 13.2146 29.3709 13.2146C28.4609 13.2146 27.6996 12.9467 27.0869 12.411C26.7929 12.1651 26.5578 11.8572 26.3989 11.5096C26.2399 11.1621 26.161 10.7837 26.1679 10.402C26.1679 9.55318 26.491 8.87811 27.137 8.37683C27.7831 7.87555 28.6456 7.62427 29.7245 7.623C30.6454 7.623 31.4038 7.79041 31.9998 8.12524V7.77319C32.0016 7.513 31.945 7.25568 31.8342 7.0199C31.7234 6.78411 31.5611 6.57577 31.3592 6.40998C30.9491 6.04251 30.4146 5.84201 29.8622 5.84843C28.9959 5.84843 28.3103 6.21131 27.8056 6.93709L26.4396 6.0828C27.191 5.01136 28.3029 4.47564 29.7755 4.47564ZM27.7689 10.4355C27.7679 10.6315 27.814 10.825 27.9035 10.9997C27.993 11.1744 28.1232 11.3254 28.2834 11.44C28.6264 11.708 29.0521 11.8499 29.4885 11.8418C30.1429 11.8407 30.7703 11.582 31.233 11.1224C31.7468 10.6422 32.0037 10.0787 32.0037 9.43201C31.5201 9.04935 30.8458 8.85802 29.9807 8.85802C29.3507 8.85802 28.8254 9.00885 28.4047 9.31052C27.9799 9.61664 27.7689 9.98878 27.7689 10.4355Z" fill="#5F6368"/>
<path d="M42.0001 4.74347L36.8213 16.5628H35.2203L37.1421 12.4272L33.7368 4.74347H35.4226L37.8838 10.6364H37.9175L40.3114 4.74347H42.0001Z" fill="#5F6368"/>
<path d="M13.5957 7.04518C13.5963 6.57581 13.5564 6.10725 13.4763 5.64466H6.93543V8.29743H10.6817C10.6051 8.72111 10.4428 9.125 10.2048 9.48473C9.96668 9.84446 9.65772 10.1526 9.2965 10.3906V12.1125H11.5323C12.8415 10.9138 13.5957 9.14119 13.5957 7.04518Z" fill="#4285F4"/>
<path d="M6.9356 13.7761C8.80731 13.7761 10.3833 13.1658 11.5325 12.1135L9.29667 10.3915C8.67438 10.8105 7.8729 11.0497 6.9356 11.0497C5.12651 11.0497 3.59099 9.83858 3.04191 8.20655H0.738633V9.98112C1.31591 11.1219 2.20111 12.0809 3.29539 12.751C4.38968 13.4212 5.64998 13.7761 6.9356 13.7761Z" fill="#34A853"/>
<path d="M3.04181 8.20659C2.75153 7.35139 2.75153 6.42528 3.04181 5.57008V3.79551H0.738542C0.252915 4.75517 0 5.81431 0 6.88834C0 7.96236 0.252915 9.0215 0.738542 9.98116L3.04181 8.20659Z" fill="#FBBC04"/>
<path d="M6.9356 2.72688C7.92472 2.71084 8.88046 3.08197 9.59626 3.76006L11.5759 1.79416C10.3206 0.623299 8.65763 -0.0195219 6.9356 0.000451906C5.64998 0.000510094 4.38968 0.355419 3.29539 1.02555C2.20111 1.69569 1.31591 2.65468 0.738633 3.79545L3.04191 5.57003C3.59099 3.93799 5.12651 2.72688 6.9356 2.72688Z" fill="#EA4335"/>
</svg>
