<svg width="41" height="13" viewBox="0 0 41 13" fill="none" xmlns="http://www.w3.org/2000/svg">
<path d="M38.2426 0.179823H35.6651C34.8859 0.179823 34.2865 0.419589 33.9268 1.19883L29.0116 12.4079H32.4882C32.4882 12.4079 33.0876 10.9094 33.2075 10.5497C33.5672 10.5497 36.9838 10.5497 37.4634 10.5497C37.5832 10.9693 37.8829 12.3479 37.8829 12.3479H40.9999L38.2426 0.179823ZM34.1666 8.03216C34.4663 7.31286 35.4853 4.61549 35.4853 4.61549C35.4853 4.67544 35.785 3.8962 35.9049 3.47661L36.1446 4.55555C36.1446 4.55555 36.804 7.49269 36.9239 8.0921H34.1666V8.03216Z" fill="#3362AB"/>
<path d="M29.2514 8.39181C29.2514 10.9094 26.9736 12.5877 23.4371 12.5877C21.9385 12.5877 20.4999 12.288 19.7207 11.9284L20.2002 9.17105L20.6198 9.35088C21.6988 9.83041 22.418 10.0102 23.7368 10.0102C24.6958 10.0102 25.7148 9.65058 25.7148 8.8114C25.7148 8.27193 25.2952 7.91228 23.9765 7.31286C22.7178 6.71345 21.0394 5.75439 21.0394 4.01608C21.0394 1.61842 23.3771 0 26.6739 0C27.9327 0 29.0116 0.239766 29.671 0.539474L29.1914 3.1769L28.9517 2.93713C28.3523 2.69737 27.573 2.4576 26.4341 2.4576C25.1754 2.51754 24.5759 3.05702 24.5759 3.53655C24.5759 4.07602 25.2952 4.49561 26.4341 5.03509C28.3523 5.93421 29.2514 6.95322 29.2514 8.39181Z" fill="#3362AB"/>
<path d="M0 0.299666L0.0599415 0.0598999H5.21491C5.93421 0.0598999 6.47368 0.299666 6.65351 1.07891L7.7924 6.47364C6.65351 3.59645 4.01608 1.25873 0 0.299666Z" fill="#F9B50B"/>
<path d="M15.0455 0.179865L9.83059 12.348H6.29405L3.29697 2.15793C5.45486 3.53659 7.25311 5.69448 7.91247 7.19302L8.27212 8.45179L11.509 0.119924H15.0455V0.179865Z" fill="#3362AB"/>
<path d="M16.4239 0.119924H19.7207L17.6228 12.348H14.326L16.4239 0.119924Z" fill="#3362AB"/>
</svg>
