<svg width="28" height="61" viewBox="0 0 28 61" fill="none" xmlns="http://www.w3.org/2000/svg">
<g filter="url(#filter0_d_23_68)">
<circle cx="12.9472" cy="12.9471" r="10.6624" fill="white"/>
</g>
<path fill-rule="evenodd" clip-rule="evenodd" d="M16.9788 16.0244C16.7187 16.2228 16.347 16.1727 16.1486 15.9125L13.1929 12.0359C13.1193 11.9872 13.0119 11.9872 12.9383 12.0359L9.9826 15.9125C9.78425 16.1727 9.41256 16.2228 9.1524 16.0244C8.89225 15.8261 8.84215 15.4544 9.0405 15.1943L12.0064 11.3042C12.041 11.2588 12.0934 11.196 12.1659 11.1359C12.6828 10.7076 13.4484 10.7076 13.9653 11.1359C14.0378 11.196 14.0902 11.2588 14.1248 11.3042L17.0907 15.1943C17.2891 15.4544 17.239 15.8261 16.9788 16.0244Z" fill="#3C4242"/>
<g filter="url(#filter1_d_23_68)">
<circle cx="12.9471" cy="46.5297" r="10.6624" transform="rotate(180 12.9471 46.5297)" fill="#3C4242"/>
</g>
<path fill-rule="evenodd" clip-rule="evenodd" d="M8.91547 44.5186C9.17562 44.3202 9.54731 44.3703 9.74566 44.6305L12.7014 48.5071C12.775 48.5559 12.8824 48.5559 12.956 48.5071L15.9117 44.6305C16.11 44.3703 16.4817 44.3202 16.7419 44.5186C17.002 44.7169 17.0521 45.0886 16.8538 45.3488L13.8879 49.2388C13.8533 49.2842 13.8009 49.347 13.7283 49.4071C13.2114 49.8354 12.4459 49.8354 11.929 49.4071C11.8565 49.347 11.8041 49.2842 11.7695 49.2388L8.80357 45.3488C8.60522 45.0886 8.65532 44.7169 8.91547 44.5186Z" fill="white"/>
<defs>
<filter id="filter0_d_23_68" x="1.59725e-05" y="6.0047e-07" width="27.4175" height="27.4175" filterUnits="userSpaceOnUse" color-interpolation-filters="sRGB">
<feFlood flood-opacity="0" result="BackgroundImageFix"/>
<feColorMatrix in="SourceAlpha" type="matrix" values="0 0 0 0 0 0 0 0 0 0 0 0 0 0 0 0 0 0 127 0" result="hardAlpha"/>
<feOffset dx="0.755986" dy="0.755986"/>
<feGaussianBlur stdDeviation="1.51197"/>
<feComposite in2="hardAlpha" operator="out"/>
<feColorMatrix type="matrix" values="0 0 0 0 0 0 0 0 0 0 0 0 0 0 0 0 0 0 0.04 0"/>
<feBlend mode="normal" in2="BackgroundImageFix" result="effect1_dropShadow_23_68"/>
<feBlend mode="normal" in="SourceGraphic" in2="effect1_dropShadow_23_68" result="shape"/>
</filter>
<filter id="filter1_d_23_68" x="6.0047e-07" y="33.5825" width="27.4175" height="27.4175" filterUnits="userSpaceOnUse" color-interpolation-filters="sRGB">
<feFlood flood-opacity="0" result="BackgroundImageFix"/>
<feColorMatrix in="SourceAlpha" type="matrix" values="0 0 0 0 0 0 0 0 0 0 0 0 0 0 0 0 0 0 127 0" result="hardAlpha"/>
<feOffset dx="0.755986" dy="0.755986"/>
<feGaussianBlur stdDeviation="1.51197"/>
<feComposite in2="hardAlpha" operator="out"/>
<feColorMatrix type="matrix" values="0 0 0 0 0 0 0 0 0 0 0 0 0 0 0 0 0 0 0.04 0"/>
<feBlend mode="normal" in2="BackgroundImageFix" result="effect1_dropShadow_23_68"/>
<feBlend mode="normal" in="SourceGraphic" in2="effect1_dropShadow_23_68" result="shape"/>
</filter>
</defs>
</svg>
