<svg width="410" height="460" viewBox="0 0 410 460" fill="none" xmlns="http://www.w3.org/2000/svg">
<path d="M394.701 1.98073e-05H53.9351C49.9175 -0.00646586 46.0608 1.58003 43.2086 4.41249C40.3564 7.24495 38.7407 11.0928 38.7152 15.1146V119.003L0 166.478L38.7152 152.72V444.764C38.7152 448.805 40.3187 452.68 43.173 455.538C46.0273 458.395 49.8985 460 53.9351 460H394.701C398.738 460 402.609 458.395 405.463 455.538C408.318 452.68 409.921 448.805 409.921 444.764V15.1146C409.889 11.0948 408.271 7.25063 405.421 4.41954C402.57 1.58844 398.717 -0.000107199 394.701 1.98073e-05Z" fill="white"/>
</svg>
