<svg width="153" height="149" viewBox="0 0 153 149" fill="none" xmlns="http://www.w3.org/2000/svg">
<path d="M36.6736 148.91C35.4788 148.911 34.288 148.773 33.1256 148.496C7.43899 142.22 5.8594 114.439 3.96389 79.2628C3.25915 66.6859 2.5058 53.6956 0.634586 40.2186C-1.38243 25.793 1.41223 15.0407 8.96997 8.25357C23.7695 -5.02873 51.1086 1.63677 52.2508 1.92868C52.4686 1.99013 52.6664 2.1079 52.8242 2.27018C52.9821 2.43246 53.0944 2.6335 53.15 2.85307L68.5084 73.4001L126.565 7.32914C126.782 7.08419 127.088 6.93551 127.415 6.9156C127.733 6.89911 128.045 7.00339 128.29 7.20754L152.591 28.7122C152.813 28.9053 152.955 29.1736 152.991 29.4655C153.027 29.7574 152.954 30.0523 152.786 30.2934C149.238 35.3777 72.5668 148.885 36.6736 148.91ZM35.2641 2.48818C26.9287 2.48818 17.1596 4.04507 10.4767 10.0781C3.79378 16.111 1.02341 26.3282 2.91893 39.8781C4.81444 53.428 5.54347 66.4913 6.27251 79.1168C8.21663 113.296 9.77191 140.274 33.6845 146.136C46.9774 149.348 71.3517 130.251 104.159 90.8179C126.808 63.5965 146.346 35.2074 149.967 30.0015L127.439 10.0051L68.6057 76.9761C68.4591 77.1473 68.2678 77.2744 68.0532 77.3432C67.8387 77.4119 67.6093 77.4196 67.3906 77.3653C67.1704 77.3086 66.9701 77.1923 66.8115 77.0293C66.653 76.8662 66.5422 76.6627 66.4914 76.4409L50.7927 4.2397C45.6905 3.12288 40.4867 2.53594 35.2641 2.48818Z" fill="#3C4242"/>
</svg>
