<svg width="156" height="172" viewBox="0 0 156 172" fill="none" xmlns="http://www.w3.org/2000/svg">
<path d="M105.859 153.287C98.8625 152.22 92.1319 151.033 84.8929 152.972C74.1433 155.904 64.6769 162.133 53.6126 164.726C41.7977 167.465 28.9176 167.562 16.8364 168.119C13.3017 168.289 17.127 172.772 14.0764 170.955C3.35103 164.556 2.50364 149.991 1.511 139.06C-1.12419 113.806 -0.309678 88.3095 3.93208 63.275C7.99949 41.4628 12.2122 20.7896 33.3482 9.64116C48.7462 1.52217 70.3907 -3.325 87.2656 2.68548C104.14 8.69596 118.231 24.1342 124.114 41.2204C130.627 60.1243 132.758 79.2949 143.701 96.5992C148.543 104.233 154.523 111.674 155.806 120.617C157.21 131.402 150.819 142.259 141.643 148.076C132.467 153.893 121.015 155.347 110.169 153.893C108.668 153.723 107.264 153.505 105.859 153.287Z" fill="white"/>
</svg>
