<svg width="748" height="84" viewBox="0 0 748 84" fill="none" xmlns="http://www.w3.org/2000/svg">
<mask id="path-1-inside-1_295_1190" fill="white">
<path fill-rule="evenodd" clip-rule="evenodd" d="M143.755 0.344057C143.356 -0.114686 142.644 -0.114686 142.245 0.344057L128.227 16.4755H8C3.58172 16.4755 0 20.0572 0 24.4755V75.4755C0 79.8938 3.5817 83.4755 7.99998 83.4755H740C744.418 83.4755 748 79.8938 748 75.4755V24.4755C748 20.0572 744.418 16.4755 740 16.4755H157.773L143.755 0.344057Z"/>
</mask>
<path fill-rule="evenodd" clip-rule="evenodd" d="M143.755 0.344057C143.356 -0.114686 142.644 -0.114686 142.245 0.344057L128.227 16.4755H8C3.58172 16.4755 0 20.0572 0 24.4755V75.4755C0 79.8938 3.5817 83.4755 7.99998 83.4755H740C744.418 83.4755 748 79.8938 748 75.4755V24.4755C748 20.0572 744.418 16.4755 740 16.4755H157.773L143.755 0.344057Z" fill="#F6F6F6"/>
<path d="M142.245 0.344057L141.868 0.0160798L141.868 0.0160851L142.245 0.344057ZM143.755 0.344057L144.132 0.0160853L144.132 0.01608L143.755 0.344057ZM128.227 16.4755V16.9755H128.455L128.604 16.8034L128.227 16.4755ZM157.773 16.4755L157.396 16.8034L157.545 16.9755H157.773V16.4755ZM142.623 0.672033C142.822 0.442655 143.178 0.442655 143.377 0.672034L144.132 0.01608C143.534 -0.672027 142.466 -0.672027 141.868 0.0160798L142.623 0.672033ZM128.604 16.8034L142.623 0.672028L141.868 0.0160851L127.849 16.1475L128.604 16.8034ZM8 16.9755H128.227V15.9755H8V16.9755ZM0.5 24.4755C0.5 20.3333 3.85786 16.9755 8 16.9755V15.9755C3.30558 15.9755 -0.5 19.7811 -0.5 24.4755H0.5ZM0.5 75.4755V24.4755H-0.5V75.4755H0.5ZM7.99998 82.9755C3.85785 82.9755 0.5 79.6176 0.5 75.4755H-0.5C-0.5 80.1699 3.30556 83.9755 7.99998 83.9755V82.9755ZM740 82.9755H7.99998V83.9755H740V82.9755ZM747.5 75.4755C747.5 79.6176 744.142 82.9755 740 82.9755V83.9755C744.694 83.9755 748.5 80.1699 748.5 75.4755H747.5ZM747.5 24.4755V75.4755H748.5V24.4755H747.5ZM740 16.9755C744.142 16.9755 747.5 20.3333 747.5 24.4755H748.5C748.5 19.7811 744.694 15.9755 740 15.9755V16.9755ZM157.773 16.9755H740V15.9755H157.773V16.9755ZM143.377 0.672028L157.396 16.8034L158.151 16.1475L144.132 0.0160853L143.377 0.672028Z" fill="#807D7E" fill-opacity="0.2" mask="url(#path-1-inside-1_295_1190)"/>
</svg>
