<svg width="54" height="8" viewBox="0 0 54 8" fill="none" xmlns="http://www.w3.org/2000/svg">
<path d="M5.19761 6.01498C5.0334 6.01498 4.84375 5.95022 4.62712 5.82147C4.41126 5.69195 4.18152 5.52081 3.93945 5.30726C3.69738 5.09371 3.45916 4.86166 3.22403 4.61034C2.98967 4.35979 2.77304 4.11001 2.57568 3.861C2.37832 3.61276 2.21257 3.3915 2.07843 3.19799L0.994499 5.53777C0.942076 5.65187 0.860357 5.73281 0.748572 5.77984C0.636788 5.82686 0.515752 5.85539 0.385465 5.86541C0.255178 5.87544 0.126433 5.88006 0 5.88006C0.0963662 5.7413 0.195816 5.58171 0.296037 5.40286C0.397029 5.224 0.515751 5.00814 0.653747 4.7545C0.791744 4.50087 0.953641 4.19327 1.14021 3.83016C1.32677 3.46782 1.54803 3.03379 1.80552 2.5296C2.06224 2.02541 2.36598 1.43334 2.71676 0.752606C2.73911 0.712518 2.76918 0.657012 2.80618 0.585316C2.84319 0.513619 2.86246 0.447319 2.86246 0.387958C2.86246 0.333222 2.84396 0.29005 2.80618 0.25767C2.76918 0.225291 2.69825 0.209102 2.59418 0.209102C2.41532 0.209102 2.24186 0.25767 2.07457 0.354037C1.90728 0.450403 1.75772 0.57375 1.62743 0.723311C1.49714 0.8721 1.39461 1.02629 1.31983 1.1851C1.24505 1.34391 1.20805 1.48576 1.20805 1.60988C1.20805 1.7047 1.22655 1.78873 1.26355 1.86351C1.01763 1.86351 0.844168 1.82266 0.743947 1.74094C0.642955 1.65922 0.592845 1.55823 0.592845 1.43873C0.592845 1.2699 0.666854 1.10107 0.816415 0.932234C0.965204 0.763401 1.15717 0.60767 1.3923 0.46659C1.62743 0.324738 1.87336 0.212185 2.13008 0.127383C2.3868 0.0433518 2.61962 0.000949488 2.82854 0.000949488C3.02976 0.000949488 3.16544 0.0379551 3.23636 0.112735C3.30729 0.187515 3.34275 0.269234 3.34275 0.358662C3.34275 0.413398 3.3335 0.468135 3.315 0.522871C3.2965 0.577607 3.27568 0.630027 3.25332 0.679367L2.31433 2.70614C2.41841 2.60669 2.55486 2.51495 2.72215 2.43015C2.88945 2.34612 3.07447 2.24898 3.27568 2.13951C3.61104 1.96065 3.97029 1.75173 4.35421 1.51351C4.73813 1.2753 5.1051 1.02397 5.4551 0.761085C5.8051 0.497427 6.09574 0.244563 6.32702 0.000949488C6.36403 0.0310158 6.39024 0.0826656 6.40566 0.157446C6.4203 0.232226 6.42802 0.289277 6.42802 0.328595C6.42802 0.482781 6.33319 0.651615 6.14277 0.835096C5.95235 1.01858 5.70488 1.20899 5.39959 1.40481C5.09431 1.6014 4.75895 1.7949 4.39353 1.98609C4.02811 2.17728 3.66886 2.35768 3.315 2.52652C2.96114 2.69535 2.64198 2.84182 2.35905 2.96594C2.58262 3.21958 2.80079 3.46011 3.01279 3.68908C3.2248 3.91727 3.45608 4.14084 3.70586 4.35979C3.95564 4.57873 4.24782 4.8023 4.58318 5.0305C4.91853 5.25869 5.32481 5.50462 5.80125 5.76828C5.74883 5.83303 5.66711 5.89008 5.55532 5.93942C5.44354 5.9903 5.32404 6.01498 5.19761 6.01498Z" fill="#3C4242"/>
<path d="M11.1779 5.73184C10.7231 5.73184 10.3862 5.64011 10.1665 5.45586C9.94676 5.27237 9.83652 5.05111 9.83652 4.79285C9.51581 5.07578 9.14731 5.29704 8.73024 5.45586C8.31316 5.61467 7.89146 5.69407 7.46745 5.69407C7.0126 5.69407 6.67185 5.61081 6.44443 5.44429C6.217 5.27777 6.10367 5.0727 6.10367 4.82986C6.10367 4.60629 6.18771 4.37038 6.355 4.12214C6.52306 3.8739 6.74663 3.64031 7.02571 3.42137C7.30478 3.2032 7.61239 3.02511 7.94774 2.88865C8.28309 2.7522 8.61459 2.68359 8.94301 2.68359C9.11416 2.68359 9.27297 2.71365 9.4179 2.77301C9.56361 2.83238 9.63608 2.95419 9.63608 3.13844C9.63608 3.32732 9.55205 3.50463 9.38475 3.67115C9.21746 3.83767 8.99698 3.98569 8.72561 4.11444C8.45347 4.24395 8.15512 4.3488 7.83133 4.43129C7.50754 4.51378 7.18452 4.56389 6.86458 4.58393C6.84994 4.63404 6.83837 4.68107 6.83066 4.72578C6.82295 4.7705 6.8191 4.8129 6.8191 4.85222C6.8191 4.95167 6.84531 5.04957 6.89773 5.14671C6.94939 5.24385 7.03881 5.32325 7.16602 5.38493C7.29245 5.44737 7.47131 5.47821 7.70259 5.47821C8.0973 5.47821 8.48893 5.38493 8.87671 5.19913C9.26372 5.01257 9.60293 4.78283 9.89357 4.50992C9.96064 4.3064 10.0801 4.10287 10.2513 3.89858C10.4224 3.69505 10.6298 3.51003 10.8719 3.34351C11.1139 3.17698 11.3768 3.04284 11.6598 2.94108C11.9427 2.83932 12.2303 2.78843 12.5209 2.78843C12.692 2.78843 12.8509 2.8185 12.9958 2.87787C13.1407 2.93723 13.214 3.05903 13.214 3.24329C13.214 3.49692 13.0852 3.71895 12.8285 3.91014C12.5718 4.10133 12.2418 4.25397 11.8394 4.36884C11.437 4.48294 11.0238 4.55541 10.599 4.5847C10.5843 4.63481 10.5728 4.68184 10.565 4.72655C10.5573 4.77127 10.5535 4.81367 10.5535 4.85299C10.5535 4.95244 10.5774 5.0542 10.626 5.15827C10.6745 5.26235 10.7601 5.34792 10.8827 5.41499C11.006 5.48206 11.1826 5.51521 11.4138 5.51521C11.7346 5.51521 12.0545 5.452 12.3752 5.32557C12.6959 5.19914 12.9935 5.03261 13.2695 4.826C13.5455 4.62016 13.776 4.39737 13.9625 4.15915L14.0967 4.22622C13.8955 4.52457 13.6364 4.78669 13.3196 5.01257C13.0027 5.23845 12.6604 5.41499 12.2912 5.54143C11.9211 5.66863 11.5503 5.73184 11.1779 5.73184ZM6.91932 4.44208C7.12053 4.39737 7.34796 4.33184 7.60082 4.24472C7.85446 4.15761 8.09807 4.05507 8.33321 3.93558C8.56834 3.81608 8.76184 3.68503 8.91448 3.54086C9.06713 3.3967 9.14345 3.2456 9.14345 3.08602C9.14345 3.03128 9.1288 2.98888 9.09874 2.95958C9.06867 2.92952 9.00545 2.91487 8.90909 2.91487C8.73023 2.91487 8.53981 2.96112 8.3386 3.05286C8.13739 3.1446 7.94388 3.26487 7.75732 3.41443C7.57075 3.56322 7.40346 3.72743 7.2539 3.90628C7.10511 4.08437 6.99333 4.26322 6.91932 4.44208ZM10.6529 4.44208C10.8541 4.39737 11.0739 4.338 11.3129 4.26322C11.5511 4.18844 11.7785 4.10056 11.9951 3.9988C12.211 3.89703 12.3898 3.78062 12.5317 3.6488C12.6728 3.51697 12.7437 3.37203 12.7437 3.21322C12.7437 3.15848 12.7252 3.11223 12.6874 3.07522C12.6504 3.03822 12.5833 3.01971 12.4862 3.01971C12.248 3.01971 12.0075 3.0891 11.7654 3.22864C11.5233 3.3674 11.3036 3.54549 11.1055 3.76135C10.9081 3.97644 10.757 4.20386 10.6529 4.44208Z" fill="#3C4242"/>
<path d="M13.0233 7.45335C12.9639 7.45335 12.9061 7.43253 12.8498 7.39013C12.7935 7.34773 12.7511 7.30302 12.721 7.25599C12.691 7.20896 12.6763 7.18044 12.6763 7.17042C12.7804 6.9268 12.8829 6.7094 12.9839 6.51821C13.0849 6.32702 13.1851 6.13043 13.2861 5.92922C13.3864 5.728 13.4858 5.4921 13.5822 5.2215C13.6793 4.95091 13.7795 4.61401 13.8844 4.21159C13.9885 3.80916 14.0933 3.3096 14.1974 2.71367C14.2051 2.66896 14.2197 2.63658 14.2421 2.61653C14.2645 2.59649 14.32 2.58647 14.4094 2.58647C14.6029 2.58647 14.7409 2.6227 14.8234 2.6944C14.9051 2.76609 14.946 2.84473 14.946 2.92876C14.946 2.99814 14.9236 3.12226 14.8789 3.30112C14.8342 3.47998 14.771 3.69121 14.6892 3.93482C14.8157 3.77061 14.9745 3.60409 15.1641 3.43526C15.3538 3.26643 15.5719 3.12457 15.8179 3.01048C16.0638 2.89638 16.3321 2.83933 16.6227 2.83933C16.9504 2.83933 17.221 2.91797 17.433 3.07369C17.645 3.23019 17.7514 3.43526 17.7514 3.68889C17.7514 3.8824 17.6858 4.08747 17.5555 4.30333C17.4253 4.51919 17.2426 4.72349 17.0082 4.91468C16.7738 5.10587 16.4955 5.26159 16.1756 5.38032C15.8549 5.49981 15.501 5.55917 15.114 5.55917C14.9197 5.55917 14.764 5.54453 14.6445 5.51446C14.525 5.4844 14.4657 5.4551 14.4657 5.42503C14.4657 5.40499 14.4934 5.39419 14.5497 5.39111C14.606 5.3888 14.6707 5.38726 14.7455 5.38726C15.0439 5.38726 15.3283 5.33869 15.6005 5.24155C15.8726 5.14441 16.1162 5.01644 16.3329 4.85763C16.5487 4.69882 16.7183 4.52227 16.8417 4.32877C16.9642 4.13527 17.0259 3.94408 17.0259 3.7552C17.0259 3.59639 16.9758 3.4607 16.8748 3.34892C16.7746 3.23713 16.6119 3.18163 16.3884 3.18163C16.1949 3.18163 16.0029 3.22248 15.8125 3.3042C15.6221 3.38592 15.4432 3.49077 15.2759 3.6172C15.1078 3.74363 14.9591 3.87546 14.8288 4.01191C14.6985 4.14837 14.5998 4.27172 14.5327 4.38042C14.3986 4.75278 14.2644 5.11203 14.1303 5.45741C13.9962 5.80279 13.8674 6.11578 13.7448 6.3964C13.6215 6.67702 13.5105 6.90676 13.4095 7.08561C13.3093 7.26447 13.2252 7.37394 13.1582 7.41326C13.1196 7.44101 13.0749 7.45335 13.0233 7.45335Z" fill="#3C4242"/>
<path d="M21.8094 5.55994C21.5187 5.55994 21.3021 5.49904 21.161 5.37723C21.0192 5.25542 20.949 5.10741 20.949 4.93395C20.949 4.81985 20.9806 4.67569 21.0438 4.50146C21.107 4.328 21.1911 4.14528 21.2952 3.95409C21.3992 3.7629 21.5203 3.58251 21.6583 3.41367C21.7963 3.24484 21.9435 3.10684 22.1 2.99968C22.2565 2.89329 22.4091 2.83933 22.5587 2.83933C22.6258 2.83933 22.6836 2.85321 22.7322 2.88019C22.7807 2.90717 22.8046 2.9488 22.8046 3.00277C22.8046 3.06213 22.7468 3.15926 22.6312 3.29341C22.5155 3.42755 22.3799 3.58174 22.2234 3.7552C22.0669 3.92943 21.9312 4.11136 21.8155 4.30255C21.6999 4.49375 21.6421 4.67645 21.6421 4.85068C21.6421 5.02954 21.6868 5.14904 21.7762 5.2084C21.8656 5.26776 22.0036 5.29782 22.1902 5.29782C22.4438 5.29782 22.7137 5.21379 23.0005 5.04419C23.2872 4.87536 23.591 4.58009 23.9117 4.15762L24.0119 4.2324C23.796 4.6595 23.4846 4.98791 23.0783 5.2161C22.6713 5.44584 22.2488 5.55994 21.8094 5.55994ZM23.15 2.14703C23.0305 2.14703 22.9249 2.12699 22.8316 2.08767C22.7383 2.04759 22.6921 1.98591 22.6921 1.90111C22.6921 1.79703 22.783 1.70606 22.9658 1.62897C23.1485 1.55188 23.3289 1.51333 23.5077 1.51333C23.6195 1.51333 23.7089 1.53106 23.776 1.56575C23.8431 1.60044 23.8762 1.66058 23.8762 1.74461C23.8762 1.83866 23.7999 1.92963 23.6473 2.01675C23.4954 2.10386 23.3296 2.14703 23.15 2.14703Z" fill="#3C4242"/>
<path d="M24.6476 5.70949C24.3269 5.70949 24.081 5.64704 23.9099 5.52292C23.7387 5.3988 23.6531 5.21532 23.6531 4.97171C23.6531 4.75353 23.7148 4.48371 23.8374 4.163C23.96 3.8423 24.1149 3.51388 24.3015 3.17544C24.2267 3.16542 24.1566 3.15694 24.0895 3.14923C24.0224 3.14152 23.9592 3.13073 23.8998 3.11608V2.98194C23.9592 2.98656 24.0301 2.99196 24.1119 2.99658C24.1936 3.00121 24.2869 3.00661 24.3909 3.01123C24.5474 2.74295 24.7155 2.48315 24.8936 2.2326C25.0724 1.98204 25.2497 1.75847 25.4247 1.56189C25.5997 1.36607 25.7678 1.2088 25.9282 1.09239C26.0885 0.975976 26.2242 0.917389 26.336 0.917389C26.3953 0.917389 26.4493 0.931263 26.4979 0.958246C26.5465 0.985228 26.5703 1.02686 26.5703 1.08083C26.5703 1.16563 26.4925 1.30285 26.336 1.49481C26.1795 1.68601 25.986 1.91343 25.7547 2.17631C25.5234 2.43997 25.2999 2.72522 25.084 3.03359C25.1511 3.03359 25.2197 3.03359 25.2906 3.03359C25.3615 3.03359 25.4301 3.03359 25.4972 3.03359C25.7431 3.03359 26.0022 3.03128 26.2743 3.02588C26.5464 3.02126 26.8201 3.00815 27.0961 2.98888V3.12302C26.686 3.15308 26.319 3.17544 25.9952 3.19009C25.6714 3.20474 25.3823 3.21244 25.1287 3.21244C25.0986 3.21244 25.0709 3.21244 25.0447 3.21244C25.0185 3.21244 24.9907 3.21244 24.9606 3.21244C24.7895 3.4761 24.6438 3.7467 24.5251 4.02501C24.4056 4.30331 24.3462 4.57391 24.3462 4.83757C24.3462 5.05111 24.3948 5.20376 24.4912 5.2955C24.5875 5.38724 24.7479 5.43349 24.9722 5.43349C25.36 5.43349 25.7401 5.3194 26.1124 5.09043C26.4848 4.86224 26.8124 4.55155 27.0961 4.15915L27.2411 4.23393C27.0622 4.51223 26.8363 4.76279 26.565 4.98636C26.2928 5.20992 25.9929 5.38647 25.6653 5.51521C25.3369 5.64473 24.9984 5.70949 24.6476 5.70949Z" fill="#3C4242"/>
<path d="M30.9863 5.78352C30.6286 5.78352 30.3302 5.70411 30.092 5.5453C29.8538 5.38649 29.7343 5.14828 29.7343 4.82988C29.7343 4.58164 29.8067 4.33957 29.9525 4.10289C30.0974 3.86699 30.2894 3.65499 30.5283 3.46611C30.7666 3.27723 31.031 3.1269 31.3216 3.01511C31.6123 2.90333 31.8991 2.84782 32.1828 2.84782C32.488 2.84782 32.697 2.90718 32.8087 3.02668C32.9205 3.14617 32.976 3.27029 32.976 3.39904C32.976 3.5432 32.9259 3.66963 32.8249 3.7791C32.7247 3.88858 32.5883 3.94331 32.4171 3.94331C32.2907 3.94331 32.1828 3.90631 32.0926 3.83153C32.2043 3.79221 32.3015 3.71126 32.3832 3.58945C32.4649 3.46765 32.5065 3.35201 32.5065 3.24254C32.5065 3.18317 32.4896 3.13692 32.4564 3.10454C32.4225 3.07216 32.3578 3.05597 32.2606 3.05597C32.0594 3.05597 31.8528 3.11533 31.64 3.23483C31.428 3.35432 31.2299 3.50774 31.0479 3.69661C30.8652 3.88549 30.7164 4.08439 30.6008 4.29254C30.4852 4.50146 30.4273 4.69728 30.4273 4.88153C30.4273 5.03572 30.4836 5.1768 30.5954 5.30632C30.7072 5.43506 30.9231 5.49982 31.2438 5.49982C31.5421 5.49982 31.842 5.44508 32.1434 5.33561C32.4449 5.22614 32.7263 5.06964 32.9876 4.86611C33.2482 4.66259 33.4571 4.4236 33.6136 4.15069L33.7585 4.22547C33.5874 4.52382 33.3523 4.79056 33.0547 5.02647C32.7563 5.26237 32.4287 5.4474 32.071 5.58154C31.7125 5.71645 31.3509 5.78352 30.9863 5.78352Z" fill="#3C4242"/>
<path d="M34.3285 5.59001C34.0078 5.59001 33.7788 5.51677 33.6408 5.3703C33.5028 5.22382 33.4342 5.04111 33.4342 4.82294C33.4342 4.58472 33.5013 4.30102 33.6354 3.97337C33.7696 3.64573 33.9469 3.30035 34.1666 2.93724C34.3863 2.5749 34.6268 2.22105 34.8874 1.8749C35.148 1.52953 35.4086 1.21576 35.6699 0.932057C35.9305 0.649125 36.171 0.422468 36.3907 0.253634C36.6104 0.0848006 36.7839 0 36.9103 0C36.9921 0 37.0591 0.0308389 37.1116 0.0932842C37.164 0.15573 37.2048 0.229736 37.2349 0.316851C37.2642 0.403966 37.2796 0.481833 37.2796 0.551217C37.2796 0.685359 37.2295 0.860356 37.1285 1.07699C37.0283 1.29285 36.8864 1.53415 36.7037 1.80012C36.521 2.06609 36.3052 2.33437 36.0554 2.60497C35.8056 2.87557 35.5335 3.13537 35.2397 3.38361C34.9452 3.63185 34.6346 3.8454 34.3061 4.02426C34.2614 4.1584 34.226 4.28869 34.1998 4.41589C34.1735 4.54232 34.1604 4.66335 34.1604 4.77745C34.1604 4.97095 34.2013 5.11512 34.283 5.20995C34.3647 5.304 34.4881 5.3518 34.6523 5.3518C34.8535 5.3518 35.0532 5.29243 35.2505 5.17294C35.4479 5.05344 35.6345 4.90312 35.8095 4.72195C35.9845 4.54078 36.1356 4.35344 36.262 4.15917L36.4293 4.21853C36.1309 4.641 35.8071 4.97481 35.4564 5.22074C35.1071 5.46743 34.7309 5.59001 34.3285 5.59001ZM34.4071 3.77139C34.6677 3.59716 34.9213 3.39749 35.1673 3.17161C35.4132 2.94573 35.6422 2.71059 35.8549 2.46775C36.0677 2.22413 36.2558 1.98823 36.4193 1.76003C36.5827 1.53184 36.7099 1.32677 36.7993 1.1456C36.8888 0.964432 36.9335 0.824126 36.9335 0.724676C36.9335 0.675337 36.9242 0.642957 36.9057 0.627538C36.8872 0.612891 36.8702 0.605178 36.8556 0.605178C36.7962 0.605178 36.6937 0.668396 36.548 0.794829C36.4031 0.921261 36.2335 1.09164 36.0392 1.30518C35.8457 1.51873 35.6483 1.76235 35.4471 2.03526C35.2459 2.30817 35.0539 2.59418 34.8712 2.89253C34.6877 3.19011 34.5336 3.48383 34.4071 3.77139Z" fill="#3C4242"/>
<path d="M36.5755 5.71646C36.3442 5.71646 36.1484 5.66557 35.9888 5.56381C35.8284 5.46205 35.7483 5.30709 35.7483 5.09817C35.7483 4.91931 35.8076 4.72658 35.9271 4.52074C36.0459 4.3149 36.2101 4.11061 36.419 3.9094C36.6279 3.70818 36.8646 3.5247 37.129 3.35818C37.3934 3.19166 37.6725 3.05906 37.9678 2.95961C38.2623 2.86016 38.5545 2.81082 38.8451 2.81082C39.1357 2.81082 39.3778 2.8617 39.5713 2.96346C39.7648 3.06523 39.862 3.20091 39.862 3.36974C39.862 3.49386 39.8118 3.57867 39.7109 3.62338C39.6099 3.66809 39.478 3.69045 39.3138 3.69045C39.3285 3.65036 39.3416 3.60719 39.3531 3.56016C39.3647 3.51314 39.3701 3.46996 39.3701 3.42987C39.3701 3.31578 39.3292 3.21787 39.2475 3.13538C39.165 3.05366 39.024 3.0128 38.8227 3.0128C38.6138 3.0128 38.4018 3.06137 38.1852 3.15774C37.9693 3.25488 37.7604 3.38362 37.5592 3.54551C37.358 3.70741 37.1791 3.88241 37.0226 4.07129C36.8661 4.26017 36.7435 4.44673 36.6533 4.63021C36.5639 4.81369 36.5192 4.9779 36.5192 5.12207C36.5192 5.31557 36.6194 5.41271 36.8214 5.41271C36.9926 5.41271 37.1791 5.35951 37.3803 5.25235C37.5815 5.14597 37.7882 5.00874 38.0009 4.84222C38.2129 4.6757 38.4165 4.50301 38.61 4.32416C38.8035 4.1453 38.9754 3.98109 39.1242 3.8323C39.1535 3.80224 39.1727 3.78759 39.1797 3.78759C39.2244 3.79221 39.2822 3.80224 39.3531 3.81765C39.4241 3.8323 39.4857 3.85234 39.5374 3.87701C39.5898 3.90168 39.616 3.93406 39.616 3.97415C39.616 4.01887 39.5821 4.07977 39.515 4.15686C39.448 4.23395 39.3732 4.32184 39.2915 4.42129C39.209 4.52074 39.135 4.62173 39.0679 4.7235C39.0008 4.82526 38.9677 4.92085 38.9677 5.01028C38.9677 5.08506 38.997 5.1583 39.0571 5.23C39.1165 5.30247 39.2136 5.33793 39.3477 5.33793C39.549 5.33793 39.8134 5.24002 40.141 5.04343C40.4687 4.84761 40.801 4.55312 41.1363 4.15995L41.2481 4.23473C41.0916 4.50301 40.8904 4.73891 40.6445 4.94244C40.3985 5.14596 40.1356 5.30555 39.8566 5.41964C39.5775 5.53374 39.303 5.59079 39.0347 5.59079C38.7588 5.59079 38.556 5.53606 38.4257 5.42659C38.2954 5.31711 38.2299 5.19839 38.2299 5.06887C38.2299 5.03881 38.2338 5.00566 38.2415 4.96865C38.2484 4.93165 38.2561 4.8931 38.2638 4.85301C37.9431 5.14134 37.6509 5.3572 37.3865 5.50136C37.1213 5.64476 36.8507 5.71646 36.5755 5.71646Z" fill="#3C4242"/>
<path d="M42.0862 5.74652C41.7362 5.74652 41.4587 5.69564 41.2536 5.59387C41.0486 5.49211 40.9036 5.36645 40.8173 5.21766C40.7317 5.06887 40.6885 4.91931 40.6885 4.77052C40.6885 4.62173 40.7186 4.50686 40.778 4.42746C40.8381 4.34805 40.9106 4.28869 40.9962 4.2486C41.0817 4.20851 41.1634 4.17922 41.2421 4.15917C41.3207 4.13913 41.3739 4.11908 41.404 4.09981C41.6275 3.9356 41.8326 3.76446 42.0192 3.5856C42.2057 3.40675 42.3692 3.21786 42.511 3.01896V2.92954C42.511 2.74606 42.5573 2.615 42.6506 2.53791C42.7439 2.46081 42.8425 2.42227 42.9466 2.42227C43.006 2.42227 43.0507 2.43229 43.0807 2.45233C43.1108 2.47238 43.1255 2.49473 43.1255 2.5194C43.1255 2.54407 43.1147 2.58416 43.0923 2.6389C43.07 2.69363 43.0584 2.76302 43.0584 2.84782C43.0584 3.01203 43.107 3.18934 43.2033 3.38053C43.3005 3.57172 43.3968 3.77294 43.494 3.98417C43.5903 4.19541 43.6389 4.41512 43.6389 4.64331C43.6389 4.70807 43.6335 4.77129 43.6219 4.83297C43.6111 4.89541 43.5942 4.95323 43.5718 5.00797C43.8324 4.9779 44.0783 4.90003 44.3096 4.7736C44.5409 4.64717 44.7645 4.44441 44.9803 4.16611L45.0805 4.24089C44.9387 4.5138 44.7267 4.72118 44.4438 4.86303C44.1608 5.00488 43.8509 5.09277 43.5155 5.12746C43.3961 5.34101 43.2079 5.4975 42.9512 5.59695C42.6953 5.69718 42.4062 5.74652 42.0862 5.74652ZM42.1086 5.48594C42.198 5.48594 42.3175 5.4659 42.4663 5.42658C42.6151 5.38649 42.7307 5.28473 42.8132 5.12129C42.5002 5.08198 42.2227 4.99949 41.9806 4.87537C41.7386 4.75125 41.5574 4.62712 41.4387 4.50301C41.2745 4.5084 41.1927 4.59475 41.1927 4.76358C41.1927 4.94244 41.2729 5.10741 41.4333 5.25929C41.5921 5.40962 41.818 5.48594 42.1086 5.48594ZM42.8687 5.00103C42.8834 4.95169 42.895 4.89927 42.9019 4.84453C42.9096 4.7898 42.9135 4.72504 42.9135 4.65103C42.9135 4.41744 42.8703 4.18538 42.7847 3.9541C42.6991 3.72282 42.6267 3.50542 42.5665 3.3019C42.3954 3.49078 42.2142 3.67118 42.0246 3.84232C41.8349 4.01347 41.6538 4.15686 41.4826 4.27096C41.5944 4.42977 41.7679 4.57933 42.0022 4.7181C42.2373 4.85764 42.5257 4.95169 42.8687 5.00103Z" fill="#3C4242"/>
<path d="M45.942 5.74652C45.592 5.74652 45.3145 5.69564 45.1094 5.59387C44.9043 5.49211 44.7594 5.36645 44.6731 5.21766C44.5875 5.06887 44.5443 4.91931 44.5443 4.77052C44.5443 4.62173 44.5744 4.50686 44.6338 4.42746C44.6939 4.34805 44.7664 4.28869 44.8519 4.2486C44.9375 4.20851 45.0192 4.17922 45.0979 4.15917C45.1765 4.13913 45.2297 4.11908 45.2597 4.09981C45.4833 3.9356 45.6884 3.76446 45.8749 3.5856C46.0615 3.40675 46.225 3.21786 46.3668 3.01896V2.92954C46.3668 2.74606 46.4131 2.615 46.5063 2.53791C46.5996 2.46081 46.6983 2.42227 46.8024 2.42227C46.8617 2.42227 46.9065 2.43229 46.9365 2.45233C46.9666 2.47238 46.9812 2.49473 46.9812 2.5194C46.9812 2.54407 46.9704 2.58416 46.9481 2.6389C46.9257 2.69363 46.9142 2.76302 46.9142 2.84782C46.9142 3.01203 46.9627 3.18934 47.0591 3.38053C47.1562 3.57172 47.2526 3.77294 47.3497 3.98417C47.4461 4.19541 47.4947 4.41512 47.4947 4.64331C47.4947 4.70807 47.4893 4.77129 47.4777 4.83297C47.4669 4.89541 47.45 4.95323 47.4276 5.00797C47.6882 4.9779 47.9341 4.90003 48.1654 4.7736C48.3967 4.64717 48.6202 4.44441 48.8361 4.16611L48.9363 4.24089C48.7945 4.5138 48.5825 4.72118 48.2995 4.86303C48.0166 5.00488 47.7067 5.09277 47.3713 5.12746C47.2518 5.34101 47.0637 5.4975 46.807 5.59695C46.5518 5.69718 46.2627 5.74652 45.942 5.74652ZM45.9644 5.48594C46.0538 5.48594 46.1733 5.4659 46.3221 5.42658C46.4709 5.38649 46.5865 5.28473 46.669 5.12129C46.356 5.08198 46.0785 4.99949 45.8364 4.87537C45.5943 4.75125 45.4132 4.62712 45.2944 4.50301C45.1302 4.5084 45.0485 4.59475 45.0485 4.76358C45.0485 4.94244 45.1287 5.10741 45.289 5.25929C45.4486 5.40962 45.6737 5.48594 45.9644 5.48594ZM46.7245 5.00103C46.7392 4.95169 46.7507 4.89927 46.7577 4.84453C46.7654 4.7898 46.7692 4.72504 46.7692 4.65103C46.7692 4.41744 46.7261 4.18538 46.6405 3.9541C46.5549 3.72282 46.4824 3.50542 46.4223 3.3019C46.2512 3.49078 46.07 3.67118 45.8803 3.84232C45.6907 4.01347 45.5095 4.15686 45.3384 4.27096C45.4502 4.42977 45.6236 4.57933 45.858 4.7181C46.0931 4.85764 46.3822 4.95169 46.7245 5.00103Z" fill="#3C4242"/>
<path d="M49.1062 7.45336C48.9196 7.45336 48.7562 7.42021 48.6143 7.35314C48.4725 7.28607 48.4016 7.18816 48.4016 7.05864C48.4016 6.89983 48.4617 6.75798 48.5804 6.63386C48.6992 6.50974 48.8595 6.39564 49.0615 6.2908C49.2627 6.18672 49.4932 6.08727 49.7546 5.99245C50.0151 5.89839 50.2873 5.80357 50.5702 5.70952C50.6743 5.52604 50.7807 5.32097 50.8886 5.09509C50.9965 4.86921 51.0991 4.61942 51.1962 4.34651C50.958 4.60477 50.7028 4.8268 50.4307 5.01337C50.1585 5.19993 49.8694 5.29245 49.5641 5.29245C49.4223 5.29245 49.2827 5.27163 49.1447 5.22923C49.0067 5.18683 48.8934 5.1213 48.804 5.03187C48.7146 4.94244 48.6699 4.82834 48.6699 4.68881C48.6699 4.55004 48.7053 4.38814 48.7762 4.20466C48.8472 4.02118 48.9343 3.84233 49.0391 3.6681C49.1432 3.49464 49.2511 3.35047 49.3637 3.2356C49.4763 3.12073 49.5726 3.06446 49.6543 3.06446C49.6844 3.06446 49.7384 3.07216 49.8162 3.08681C49.8949 3.10146 49.9689 3.12305 50.0398 3.15003C50.1107 3.17778 50.1462 3.20631 50.1462 3.2356C50.0791 3.30036 50.0043 3.3921 49.9226 3.51159C49.8401 3.63109 49.7607 3.76369 49.6821 3.91016C49.6042 4.05664 49.5387 4.19927 49.4863 4.33881C49.4338 4.47757 49.4084 4.59706 49.4084 4.69651C49.4084 4.78594 49.4377 4.85764 49.4978 4.91237C49.5572 4.96711 49.662 4.9941 49.8108 4.9941C49.9519 4.9941 50.1107 4.94861 50.2857 4.8561C50.4607 4.76436 50.6357 4.64641 50.8115 4.50224C50.9865 4.35808 51.1484 4.20389 51.298 4.04045C51.3203 3.98572 51.3404 3.93021 51.3596 3.87316C51.3781 3.81611 51.3951 3.75752 51.4097 3.69816C51.4321 3.62877 51.4861 3.54783 51.5716 3.45609C51.6572 3.36435 51.7937 3.31809 51.9795 3.31809C52.0165 3.31809 52.0535 3.31964 52.0912 3.32195C52.1282 3.32426 52.1691 3.33043 52.2138 3.34045C52.2138 3.41986 52.1784 3.56787 52.1074 3.78374C52.0365 3.9996 51.9355 4.25246 51.8052 4.54002C51.6749 4.82835 51.52 5.12361 51.3411 5.42659C51.6911 5.33716 52.0342 5.18914 52.3695 4.9833C52.7049 4.77746 52.977 4.50224 53.1852 4.15995L53.3301 4.23473C53.2183 4.47294 53.0487 4.68033 52.8213 4.85687C52.5939 5.03341 52.3387 5.18452 52.0558 5.31172C51.7728 5.43815 51.493 5.54377 51.217 5.62857C51.0235 5.94619 50.813 6.24454 50.5856 6.52285C50.3582 6.80115 50.12 7.02626 49.8702 7.19741C49.622 7.36779 49.3668 7.45336 49.1062 7.45336ZM49.0499 7.21437C49.1617 7.21437 49.3498 7.11647 49.6142 6.91988C49.8787 6.72329 50.1601 6.37946 50.4584 5.8876C50.1531 5.99707 49.8694 6.10501 49.6088 6.21216C49.3483 6.31855 49.1393 6.43419 48.9829 6.55908C48.8264 6.6832 48.7485 6.82737 48.7485 6.99157C48.7485 7.03166 48.7709 7.07869 48.8156 7.13343C48.8603 7.18739 48.9381 7.21437 49.0499 7.21437Z" fill="#3C4242"/>
<path d="M53.4202 5.44123C53.3231 5.44123 53.2398 5.42504 53.1689 5.39267C53.098 5.36029 53.0625 5.3094 53.0625 5.24002C53.0625 5.18528 53.0957 5.1344 53.1627 5.08738C53.2298 5.04035 53.3138 5.00257 53.4141 4.97559C53.5143 4.94861 53.613 4.93473 53.7101 4.93473C53.7995 4.93473 53.8705 4.94707 53.9221 4.97174C53.9738 4.99641 54 5.04421 54 5.11359C54 5.1637 53.9722 5.21304 53.9159 5.26238C53.8597 5.31172 53.7872 5.35412 53.6978 5.38881C53.6083 5.4235 53.5174 5.44123 53.4202 5.44123Z" fill="#3C4242"/>
</svg>
