<svg width="54" height="8" viewBox="0 0 54 8" fill="none" xmlns="http://www.w3.org/2000/svg">
<path d="M5.19761 6.01501C5.0334 6.01501 4.84375 5.95025 4.62712 5.8215C4.41126 5.69199 4.18152 5.52084 3.93945 5.30729C3.69738 5.09375 3.45916 4.86169 3.22403 4.61037C2.98967 4.35982 2.77304 4.11004 2.57568 3.86103C2.37832 3.61279 2.21257 3.39153 2.07843 3.19802L0.994499 5.5378C0.942076 5.6519 0.860357 5.73284 0.748572 5.77987C0.636788 5.8269 0.515752 5.85542 0.385465 5.86545C0.255178 5.87547 0.126433 5.88009 0 5.88009C0.0963662 5.74133 0.195816 5.58174 0.296037 5.40289C0.397029 5.22403 0.515751 5.00817 0.653747 4.75453C0.791744 4.5009 0.953641 4.1933 1.14021 3.83019C1.32677 3.46785 1.54803 3.03382 1.80552 2.52963C2.06224 2.02544 2.36598 1.43337 2.71676 0.752637C2.73911 0.712549 2.76918 0.657043 2.80618 0.585346C2.84319 0.51365 2.86246 0.44735 2.86246 0.387988C2.86246 0.333252 2.84396 0.29008 2.80618 0.257701C2.76918 0.225322 2.69825 0.209132 2.59418 0.209132C2.41532 0.209132 2.24186 0.257701 2.07457 0.354067C1.90728 0.450434 1.75772 0.573781 1.62743 0.723341C1.49714 0.872131 1.39461 1.02632 1.31983 1.18513C1.24505 1.34394 1.20805 1.48579 1.20805 1.60991C1.20805 1.70474 1.22655 1.78876 1.26355 1.86354C1.01763 1.86354 0.844168 1.82269 0.743947 1.74097C0.642955 1.65925 0.592845 1.55826 0.592845 1.43876C0.592845 1.26993 0.666854 1.1011 0.816415 0.932265C0.965204 0.763431 1.15717 0.6077 1.3923 0.46662C1.62743 0.324769 1.87336 0.212216 2.13008 0.127414C2.3868 0.0433824 2.61962 0.000980116 2.82854 0.000980116C3.02976 0.000980116 3.16544 0.0379857 3.23636 0.112766C3.30729 0.187546 3.34275 0.269265 3.34275 0.358693C3.34275 0.413429 3.3335 0.468165 3.315 0.522901C3.2965 0.577637 3.27568 0.630058 3.25332 0.679398L2.31433 2.70617C2.41841 2.60672 2.55486 2.51498 2.72215 2.43018C2.88945 2.34615 3.07447 2.24901 3.27568 2.13954C3.61104 1.96068 3.97029 1.75176 4.35421 1.51354C4.73813 1.27533 5.1051 1.024 5.4551 0.761116C5.8051 0.497458 6.09574 0.244594 6.32702 0.000980116C6.36403 0.0310464 6.39024 0.0826962 6.40566 0.157476C6.4203 0.232257 6.42802 0.289308 6.42802 0.328625C6.42802 0.482811 6.33319 0.651646 6.14277 0.835127C5.95235 1.01861 5.70488 1.20902 5.39959 1.40484C5.09431 1.60143 4.75895 1.79493 4.39353 1.98612C4.02811 2.17732 3.66886 2.35771 3.315 2.52655C2.96114 2.69538 2.64198 2.84185 2.35905 2.96597C2.58262 3.21961 2.80079 3.46014 3.01279 3.68911C3.2248 3.9173 3.45608 4.14087 3.70586 4.35982C3.95564 4.57876 4.24782 4.80233 4.58318 5.03053C4.91853 5.25872 5.32481 5.50465 5.80125 5.76831C5.74883 5.83307 5.66711 5.89011 5.55532 5.93945C5.44354 5.99033 5.32404 6.01501 5.19761 6.01501Z" fill="#3C4242"/>
<path d="M11.1779 5.73181C10.7231 5.73181 10.3862 5.64008 10.1665 5.45582C9.94676 5.27234 9.83652 5.05108 9.83652 4.79282C9.51581 5.07575 9.14731 5.29701 8.73024 5.45582C8.31316 5.61464 7.89146 5.69404 7.46745 5.69404C7.0126 5.69404 6.67185 5.61078 6.44443 5.44426C6.217 5.27774 6.10367 5.07267 6.10367 4.82983C6.10367 4.60626 6.18771 4.37035 6.355 4.12211C6.52306 3.87387 6.74663 3.64028 7.02571 3.42134C7.30478 3.20317 7.61239 3.02508 7.94774 2.88862C8.28309 2.75217 8.61459 2.68356 8.94301 2.68356C9.11416 2.68356 9.27297 2.71362 9.4179 2.77298C9.56361 2.83235 9.63608 2.95416 9.63608 3.13841C9.63608 3.32729 9.55205 3.5046 9.38475 3.67112C9.21746 3.83764 8.99698 3.98566 8.72561 4.1144C8.45347 4.24392 8.15512 4.34877 7.83133 4.43126C7.50754 4.51375 7.18452 4.56386 6.86458 4.5839C6.84994 4.63401 6.83837 4.68104 6.83066 4.72575C6.82295 4.77047 6.8191 4.81287 6.8191 4.85219C6.8191 4.95164 6.84531 5.04954 6.89773 5.14668C6.94939 5.24382 7.03881 5.32322 7.16602 5.3849C7.29245 5.44734 7.47131 5.47818 7.70259 5.47818C8.0973 5.47818 8.48893 5.3849 8.87671 5.1991C9.26372 5.01254 9.60293 4.7828 9.89357 4.50989C9.96064 4.30637 10.0801 4.10284 10.2513 3.89854C10.4224 3.69502 10.6298 3.51 10.8719 3.34347C11.1139 3.17695 11.3768 3.04281 11.6598 2.94105C11.9427 2.83929 12.2303 2.7884 12.5209 2.7884C12.692 2.7884 12.8509 2.81847 12.9958 2.87783C13.1407 2.9372 13.214 3.059 13.214 3.24325C13.214 3.49689 13.0852 3.71892 12.8285 3.91011C12.5718 4.1013 12.2418 4.25394 11.8394 4.36881C11.437 4.48291 11.0238 4.55537 10.599 4.58467C10.5843 4.63478 10.5728 4.68181 10.565 4.72652C10.5573 4.77124 10.5535 4.81364 10.5535 4.85296C10.5535 4.95241 10.5774 5.05417 10.626 5.15824C10.6745 5.26232 10.7601 5.34789 10.8827 5.41496C11.006 5.48203 11.1826 5.51518 11.4138 5.51518C11.7346 5.51518 12.0545 5.45197 12.3752 5.32554C12.6959 5.1991 12.9935 5.03258 13.2695 4.82597C13.5455 4.62013 13.776 4.39734 13.9625 4.15912L14.0967 4.22619C13.8955 4.52454 13.6364 4.78666 13.3196 5.01254C13.0027 5.23842 12.6604 5.41496 12.2912 5.5414C11.9211 5.6686 11.5503 5.73181 11.1779 5.73181ZM6.91932 4.44205C7.12053 4.39734 7.34796 4.33181 7.60082 4.24469C7.85446 4.15758 8.09807 4.05504 8.33321 3.93555C8.56834 3.81605 8.76184 3.685 8.91448 3.54083C9.06713 3.39667 9.14345 3.24557 9.14345 3.08599C9.14345 3.03125 9.1288 2.98885 9.09874 2.95955C9.06867 2.92949 9.00545 2.91484 8.90909 2.91484C8.73023 2.91484 8.53981 2.96109 8.3386 3.05283C8.13739 3.14457 7.94388 3.26484 7.75732 3.4144C7.57075 3.56319 7.40346 3.7274 7.2539 3.90625C7.10511 4.08434 6.99333 4.26319 6.91932 4.44205ZM10.6529 4.44205C10.8541 4.39734 11.0739 4.33797 11.3129 4.26319C11.5511 4.18841 11.7785 4.10053 11.9951 3.99876C12.211 3.897 12.3898 3.78059 12.5317 3.64876C12.6728 3.51694 12.7437 3.372 12.7437 3.21319C12.7437 3.15845 12.7252 3.1122 12.6874 3.07519C12.6504 3.03819 12.5833 3.01968 12.4862 3.01968C12.248 3.01968 12.0075 3.08907 11.7654 3.22861C11.5233 3.36737 11.3036 3.54546 11.1055 3.76132C10.9081 3.97641 10.757 4.20383 10.6529 4.44205Z" fill="#3C4242"/>
<path d="M13.0233 7.45341C12.9639 7.45341 12.9061 7.43259 12.8498 7.39019C12.7935 7.34779 12.7511 7.30308 12.721 7.25605C12.691 7.20902 12.6763 7.1805 12.6763 7.17048C12.7804 6.92687 12.8829 6.70946 12.9839 6.51827C13.0849 6.32708 13.1851 6.13049 13.2861 5.92928C13.3864 5.72807 13.4858 5.49216 13.5822 5.22157C13.6793 4.95097 13.7795 4.61407 13.8844 4.21165C13.9885 3.80922 14.0933 3.30966 14.1974 2.71373C14.2051 2.66902 14.2197 2.63664 14.2421 2.61659C14.2645 2.59655 14.32 2.58653 14.4094 2.58653C14.6029 2.58653 14.7409 2.62276 14.8234 2.69446C14.9051 2.76616 14.946 2.84479 14.946 2.92882C14.946 2.9982 14.9236 3.12232 14.8789 3.30118C14.8342 3.48004 14.771 3.69127 14.6892 3.93488C14.8157 3.77067 14.9745 3.60416 15.1641 3.43532C15.3538 3.26649 15.5719 3.12464 15.8179 3.01054C16.0638 2.89644 16.3321 2.83939 16.6227 2.83939C16.9504 2.83939 17.221 2.91803 17.433 3.07376C17.645 3.23025 17.7514 3.43532 17.7514 3.68896C17.7514 3.88246 17.6858 4.08753 17.5555 4.30339C17.4253 4.51925 17.2426 4.72355 17.0082 4.91474C16.7738 5.10593 16.4955 5.26165 16.1756 5.38038C15.8549 5.49987 15.501 5.55923 15.114 5.55923C14.9197 5.55923 14.764 5.54459 14.6445 5.51452C14.525 5.48446 14.4657 5.45516 14.4657 5.42509C14.4657 5.40505 14.4934 5.39425 14.5497 5.39117C14.606 5.38886 14.6707 5.38732 14.7455 5.38732C15.0439 5.38732 15.3283 5.33875 15.6005 5.24161C15.8726 5.14447 16.1162 5.0165 16.3329 4.85769C16.5487 4.69888 16.7183 4.52234 16.8417 4.32883C16.9642 4.13533 17.0259 3.94414 17.0259 3.75526C17.0259 3.59645 16.9758 3.46076 16.8748 3.34898C16.7746 3.23719 16.6119 3.18169 16.3884 3.18169C16.1949 3.18169 16.0029 3.22254 15.8125 3.30426C15.6221 3.38598 15.4432 3.49083 15.2759 3.61726C15.1078 3.74369 14.9591 3.87552 14.8288 4.01198C14.6985 4.14843 14.5998 4.27178 14.5327 4.38048C14.3986 4.75284 14.2644 5.11209 14.1303 5.45747C13.9962 5.80285 13.8674 6.11584 13.7448 6.39646C13.6215 6.67708 13.5105 6.90682 13.4095 7.08567C13.3093 7.26453 13.2252 7.374 13.1582 7.41332C13.1196 7.44107 13.0749 7.45341 13.0233 7.45341Z" fill="#3C4242"/>
<path d="M21.8094 5.55991C21.5187 5.55991 21.3021 5.49901 21.161 5.3772C21.0192 5.25539 20.949 5.10738 20.949 4.93392C20.949 4.81982 20.9806 4.67566 21.0438 4.50143C21.107 4.32797 21.1911 4.14525 21.2952 3.95406C21.3992 3.76287 21.5203 3.58248 21.6583 3.41364C21.7963 3.24481 21.9435 3.10681 22.1 2.99965C22.2565 2.89326 22.4091 2.8393 22.5587 2.8393C22.6258 2.8393 22.6836 2.85317 22.7322 2.88016C22.7807 2.90714 22.8046 2.94877 22.8046 3.00274C22.8046 3.0621 22.7468 3.15923 22.6312 3.29337C22.5155 3.42752 22.3799 3.58171 22.2234 3.75517C22.0669 3.9294 21.9312 4.11133 21.8155 4.30252C21.6999 4.49371 21.6421 4.67642 21.6421 4.85065C21.6421 5.02951 21.6868 5.14901 21.7762 5.20837C21.8656 5.26773 22.0036 5.29779 22.1902 5.29779C22.4438 5.29779 22.7137 5.21376 23.0005 5.04416C23.2872 4.87532 23.591 4.58006 23.9117 4.15759L24.0119 4.23237C23.796 4.65947 23.4846 4.98788 23.0783 5.21607C22.6713 5.44581 22.2488 5.55991 21.8094 5.55991ZM23.15 2.147C23.0305 2.147 22.9249 2.12696 22.8316 2.08764C22.7383 2.04756 22.6921 1.98588 22.6921 1.90107C22.6921 1.797 22.783 1.70603 22.9658 1.62894C23.1485 1.55185 23.3289 1.5133 23.5077 1.5133C23.6195 1.5133 23.7089 1.53103 23.776 1.56572C23.8431 1.60041 23.8762 1.66055 23.8762 1.74458C23.8762 1.83863 23.7999 1.9296 23.6473 2.01671C23.4954 2.10383 23.3296 2.147 23.15 2.147Z" fill="#3C4242"/>
<path d="M24.6476 5.70949C24.3269 5.70949 24.081 5.64704 23.9099 5.52292C23.7387 5.3988 23.6531 5.21532 23.6531 4.97171C23.6531 4.75353 23.7148 4.48371 23.8374 4.163C23.96 3.8423 24.1149 3.51388 24.3015 3.17544C24.2267 3.16542 24.1566 3.15694 24.0895 3.14923C24.0224 3.14152 23.9592 3.13073 23.8998 3.11608V2.98194C23.9592 2.98656 24.0301 2.99196 24.1119 2.99658C24.1936 3.00121 24.2869 3.00661 24.3909 3.01123C24.5474 2.74295 24.7155 2.48315 24.8936 2.2326C25.0724 1.98204 25.2497 1.75847 25.4247 1.56189C25.5997 1.36607 25.7678 1.2088 25.9282 1.09239C26.0885 0.975976 26.2242 0.917389 26.336 0.917389C26.3953 0.917389 26.4493 0.931263 26.4979 0.958246C26.5465 0.985228 26.5703 1.02686 26.5703 1.08083C26.5703 1.16563 26.4925 1.30285 26.336 1.49481C26.1795 1.68601 25.986 1.91343 25.7547 2.17631C25.5234 2.43997 25.2999 2.72522 25.084 3.03359C25.1511 3.03359 25.2197 3.03359 25.2906 3.03359C25.3615 3.03359 25.4301 3.03359 25.4972 3.03359C25.7431 3.03359 26.0022 3.03128 26.2743 3.02588C26.5464 3.02126 26.8201 3.00815 27.0961 2.98888V3.12302C26.686 3.15308 26.319 3.17544 25.9952 3.19009C25.6714 3.20474 25.3823 3.21244 25.1287 3.21244C25.0986 3.21244 25.0709 3.21244 25.0447 3.21244C25.0185 3.21244 24.9907 3.21244 24.9606 3.21244C24.7895 3.4761 24.6438 3.7467 24.5251 4.02501C24.4056 4.30331 24.3462 4.57391 24.3462 4.83757C24.3462 5.05111 24.3948 5.20376 24.4912 5.2955C24.5875 5.38724 24.7479 5.43349 24.9722 5.43349C25.36 5.43349 25.7401 5.3194 26.1124 5.09043C26.4848 4.86224 26.8124 4.55155 27.0961 4.15915L27.2411 4.23393C27.0622 4.51223 26.8363 4.76279 26.565 4.98636C26.2928 5.20992 25.9929 5.38647 25.6653 5.51521C25.3369 5.64473 24.9984 5.70949 24.6476 5.70949Z" fill="#3C4242"/>
<path d="M30.9863 5.78343C30.6286 5.78343 30.3302 5.70402 30.092 5.54521C29.8538 5.3864 29.7343 5.14818 29.7343 4.82979C29.7343 4.58155 29.8067 4.33948 29.9525 4.1028C30.0974 3.8669 30.2894 3.65489 30.5283 3.46602C30.7666 3.27714 31.031 3.1268 31.3216 3.01502C31.6123 2.90323 31.8991 2.84773 32.1828 2.84773C32.488 2.84773 32.697 2.90709 32.8087 3.02658C32.9205 3.14608 32.976 3.2702 32.976 3.39894C32.976 3.54311 32.9259 3.66954 32.8249 3.77901C32.7247 3.88848 32.5883 3.94322 32.4171 3.94322C32.2907 3.94322 32.1828 3.90622 32.0926 3.83144C32.2043 3.79212 32.3015 3.71117 32.3832 3.58936C32.4649 3.46756 32.5065 3.35192 32.5065 3.24244C32.5065 3.18308 32.4896 3.13683 32.4564 3.10445C32.4225 3.07207 32.3578 3.05588 32.2606 3.05588C32.0594 3.05588 31.8528 3.11524 31.64 3.23474C31.428 3.35423 31.2299 3.50764 31.0479 3.69652C30.8652 3.8854 30.7164 4.0843 30.6008 4.29245C30.4852 4.50137 30.4273 4.69719 30.4273 4.88144C30.4273 5.03563 30.4836 5.17671 30.5954 5.30622C30.7072 5.43497 30.9231 5.49973 31.2438 5.49973C31.5421 5.49973 31.842 5.44499 32.1434 5.33552C32.4449 5.22605 32.7263 5.06955 32.9876 4.86602C33.2482 4.6625 33.4571 4.42351 33.6136 4.1506L33.7585 4.22538C33.5874 4.52373 33.3523 4.79047 33.0547 5.02638C32.7563 5.26228 32.4287 5.44731 32.071 5.58145C31.7125 5.71636 31.3509 5.78343 30.9863 5.78343Z" fill="#3C4242"/>
<path d="M34.3285 5.59001C34.0078 5.59001 33.7788 5.51677 33.6408 5.3703C33.5028 5.22382 33.4342 5.04111 33.4342 4.82294C33.4342 4.58472 33.5013 4.30102 33.6354 3.97337C33.7696 3.64573 33.9469 3.30035 34.1666 2.93724C34.3863 2.5749 34.6268 2.22105 34.8874 1.8749C35.148 1.52953 35.4086 1.21576 35.6699 0.932057C35.9305 0.649125 36.171 0.422468 36.3907 0.253634C36.6104 0.0848006 36.7839 0 36.9103 0C36.9921 0 37.0591 0.0308389 37.1116 0.0932842C37.164 0.15573 37.2048 0.229736 37.2349 0.316851C37.2642 0.403966 37.2796 0.481833 37.2796 0.551217C37.2796 0.685359 37.2295 0.860356 37.1285 1.07699C37.0283 1.29285 36.8864 1.53415 36.7037 1.80012C36.521 2.06609 36.3052 2.33437 36.0554 2.60497C35.8056 2.87557 35.5335 3.13537 35.2397 3.38361C34.9452 3.63185 34.6346 3.8454 34.3061 4.02426C34.2614 4.1584 34.226 4.28869 34.1998 4.41589C34.1735 4.54232 34.1604 4.66335 34.1604 4.77745C34.1604 4.97095 34.2013 5.11512 34.283 5.20995C34.3647 5.304 34.4881 5.3518 34.6523 5.3518C34.8535 5.3518 35.0532 5.29243 35.2505 5.17294C35.4479 5.05344 35.6345 4.90312 35.8095 4.72195C35.9845 4.54078 36.1356 4.35344 36.262 4.15917L36.4293 4.21853C36.1309 4.641 35.8071 4.97481 35.4564 5.22074C35.1071 5.46743 34.7309 5.59001 34.3285 5.59001ZM34.4071 3.77139C34.6677 3.59716 34.9213 3.39749 35.1673 3.17161C35.4132 2.94573 35.6422 2.71059 35.8549 2.46775C36.0677 2.22413 36.2558 1.98823 36.4193 1.76003C36.5827 1.53184 36.7099 1.32677 36.7993 1.1456C36.8888 0.964432 36.9335 0.824126 36.9335 0.724676C36.9335 0.675337 36.9242 0.642957 36.9057 0.627538C36.8872 0.612891 36.8702 0.605178 36.8556 0.605178C36.7962 0.605178 36.6937 0.668396 36.548 0.794829C36.4031 0.921261 36.2335 1.09164 36.0392 1.30518C35.8457 1.51873 35.6483 1.76235 35.4471 2.03526C35.2459 2.30817 35.0539 2.59418 34.8712 2.89253C34.6877 3.19011 34.5336 3.48383 34.4071 3.77139Z" fill="#3C4242"/>
<path d="M36.5755 5.71661C36.3442 5.71661 36.1484 5.66572 35.9888 5.56396C35.8284 5.4622 35.7483 5.30724 35.7483 5.09832C35.7483 4.91947 35.8076 4.72673 35.9271 4.5209C36.0459 4.31506 36.2101 4.11076 36.419 3.90955C36.6279 3.70834 36.8646 3.52485 37.129 3.35833C37.3934 3.19181 37.6725 3.05921 37.9678 2.95976C38.2623 2.86031 38.5545 2.81097 38.8451 2.81097C39.1357 2.81097 39.3778 2.86185 39.5713 2.96362C39.7648 3.06538 39.862 3.20106 39.862 3.3699C39.862 3.49402 39.8118 3.57882 39.7109 3.62353C39.6099 3.66825 39.478 3.6906 39.3138 3.6906C39.3285 3.65051 39.3416 3.60734 39.3531 3.56032C39.3647 3.51329 39.3701 3.47012 39.3701 3.43003C39.3701 3.31593 39.3292 3.21802 39.2475 3.13553C39.165 3.05381 39.024 3.01296 38.8227 3.01296C38.6138 3.01296 38.4018 3.06153 38.1852 3.15789C37.9693 3.25503 37.7604 3.38377 37.5592 3.54567C37.358 3.70756 37.1791 3.88256 37.0226 4.07144C36.8661 4.26032 36.7435 4.44689 36.6533 4.63037C36.5639 4.81385 36.5192 4.97806 36.5192 5.12222C36.5192 5.31572 36.6194 5.41286 36.8214 5.41286C36.9926 5.41286 37.1791 5.35967 37.3803 5.25251C37.5815 5.14612 37.7882 5.00889 38.0009 4.84237C38.2129 4.67585 38.4165 4.50317 38.61 4.32431C38.8035 4.14545 38.9754 3.98125 39.1242 3.83246C39.1535 3.80239 39.1727 3.78774 39.1797 3.78774C39.2244 3.79237 39.2822 3.80239 39.3531 3.81781C39.4241 3.83246 39.4857 3.8525 39.5374 3.87717C39.5898 3.90184 39.616 3.93422 39.616 3.9743C39.616 4.01902 39.5821 4.07992 39.515 4.15701C39.448 4.23411 39.3732 4.32199 39.2915 4.42144C39.209 4.52089 39.135 4.62189 39.0679 4.72365C39.0008 4.82541 38.9677 4.92101 38.9677 5.01043C38.9677 5.08521 38.997 5.15846 39.0571 5.23015C39.1165 5.30262 39.2136 5.33808 39.3477 5.33808C39.549 5.33808 39.8134 5.24017 40.141 5.04358C40.4687 4.84777 40.801 4.55328 41.1363 4.1601L41.2481 4.23488C41.0916 4.50316 40.8904 4.73907 40.6445 4.94259C40.3985 5.14612 40.1356 5.3057 39.8566 5.4198C39.5775 5.5339 39.303 5.59095 39.0347 5.59095C38.7588 5.59095 38.556 5.53621 38.4257 5.42674C38.2954 5.31727 38.2299 5.19854 38.2299 5.06903C38.2299 5.03896 38.2338 5.00581 38.2415 4.96881C38.2484 4.9318 38.2561 4.89325 38.2638 4.85317C37.9431 5.14149 37.6509 5.35735 37.3865 5.50152C37.1213 5.64491 36.8507 5.71661 36.5755 5.71661Z" fill="#3C4242"/>
<path d="M42.0862 5.74661C41.7362 5.74661 41.4587 5.69573 41.2536 5.59396C41.0486 5.4922 40.9036 5.36654 40.8173 5.21775C40.7317 5.06896 40.6885 4.9194 40.6885 4.77061C40.6885 4.62182 40.7186 4.50695 40.778 4.42755C40.8381 4.34814 40.9106 4.28878 40.9962 4.24869C41.0817 4.2086 41.1634 4.17931 41.2421 4.15927C41.3207 4.13922 41.3739 4.11918 41.404 4.0999C41.6275 3.93569 41.8326 3.76455 42.0192 3.58569C42.2057 3.40684 42.3692 3.21796 42.511 3.01906V2.92963C42.511 2.74615 42.5573 2.61509 42.6506 2.538C42.7439 2.4609 42.8425 2.42236 42.9466 2.42236C43.006 2.42236 43.0507 2.43238 43.0807 2.45242C43.1108 2.47247 43.1255 2.49483 43.1255 2.5195C43.1255 2.54417 43.1147 2.58425 43.0923 2.63899C43.07 2.69372 43.0584 2.76311 43.0584 2.84791C43.0584 3.01212 43.107 3.18943 43.2033 3.38062C43.3005 3.57181 43.3968 3.77303 43.494 3.98426C43.5903 4.1955 43.6389 4.41521 43.6389 4.64341C43.6389 4.70816 43.6335 4.77138 43.6219 4.83306C43.6111 4.8955 43.5942 4.95332 43.5718 5.00806C43.8324 4.97799 44.0783 4.90013 44.3096 4.77369C44.5409 4.64726 44.7645 4.44451 44.9803 4.1662L45.0805 4.24098C44.9387 4.51389 44.7267 4.72127 44.4438 4.86312C44.1608 5.00498 43.8509 5.09286 43.5155 5.12755C43.3961 5.3411 43.2079 5.4976 42.9512 5.59705C42.6953 5.69727 42.4062 5.74661 42.0862 5.74661ZM42.1086 5.48603C42.198 5.48603 42.3175 5.46599 42.4663 5.42667C42.6151 5.38659 42.7307 5.28482 42.8132 5.12138C42.5002 5.08207 42.2227 4.99958 41.9806 4.87546C41.7386 4.75134 41.5574 4.62722 41.4387 4.5031C41.2745 4.50849 41.1927 4.59484 41.1927 4.76367C41.1927 4.94253 41.2729 5.10751 41.4333 5.25938C41.5921 5.40971 41.818 5.48603 42.1086 5.48603ZM42.8687 5.00112C42.8834 4.95178 42.895 4.89936 42.9019 4.84462C42.9096 4.78989 42.9135 4.72513 42.9135 4.65112C42.9135 4.41753 42.8703 4.18547 42.7847 3.9542C42.6991 3.72292 42.6267 3.50552 42.5665 3.30199C42.3954 3.49087 42.2142 3.67127 42.0246 3.84241C41.8349 4.01356 41.6538 4.15695 41.4826 4.27105C41.5944 4.42986 41.7679 4.57942 42.0022 4.71819C42.2373 4.85773 42.5257 4.95178 42.8687 5.00112Z" fill="#3C4242"/>
<path d="M45.942 5.74661C45.592 5.74661 45.3145 5.69573 45.1094 5.59396C44.9043 5.4922 44.7594 5.36654 44.6731 5.21775C44.5875 5.06896 44.5443 4.9194 44.5443 4.77061C44.5443 4.62182 44.5744 4.50695 44.6338 4.42755C44.6939 4.34814 44.7664 4.28878 44.8519 4.24869C44.9375 4.2086 45.0192 4.17931 45.0979 4.15927C45.1765 4.13922 45.2297 4.11918 45.2597 4.0999C45.4833 3.93569 45.6884 3.76455 45.8749 3.58569C46.0615 3.40684 46.225 3.21796 46.3668 3.01906V2.92963C46.3668 2.74615 46.4131 2.61509 46.5063 2.538C46.5996 2.4609 46.6983 2.42236 46.8024 2.42236C46.8617 2.42236 46.9065 2.43238 46.9365 2.45242C46.9666 2.47247 46.9812 2.49483 46.9812 2.5195C46.9812 2.54417 46.9704 2.58425 46.9481 2.63899C46.9257 2.69372 46.9142 2.76311 46.9142 2.84791C46.9142 3.01212 46.9627 3.18943 47.0591 3.38062C47.1562 3.57181 47.2526 3.77303 47.3497 3.98426C47.4461 4.1955 47.4947 4.41521 47.4947 4.64341C47.4947 4.70816 47.4893 4.77138 47.4777 4.83306C47.4669 4.8955 47.45 4.95332 47.4276 5.00806C47.6882 4.97799 47.9341 4.90013 48.1654 4.77369C48.3967 4.64726 48.6202 4.44451 48.8361 4.1662L48.9363 4.24098C48.7945 4.51389 48.5825 4.72127 48.2995 4.86312C48.0166 5.00498 47.7067 5.09286 47.3713 5.12755C47.2518 5.3411 47.0637 5.4976 46.807 5.59705C46.5518 5.69727 46.2627 5.74661 45.942 5.74661ZM45.9644 5.48603C46.0538 5.48603 46.1733 5.46599 46.3221 5.42667C46.4709 5.38659 46.5865 5.28482 46.669 5.12138C46.356 5.08207 46.0785 4.99958 45.8364 4.87546C45.5943 4.75134 45.4132 4.62722 45.2944 4.5031C45.1302 4.50849 45.0485 4.59484 45.0485 4.76367C45.0485 4.94253 45.1287 5.10751 45.289 5.25938C45.4486 5.40971 45.6737 5.48603 45.9644 5.48603ZM46.7245 5.00112C46.7392 4.95178 46.7507 4.89936 46.7577 4.84462C46.7654 4.78989 46.7692 4.72513 46.7692 4.65112C46.7692 4.41753 46.7261 4.18547 46.6405 3.9542C46.5549 3.72292 46.4824 3.50552 46.4223 3.30199C46.2512 3.49087 46.07 3.67127 45.8803 3.84241C45.6907 4.01356 45.5095 4.15695 45.3384 4.27105C45.4502 4.42986 45.6236 4.57942 45.858 4.71819C46.0931 4.85773 46.3822 4.95178 46.7245 5.00112Z" fill="#3C4242"/>
<path d="M49.1062 7.45324C48.9196 7.45324 48.7562 7.42009 48.6143 7.35302C48.4725 7.28595 48.4016 7.18804 48.4016 7.05852C48.4016 6.89971 48.4617 6.75786 48.5804 6.63374C48.6992 6.50962 48.8595 6.39552 49.0615 6.29067C49.2627 6.1866 49.4932 6.08715 49.7546 5.99232C50.0151 5.89827 50.2873 5.80345 50.5702 5.70939C50.6743 5.52591 50.7807 5.32085 50.8886 5.09497C50.9965 4.86908 51.0991 4.6193 51.1962 4.34639C50.958 4.60465 50.7028 4.82668 50.4307 5.01325C50.1585 5.19981 49.8694 5.29232 49.5641 5.29232C49.4223 5.29232 49.2827 5.27151 49.1447 5.22911C49.0067 5.18671 48.8934 5.12118 48.804 5.03175C48.7146 4.94232 48.6699 4.82822 48.6699 4.68868C48.6699 4.54992 48.7053 4.38802 48.7762 4.20454C48.8472 4.02106 48.9343 3.8422 49.0391 3.66797C49.1432 3.49451 49.2511 3.35035 49.3637 3.23548C49.4763 3.12061 49.5726 3.06433 49.6543 3.06433C49.6844 3.06433 49.7384 3.07204 49.8162 3.08669C49.8949 3.10134 49.9689 3.12292 50.0398 3.14991C50.1107 3.17766 50.1462 3.20618 50.1462 3.23548C50.0791 3.30024 50.0043 3.39198 49.9226 3.51147C49.8401 3.63097 49.7607 3.76357 49.6821 3.91004C49.6042 4.05652 49.5387 4.19915 49.4863 4.33868C49.4338 4.47745 49.4084 4.59694 49.4084 4.69639C49.4084 4.78582 49.4377 4.85751 49.4978 4.91225C49.5572 4.96699 49.662 4.99397 49.8108 4.99397C49.9519 4.99397 50.1107 4.94849 50.2857 4.85597C50.4607 4.76423 50.6357 4.64628 50.8115 4.50212C50.9865 4.35796 51.1484 4.20377 51.298 4.04033C51.3203 3.98559 51.3404 3.93009 51.3596 3.87304C51.3781 3.81599 51.3951 3.7574 51.4097 3.69804C51.4321 3.62865 51.4861 3.54771 51.5716 3.45597C51.6572 3.36423 51.7937 3.31797 51.9795 3.31797C52.0165 3.31797 52.0535 3.31951 52.0912 3.32183C52.1282 3.32414 52.1691 3.33031 52.2138 3.34033C52.2138 3.41973 52.1784 3.56775 52.1074 3.78361C52.0365 3.99947 51.9355 4.25234 51.8052 4.53989C51.6749 4.82822 51.52 5.12349 51.3411 5.42646C51.6911 5.33704 52.0342 5.18902 52.3695 4.98318C52.7049 4.77734 52.977 4.50212 53.1852 4.15983L53.3301 4.2346C53.2183 4.47282 53.0487 4.6802 52.8213 4.85675C52.5939 5.03329 52.3387 5.18439 52.0558 5.3116C51.7728 5.43803 51.493 5.54365 51.217 5.62845C51.0235 5.94607 50.813 6.24442 50.5856 6.52272C50.3582 6.80103 50.12 7.02614 49.8702 7.19729C49.622 7.36766 49.3668 7.45324 49.1062 7.45324ZM49.0499 7.21425C49.1617 7.21425 49.3498 7.11634 49.6142 6.91976C49.8787 6.72317 50.1601 6.37933 50.4584 5.88748C50.1531 5.99695 49.8694 6.10488 49.6088 6.21204C49.3483 6.31843 49.1393 6.43407 48.9829 6.55896C48.8264 6.68308 48.7485 6.82724 48.7485 6.99145C48.7485 7.03154 48.7709 7.07857 48.8156 7.1333C48.8603 7.18727 48.9381 7.21425 49.0499 7.21425Z" fill="#3C4242"/>
<path d="M53.4202 5.44139C53.3231 5.44139 53.2398 5.4252 53.1689 5.39282C53.098 5.36044 53.0625 5.30955 53.0625 5.24017C53.0625 5.18544 53.0957 5.13456 53.1627 5.08753C53.2298 5.0405 53.3138 5.00273 53.4141 4.97574C53.5143 4.94876 53.613 4.93489 53.7101 4.93489C53.7995 4.93489 53.8705 4.94722 53.9221 4.97189C53.9738 4.99656 54 5.04436 54 5.11374C54 5.16385 53.9722 5.21319 53.9159 5.26253C53.8597 5.31187 53.7872 5.35427 53.6978 5.38896C53.6083 5.42366 53.5174 5.44139 53.4202 5.44139Z" fill="#3C4242"/>
</svg>
