<svg width="35" height="71" viewBox="0 0 35 71" fill="none" xmlns="http://www.w3.org/2000/svg">
<path d="M14.3806 71C14.1284 70.9988 13.8823 70.9224 13.6737 70.7804C13.4128 70.5896 13.2363 70.3046 13.1817 69.9858C13.1271 69.6669 13.1987 69.3394 13.3813 69.0725C32.637 41.7693 32.637 41.7693 31.5646 32.6927C30.7358 25.3728 26.909 18.9313 23.3991 13.417C19.8892 7.90274 14.3319 1.97364 10.7245 2.51043C8.28703 2.90082 6.7758 6.41436 6.0202 9.29351L5.31336 11.9287C3.46091 18.8581 1.31594 26.7148 3.11964 33.2783C4.45858 37.379 6.37945 41.2657 8.82327 44.8193C10.4986 47.407 11.997 50.1052 13.3081 52.8955C13.4374 53.1932 13.4433 53.5301 13.3244 53.8321C13.2056 54.1341 12.9718 54.3765 12.6744 54.5059C12.3771 54.6353 12.0405 54.6412 11.7388 54.5222C11.4371 54.4032 11.195 54.1692 11.0657 53.8715C9.79576 51.1824 8.34627 48.5821 6.72708 46.0881C4.15789 42.3318 2.1464 38.2224 0.755365 33.8883C-1.19458 26.6904 1.02345 18.4921 2.9734 11.2699L3.68028 8.65913C5.02087 3.43762 7.2633 0.558463 10.3345 0.0704719C16.6962 -0.92991 23.521 9.00071 25.471 12.0751C29.1271 17.8334 33.0758 24.6164 34.002 32.3755C35.172 42.3793 35.172 42.3793 15.38 70.4632C15.2709 70.6286 15.1224 70.7642 14.948 70.8579C14.7736 70.9516 14.5786 71.0004 14.3806 71Z" fill="#3C4242"/>
</svg>
