<svg width="18" height="15" viewBox="0 0 18 15" fill="none" xmlns="http://www.w3.org/2000/svg">
<path d="M16.1499 3.64342C16.1613 3.80332 16.1613 3.96324 16.1613 4.12313C16.1613 9.00006 12.4494 14.6194 5.66503 14.6194C3.5749 14.6194 1.63327 14.0141 0 12.9633C0.296968 12.9976 0.582475 13.009 0.890869 13.009C2.61548 13.009 4.20308 12.4265 5.47086 11.4329C3.84902 11.3986 2.48986 10.3364 2.02158 8.87445C2.25002 8.90869 2.47844 8.93154 2.71831 8.93154C3.04952 8.93154 3.38077 8.88584 3.68913 8.80593C1.99876 8.46326 0.730942 6.97849 0.730942 5.18532V5.13965C1.22204 5.41377 1.79316 5.58509 2.39846 5.60791C1.40479 4.94545 0.753793 3.81474 0.753793 2.53553C0.753793 1.85026 0.936502 1.22208 1.25632 0.673847C3.07234 2.91245 5.80208 4.37436 8.86299 4.53429C8.80589 4.26018 8.77162 3.97467 8.77162 3.68913C8.77162 1.65609 10.4163 0 12.4607 0C13.5229 0 14.4823 0.445435 15.1562 1.16499C15.9899 1.00509 16.7894 0.696699 17.4976 0.274116C17.2234 1.13074 16.641 1.85029 15.8758 2.30712C16.6182 2.22721 17.3377 2.02158 18.0001 1.73607C17.4977 2.46701 16.8695 3.11801 16.1499 3.64342Z" fill="#2A2F2F"/>
</svg>
