<svg width="241" height="200" viewBox="0 0 241 200" fill="none" xmlns="http://www.w3.org/2000/svg">
<path d="M46.4683 142.779H43.6808C36.1675 142.253 28.9095 139.832 22.5822 135.742C16.2548 131.652 11.0638 126.027 7.4922 119.389C7.47084 119.252 7.47084 119.113 7.4922 118.977L0.00240285 45.6753C-0.0111876 45.4532 0.0330428 45.2313 0.130761 45.0314C0.22848 44.8315 0.376331 44.6605 0.559886 44.5349C0.802274 44.3651 27.2226 26.5311 23.199 1.39368C23.1719 1.18109 23.2005 0.965095 23.282 0.766886C23.3634 0.568676 23.4948 0.395035 23.6634 0.262955C23.832 0.130874 24.032 0.0448861 24.2437 0.0134145C24.4555 -0.0180572 24.6718 0.00607359 24.8715 0.0834264C25.2108 0.0834264 59.2906 13.8896 79.4816 2.29143C79.6389 2.22537 79.8078 2.19134 79.9785 2.19134C80.1491 2.19134 80.318 2.22537 80.4754 2.29143C80.7962 2.41551 81.0568 2.65893 81.2025 2.97082C81.7115 4.15975 93.8067 32.5971 90.0497 55.575C89.1357 62.0116 86.4298 68.0606 82.2418 73.0297C78.0537 77.9988 72.5527 81.6871 66.3683 83.6726L68.7922 122.665C68.8915 125.283 68.4737 127.895 67.5628 130.352C66.6519 132.808 65.2658 135.061 63.4839 136.98C59.533 140.814 53.8369 142.779 46.4683 142.779ZM9.77065 118.516C13.1655 124.725 18.0662 129.979 24.0217 133.796C29.9772 137.612 36.7961 139.867 43.8505 140.353C51.825 140.863 57.812 139.14 61.666 135.282C64.7645 131.872 66.4236 127.394 66.2956 122.786L63.8717 82.8233C63.8581 82.5358 63.9451 82.2525 64.1176 82.0222C64.2901 81.7919 64.5375 81.629 64.8171 81.5616C70.8014 79.9051 76.1634 76.5157 80.23 71.8189C84.2965 67.1222 86.8864 61.3276 87.6743 55.1625C90.8738 35.5087 81.76 10.8809 79.4816 5.13032C60.8419 14.8359 33.4278 5.88249 25.8652 3.14067C28.2891 26.5311 6.47417 43.346 2.499 46.2091L9.77065 118.516Z" fill="#3C4242"/>
<path d="M66.4652 57.4918C64.4252 57.4763 62.39 57.2896 60.3812 56.9338C60.2252 56.9019 60.077 56.8396 59.9451 56.7505C59.8132 56.6613 59.7001 56.547 59.6123 56.414C59.5245 56.2811 59.4637 56.1321 59.4335 55.9757C59.4032 55.8192 59.404 55.6583 59.4359 55.5022C59.4646 55.3445 59.5249 55.1942 59.6132 55.0605C59.7014 54.9267 59.8158 54.8122 59.9494 54.7238C60.0829 54.6354 60.233 54.575 60.3905 54.5461C60.5481 54.5173 60.7098 54.5206 60.866 54.5559C60.866 54.5559 68.9375 56.1088 72.743 53.828C73.3248 50.6737 65.6895 40.1917 60.1146 33.7132C59.9024 33.4687 59.796 33.1498 59.8188 32.8267C59.8415 32.5036 59.9915 32.2028 60.2358 31.9905C60.4801 31.7781 60.7986 31.6716 61.1214 31.6943C61.4441 31.7171 61.7446 31.8672 61.9567 32.1118C64.3806 34.8779 76.0637 48.8781 75.2396 53.9493C75.193 54.3419 75.0574 54.7187 74.8431 55.0509C74.6289 55.3831 74.3417 55.662 74.0034 55.8662C71.6739 57.053 69.0762 57.6132 66.4652 57.4918Z" fill="#3C4242"/>
<path d="M57.6421 70.5458C56.171 70.548 54.7027 70.418 53.2549 70.1576C46.3854 68.9374 40.183 65.2861 35.7787 59.8697C35.6331 59.5861 35.6049 59.2566 35.7001 58.9524C35.7954 58.6481 36.0065 58.3937 36.2877 58.244C36.5717 58.0952 36.9023 58.0627 37.2098 58.1532C37.5173 58.2437 37.7776 58.4503 37.9359 58.7293C42.0156 63.507 47.6285 66.7152 53.8123 67.804C62.0051 69.1385 70.1493 66.1298 78.0512 58.8506C78.1647 58.7292 78.302 58.6324 78.4545 58.5663C78.6069 58.5002 78.7713 58.4662 78.9375 58.4664C79.1036 58.4666 79.268 58.5009 79.4203 58.5674C79.5726 58.6338 79.7097 58.7309 79.8229 58.8526C79.9362 58.9743 80.0232 59.1181 80.0786 59.2749C80.134 59.4317 80.1567 59.5982 80.1451 59.7641C80.1335 59.93 80.088 60.0918 80.0113 60.2394C79.9346 60.3869 79.8285 60.5171 79.6994 60.6219C72.5247 67.2217 65.1561 70.5458 57.6421 70.5458Z" fill="#3C4242"/>
<path d="M64.9139 82.6778C64.9139 82.6778 43.7776 86.7298 31.3188 84.3762C31.3188 84.3762 46.6862 114.997 66.9499 113.493L64.9139 82.6778Z" fill="#3C4242"/>
<path d="M65.568 114.803C45.5225 114.803 30.9065 86.1718 30.2763 84.91C30.1809 84.7083 30.1419 84.4846 30.1632 84.2625C30.1846 84.0404 30.2655 83.8281 30.3975 83.6483C30.5292 83.4642 30.7117 83.3225 30.9227 83.2406C31.1336 83.1588 31.3639 83.1402 31.5852 83.1873C43.7046 85.4681 64.5258 81.5374 64.7439 81.4888C64.9134 81.4563 65.088 81.4612 65.2554 81.5031C65.4229 81.545 65.5792 81.6229 65.7135 81.7315C65.8471 81.8366 65.9572 81.9687 66.0365 82.1192C66.1159 82.2697 66.1627 82.4352 66.174 82.605L68.2101 113.444C68.2233 113.604 68.2049 113.764 68.156 113.917C68.107 114.069 68.0285 114.21 67.9249 114.332C67.8212 114.453 67.6946 114.554 67.5522 114.626C67.4097 114.699 67.2544 114.742 67.0951 114.755L65.568 114.803ZM33.6212 85.9291C37.4025 92.5532 50.0309 112.377 65.5923 112.377L63.7259 84.1093C59.2902 84.91 44.4075 87.2394 33.6212 85.9291Z" fill="#3C4242"/>
<path d="M187.247 84.0851L239.773 81.5131L213.45 192.982L156.973 198.538L187.247 84.0851Z" fill="#3C4242"/>
<path d="M157.022 199.751C156.848 199.754 156.675 199.719 156.516 199.648C156.356 199.576 156.215 199.471 156.101 199.339C155.972 199.187 155.88 199.007 155.834 198.813C155.787 198.619 155.788 198.416 155.834 198.223L186.109 83.7939C186.172 83.5433 186.315 83.3201 186.516 83.1581C186.717 82.9961 186.966 82.9041 187.224 82.8961L239.725 80.2999C239.914 80.2842 240.104 80.3159 240.277 80.3922C240.451 80.4685 240.603 80.5869 240.719 80.7367C240.842 80.8821 240.928 81.0551 240.97 81.2409C241.012 81.4267 241.009 81.6199 240.961 81.8043L214.662 193.273C214.602 193.518 214.468 193.739 214.276 193.905C214.085 194.07 213.847 194.171 213.596 194.195L157.022 199.751ZM188.242 85.274L158.622 197.155L212.529 191.865L238.271 82.7991L188.242 85.274Z" fill="#3C4242"/>
<path d="M118.991 179.297C118.682 179.297 118.384 179.179 118.159 178.967C117.933 178.755 117.798 178.465 117.779 178.156C116.726 162.094 113.177 146.294 107.259 131.327C107.128 131.034 107.118 130.701 107.232 130.401C107.345 130.101 107.573 129.858 107.865 129.725C108.01 129.657 108.166 129.619 108.326 129.612C108.485 129.606 108.645 129.632 108.794 129.688C108.943 129.745 109.08 129.831 109.195 129.942C109.31 130.052 109.402 130.185 109.465 130.332C115.506 145.559 119.129 161.638 120.203 177.986C120.223 178.311 120.115 178.63 119.902 178.875C119.688 179.12 119.387 179.272 119.064 179.297H118.991Z" fill="#3C4242"/>
<path d="M36.5786 31.7963C36.4585 31.8199 36.335 31.8199 36.215 31.7963C35.9109 31.7012 35.6564 31.49 35.5067 31.2084C35.357 30.9269 35.3241 30.5976 35.4151 30.292C36.402 27.1633 38.5786 24.5488 41.4748 23.0128C42.9319 22.4442 44.4973 22.208 46.0571 22.3213C47.6169 22.4346 49.1319 22.8947 50.4917 23.6679C50.758 23.8196 50.9571 24.0667 51.0488 24.3594C51.1405 24.6521 51.1181 24.9687 50.986 25.2455C50.8539 25.5223 50.6219 25.7387 50.3368 25.8512C50.0517 25.9636 49.7346 25.9638 49.4494 25.8517C48.3975 25.2428 47.2248 24.8729 46.0143 24.7681C44.8038 24.6633 43.585 24.8261 42.4444 25.2451C40.2176 26.4531 38.5356 28.4666 37.742 30.8743C37.6776 31.1353 37.5283 31.3675 37.3177 31.5344C37.1072 31.7013 36.8471 31.7934 36.5786 31.7963Z" fill="#3C4242"/>
<path d="M70.1496 24.6142H69.9314C69.6151 24.5496 69.3365 24.3637 69.1553 24.0962C68.9741 23.8286 68.9047 23.5008 68.9619 23.1827C69.1524 22.1853 69.571 21.2457 70.185 20.4375C70.799 19.6292 71.5916 18.9743 72.5007 18.524C74.6337 17.6748 77.3485 18.3541 80.2329 20.5136C80.4633 20.7111 80.6113 20.9878 80.6478 21.2892C80.6843 21.5905 80.6066 21.8946 80.43 22.1415C80.2535 22.3883 79.9909 22.5599 79.6942 22.6224C79.3974 22.6849 79.088 22.6337 78.8271 22.479C76.5729 20.8533 74.7065 20.271 73.4218 20.7563C72.8897 21.0591 72.4297 21.4742 72.0739 21.9728C71.7181 22.4714 71.4751 23.0416 71.3615 23.6437C71.3006 23.9197 71.1472 24.1665 70.9267 24.3431C70.7062 24.5197 70.4319 24.6154 70.1496 24.6142Z" fill="#3C4242"/>
</svg>
