<svg width="18" height="18" viewBox="0 0 18 18" fill="none" xmlns="http://www.w3.org/2000/svg">
<path d="M16.7797 17.999C16.6222 18.0056 16.4651 17.9787 16.3188 17.9201C16.1725 17.8615 16.0403 17.7726 15.9308 17.6591L0.35871 2.07096C0.245039 1.9581 0.154839 1.82383 0.0932676 1.67589C0.0316966 1.52795 0 1.36927 0 1.209C0 1.04873 0.0316966 0.890055 0.0932676 0.742115C0.154839 0.594174 0.245039 0.4599 0.35871 0.34704C0.585413 0.124597 0.89022 0 1.20767 0C1.52511 0 1.82992 0.124597 2.05662 0.34704L17.6286 15.9352C17.7423 16.048 17.8325 16.1823 17.8941 16.3303C17.9556 16.4782 17.9873 16.6369 17.9873 16.7971C17.9873 16.9574 17.9556 17.1161 17.8941 17.264C17.8325 17.412 17.7423 17.5462 17.6286 17.6591C17.5191 17.7726 17.3868 17.8615 17.2405 17.9201C17.0942 17.9787 16.9371 18.0056 16.7797 17.999Z" fill="#D1D3D4"/>
</svg>
