<svg width="32" height="6" viewBox="0 0 32 6" fill="none" xmlns="http://www.w3.org/2000/svg">
<path d="M1.28577 5.99782C0.964609 6.01711 0.64896 5.90789 0.408239 5.6942C0.167519 5.48051 0.0214492 5.17985 0.00217956 4.85836C-0.0170901 4.53687 0.0920175 4.22087 0.305487 3.9799C0.518955 3.73893 0.819302 3.59273 1.14046 3.57344L30.2029 0.00960301C30.3608 -0.0106096 30.5211 0.00115704 30.6743 0.0442285C30.8276 0.0873 30.9706 0.160782 31.0948 0.260305C31.2191 0.359828 31.3221 0.483373 31.3977 0.623558C31.4733 0.763744 31.52 0.917707 31.535 1.07632C31.5762 1.39451 31.4898 1.71611 31.2946 1.97061C31.0994 2.2251 30.8113 2.39173 30.4936 2.43398L1.43109 5.97357L1.28577 5.99782Z" fill="#3C4242"/>
</svg>
