<svg width="53" height="15" viewBox="0 0 53 15" fill="none" xmlns="http://www.w3.org/2000/svg">
<path fill-rule="evenodd" clip-rule="evenodd" d="M2.0076 5.68038C1.89709 5.95665 1.84184 6.25135 1.76816 6.54604C1.58398 7.43012 1.43663 8.36946 1.23403 9.25354C0.828827 9.25354 0.405204 9.25354 0 9.25354C0.46046 6.26976 1.3077 3.35966 1.67607 0.154859C2.08128 0.154859 2.48648 0.154859 2.87327 0.154859C2.81801 0.449553 2.74434 0.725829 2.7075 1.02052C2.7075 1.03894 2.67067 1.05736 2.67067 1.0942C3.22322 0.375879 4.07046 -0.121417 5.415 0.0259304C6.74113 0.154859 7.45945 1.20471 7.5147 2.43874C7.64363 4.79629 6.39118 6.93282 3.81261 6.74864C2.96536 6.69338 2.32072 6.38027 2.0076 5.68038ZM3.73893 1.20471C2.65225 1.75726 1.6024 4.299 2.83643 5.38568C3.64684 6.104 4.91771 5.71721 5.45184 5.05415C6.05965 4.299 6.6122 2.12563 5.69128 1.35205C5.37817 1.0942 4.88087 1.0021 4.42041 1.05736C4.08888 1.07578 3.92312 1.11262 3.73893 1.20471Z" fill="#030000"/>
<path fill-rule="evenodd" clip-rule="evenodd" d="M13.2061 6.61962C12.8193 6.61962 12.4325 6.61962 12.0273 6.61962C12.0826 6.25126 12.1562 5.90131 12.2299 5.55136C11.88 6.06707 11.2722 6.65646 10.3881 6.74855C9.1172 6.87748 7.95684 6.23284 7.84633 5.18299C7.8095 4.83304 7.82791 4.26207 8.12261 3.82003C8.85934 2.65967 10.7749 2.586 12.672 2.64125C13.2429 0.541557 10.1855 0.854669 9.13562 1.53615C9.19087 1.13094 9.28297 0.744158 9.33822 0.338954C11.2353 -0.250435 13.7955 -0.103087 13.9428 1.94135C13.9981 2.75176 13.7586 3.54375 13.6113 4.31732C13.4639 5.07248 13.3166 5.80921 13.2061 6.61962ZM9.19087 4.94355C9.22771 5.47768 9.8171 5.77238 10.296 5.77238C11.6037 5.7908 12.2299 4.64886 12.4325 3.52533C10.959 3.45166 9.09878 3.63585 9.19087 4.94355Z" fill="#030000"/>
<path fill-rule="evenodd" clip-rule="evenodd" d="M16.0425 0.173231C16.3188 1.88614 16.6503 3.5438 16.9082 5.29354C17.8844 3.61747 18.7869 1.86772 19.7446 0.173231C20.1867 0.173231 20.6287 0.173231 21.0892 0.173231C19.9104 2.30976 18.529 4.6489 17.2029 6.89594C16.7977 7.59584 16.3925 8.53518 15.8031 8.99564C15.2874 9.40084 14.2928 9.49293 13.464 9.32717C13.4824 8.9588 13.6113 8.68252 13.6297 8.33258C13.7955 8.31416 13.9981 8.42467 14.2007 8.42467C15.1032 8.42467 15.6005 7.59584 15.932 6.9512C15.5452 4.72257 15.1216 2.51237 14.7348 0.265322C14.698 0.228486 14.7164 0.210067 14.7348 0.173231C15.1769 0.173231 15.6189 0.173231 16.0425 0.173231Z" fill="#030000"/>
<path fill-rule="evenodd" clip-rule="evenodd" d="M21.6233 10.3954C21.347 11.961 20.9971 13.4344 20.7208 15C19.8552 15 18.9895 15 18.1054 15C18.5106 13.0845 18.8606 11.1874 19.2473 9.29031C19.6341 7.41164 20.0946 5.53296 20.3156 3.54378C21.0155 3.48852 21.9548 3.48852 22.6547 3.54378C22.6363 3.98582 22.5258 4.35419 22.489 4.77781C23.1705 4.09633 23.9072 3.19383 25.4728 3.34117C26.9647 3.48852 27.7935 4.74097 27.904 6.32495C28.1066 9.05088 26.7805 11.7215 24.3861 11.9057C22.8942 12.0162 22.1943 11.3348 21.6233 10.3954ZM22.6732 6.32495C22.0654 7.19062 21.8628 8.84827 22.6363 9.49292C23.1152 9.89812 23.9993 9.69552 24.4045 9.36399C24.9202 8.94036 25.2886 8.12995 25.2702 7.11694C25.2517 6.19602 24.8465 5.42245 23.8704 5.55138C23.2994 5.62505 22.9494 5.91975 22.6732 6.32495Z" fill="#009651"/>
<path fill-rule="evenodd" clip-rule="evenodd" d="M35.0686 11.74C34.3872 11.7216 33.6136 11.7768 32.9874 11.7032C33.061 11.3348 33.061 10.8743 33.1163 10.506C32.9137 10.7086 32.7663 11.0033 32.5085 11.2427C31.6612 12.0163 29.7641 12.182 28.8248 11.4085C27.8118 10.5612 27.9776 8.5352 28.8248 7.66954C29.801 6.65653 31.6428 6.39867 33.5399 6.60127C33.7241 5.8277 33.2084 5.34882 32.5637 5.25673C31.6244 5.1278 30.372 5.53301 29.8194 5.86454C29.9299 5.20148 29.9667 4.48316 30.0957 3.8201C30.7587 3.58066 31.385 3.39647 32.177 3.35964C34.3687 3.21229 35.879 3.94902 36.0264 5.8277C36.1001 6.82229 35.8054 7.85372 35.5844 8.8299C35.3817 9.78765 35.2344 10.7638 35.0686 11.74ZM32.4348 8.05632C31.6428 8.07474 30.7772 8.3326 30.593 8.92199C30.4456 9.4377 30.814 9.91658 31.2008 9.99025C32.4164 10.2481 33.2452 9.05092 33.3373 8.09316C33.061 8.03791 32.6558 8.05632 32.4348 8.05632Z" fill="#009651"/>
<path fill-rule="evenodd" clip-rule="evenodd" d="M43.0991 3.82002C42.9702 4.48308 42.7307 5.03563 42.6018 5.69869C41.9572 5.47767 41.1836 5.14614 40.1706 5.25665C39.7654 5.31191 39.3602 5.51451 39.3602 5.91971C39.3786 6.41701 40.1337 6.6012 40.5942 6.78538C41.2388 7.06166 42.0124 7.43002 42.3255 7.98258C42.8597 8.94033 42.3255 10.3401 41.7546 10.9295C41.2757 11.4268 40.3732 11.832 39.4523 11.9057C38.2551 11.9978 37.0026 11.7768 35.9712 11.5005C36.1185 10.819 36.2843 10.1928 36.4685 9.56656C37.15 9.84283 37.9235 10.1007 38.9734 10.0086C39.4707 9.95334 40.0232 9.78758 39.9496 9.19819C39.8943 8.71931 39.176 8.55354 38.6419 8.33252C37.6473 7.92732 36.9105 7.4116 36.9105 6.06706C36.9105 3.3043 40.7415 2.84385 43.0991 3.82002Z" fill="#009651"/>
<path fill-rule="evenodd" clip-rule="evenodd" d="M49.6192 3.82005C49.4718 4.4647 49.2692 5.0725 49.085 5.69873C48.4772 5.45929 47.6852 5.14618 46.6722 5.25669C46.267 5.29352 45.8618 5.49612 45.8618 5.91975C45.8802 6.43546 46.8012 6.71174 47.2248 6.89592C48.0905 7.26429 48.9193 7.6695 49.0298 8.66409C49.1403 9.64026 48.7351 10.4323 48.1641 10.9664C47.63 11.4821 46.838 11.832 45.9539 11.9057C44.7383 11.9978 43.5595 11.7768 42.4728 11.5005C42.5834 10.8006 42.8044 10.2296 42.9333 9.56659C43.4306 9.71393 43.9095 9.95338 44.4989 10.0086C45.3277 10.0823 46.4512 10.027 46.4328 9.30873C46.4144 8.53516 44.812 8.36939 44.1858 7.8721C43.5043 7.33796 43.0807 6.03026 43.6148 4.96199C44.4989 3.30434 47.5379 2.93597 49.6192 3.82005Z" fill="#009651"/>
<path d="M50.5953 4.66735H50.2638L50.2822 4.53842H51.0926L51.0742 4.66735H50.7427L50.5585 5.68036H50.4112L50.5953 4.66735Z" fill="#009651"/>
<path d="M51.9582 5.68036L52.0319 5.07255C52.0503 4.96204 52.0687 4.79628 52.0871 4.68577C52.0319 4.79628 51.9766 4.94362 51.9029 5.05413L51.5714 5.68036H51.4609L51.3688 5.07255C51.3504 4.94363 51.332 4.8147 51.332 4.68577C51.3135 4.79628 51.2767 4.96204 51.2399 5.07255L51.0925 5.68036H50.9636L51.2583 4.53842H51.4425L51.5346 5.18306C51.553 5.27515 51.553 5.38567 51.553 5.47776C51.5898 5.38567 51.6451 5.29357 51.6819 5.20148L52.0319 4.53842H52.216L52.0687 5.68036H51.9582Z" fill="#009651"/>
</svg>
