<svg width="412" height="463" viewBox="0 0 412 463" fill="none" xmlns="http://www.w3.org/2000/svg">
<path d="M395.585 462.11H55.1203C50.7687 462.104 46.5971 460.37 43.5201 457.29C40.443 454.21 38.7115 450.034 38.7051 445.678V155.585L1.64396 168.872C1.39488 168.963 1.12262 168.97 0.869215 168.891C0.615812 168.813 0.395336 168.653 0.24177 168.436C0.0848443 168.227 0 167.972 0 167.71C0 167.448 0.0848443 167.193 0.24177 166.984L38.6568 119.865V16.408C38.6632 12.0541 40.3954 7.88072 43.4732 4.80431C46.551 1.72791 50.7226 -4.7218e-06 55.072 0H395.585C399.934 -4.7218e-06 404.106 1.72791 407.184 4.80431C410.261 7.88072 411.994 12.0541 412 16.408V445.678C411.994 450.034 410.262 454.21 407.185 457.29C404.108 460.37 399.937 462.104 395.585 462.11ZM39.9139 152.681C40.164 152.683 40.4081 152.758 40.615 152.899C40.7744 153.01 40.904 153.159 40.9926 153.332C41.0811 153.505 41.1257 153.697 41.1226 153.891V445.678C41.129 449.392 42.6058 452.952 45.2295 455.579C47.8532 458.205 51.4099 459.684 55.1203 459.69H395.585C399.295 459.684 402.852 458.205 405.476 455.579C408.099 452.952 409.576 449.392 409.583 445.678V16.408C409.576 12.6959 408.099 9.13811 405.474 6.51555C402.85 3.893 399.293 2.42005 395.585 2.42006H55.1203C51.4121 2.42005 47.8554 3.893 45.231 6.51555C42.6066 9.13811 41.129 12.6959 41.1226 16.408V120.204C41.1192 120.477 41.0257 120.741 40.8567 120.954L4.90764 165.048L39.5029 152.754C39.6348 152.707 39.7737 152.682 39.9139 152.681Z" fill="#3C4242"/>
</svg>
