<svg width="21" height="32" viewBox="0 0 21 32" fill="none" xmlns="http://www.w3.org/2000/svg">
<path d="M18.4773 0H2.38637C1.06819 0 0 1.06816 0 2.38634V29.6137C0 30.9318 1.06819 32 2.38637 32H18.4773C19.7955 32 20.8637 30.9318 20.8637 29.6137V2.38634C20.8637 1.09088 19.7728 0 18.4773 0Z" fill="white"/>
<path d="M19.7045 3.84099H1.13624V26.2956H19.7045V3.84099Z" fill="#404040"/>
<path d="M14.2266 1.43154H6.61298C6.31753 1.43154 6.0448 1.68154 6.0448 1.99972C6.0448 2.3179 6.2948 2.5679 6.61298 2.5679H14.2266C14.5221 2.5679 14.7948 2.3179 14.7948 1.99972C14.7948 1.70427 14.5448 1.43154 14.2266 1.43154Z" fill="#6639A6"/>
<path d="M8.61369 29.0001C8.61369 28.0001 9.43188 27.1592 10.4319 27.1592C11.4319 27.1592 12.2728 27.9774 12.2728 29.0001C12.2728 30.0001 11.4546 30.8183 10.4319 30.8183C9.43188 30.841 8.61369 30.0229 8.61369 29.0001Z" fill="#6639A6"/>
</svg>
