<svg width="126" height="126" viewBox="0 0 126 126" fill="none" xmlns="http://www.w3.org/2000/svg">
<path d="M62.9349 126C50.4876 126 38.3198 122.305 27.9702 115.383C17.6206 108.46 9.55405 98.6208 4.79066 87.1091C0.0272656 75.5973 -1.21905 62.9301 1.20931 50.7093C3.63766 38.4885 9.63165 27.263 18.4333 18.4523C27.2349 9.64159 38.4487 3.64142 50.6569 1.21056C62.8651 -1.22031 75.5192 0.0272938 87.0191 4.79561C98.5189 9.56393 108.348 17.6388 115.263 27.9991C122.179 38.3594 125.87 50.5398 125.87 63C125.851 79.7027 119.214 95.7158 107.415 107.526C95.6169 119.337 79.6204 125.981 62.9349 126ZM62.9349 2.45584C50.967 2.45584 39.2678 6.00874 29.3171 12.6652C19.3664 19.3216 11.6113 28.7825 7.03243 39.8514C2.4536 50.9203 1.2568 63.0998 3.5934 74.8496C5.93001 86.5994 11.6951 97.3916 20.1594 105.861C28.6237 114.331 39.4071 120.098 51.1457 122.432C62.8843 124.766 75.0508 123.563 86.1064 118.975C97.162 114.387 106.61 106.62 113.256 96.6567C119.901 86.693 123.446 74.9804 123.441 63C123.415 46.9464 117.031 31.558 105.689 20.2087C94.347 8.85929 78.972 2.47513 62.9349 2.45584Z" fill="#D1D3D4"/>
</svg>
