<svg width="30" height="21" viewBox="0 0 30 21" fill="none" xmlns="http://www.w3.org/2000/svg">
<path d="M28.0429 21C27.7905 20.9988 27.5443 20.9223 27.3357 20.7803L0.510189 2.22716C0.249096 2.03627 0.0725128 1.75111 0.0178842 1.43212C-0.0367445 1.11312 0.0348872 0.785364 0.21756 0.518323C0.307709 0.387116 0.423093 0.275245 0.557001 0.189277C0.69091 0.10331 0.840632 0.0449716 0.99736 0.0176864C1.15409 -0.0095988 1.31468 -0.00527518 1.46972 0.0303886C1.62476 0.0660524 1.77111 0.132337 1.90022 0.225372L28.7257 18.7785C28.8587 18.8668 28.9727 18.9809 29.0609 19.1141C29.1491 19.2472 29.2098 19.3967 29.2393 19.5537C29.2689 19.7107 29.2667 19.8721 29.2329 20.0282C29.1991 20.1844 29.1345 20.3322 29.0427 20.4629C28.932 20.6269 28.7832 20.7614 28.609 20.855C28.4348 20.9485 28.2405 20.9983 28.0429 21Z" fill="#D1D3D4"/>
</svg>
