<svg width="54" height="8" viewBox="0 0 54 8" fill="none" xmlns="http://www.w3.org/2000/svg">
<path d="M5.19759 6.01496C5.03339 6.01496 4.84374 5.9502 4.62711 5.82145C4.41125 5.69194 4.18151 5.52079 3.93944 5.30725C3.69737 5.0937 3.45915 4.86165 3.22402 4.61032C2.98966 4.35977 2.77303 4.10999 2.57567 3.86098C2.37831 3.61275 2.21256 3.39149 2.07842 3.19798L0.994496 5.53775C0.942073 5.65185 0.860355 5.73279 0.74857 5.77982C0.636786 5.82685 0.515751 5.85537 0.385464 5.8654C0.255177 5.87542 0.126432 5.88004 0 5.88004C0.0963659 5.74128 0.195815 5.58169 0.296036 5.40284C0.397027 5.22398 0.515749 5.00812 0.653745 4.75449C0.791741 4.50085 0.953638 4.19325 1.1402 3.83015C1.32677 3.46781 1.54802 3.03378 1.80551 2.52959C2.06223 2.0254 2.36598 1.43333 2.71675 0.752604C2.73911 0.712516 2.76917 0.65701 2.80618 0.585314C2.84318 0.513618 2.86245 0.447318 2.86245 0.387957C2.86245 0.333221 2.84395 0.290049 2.80618 0.25767C2.76917 0.225291 2.69825 0.209101 2.59417 0.209101C2.41532 0.209101 2.24186 0.25767 2.07457 0.354036C1.90728 0.450402 1.75771 0.573748 1.62743 0.723308C1.49714 0.872097 1.39461 1.02628 1.31983 1.18509C1.24505 1.3439 1.20804 1.48576 1.20804 1.60988C1.20804 1.7047 1.22654 1.78873 1.26355 1.86351C1.01762 1.86351 0.844165 1.82265 0.743945 1.74093C0.642953 1.65922 0.592844 1.55822 0.592844 1.43873C0.592844 1.26989 0.666852 1.10106 0.816412 0.932231C0.965201 0.763398 1.15716 0.607668 1.3923 0.466588C1.62743 0.324737 1.87335 0.212185 2.13007 0.127383C2.38679 0.0433516 2.61961 0.000949485 2.82853 0.000949485C3.02975 0.000949485 3.16543 0.0379549 3.23635 0.112735C3.30728 0.187515 3.34274 0.269233 3.34274 0.358661C3.34274 0.413397 3.33349 0.468133 3.31499 0.522869C3.29649 0.577605 3.27567 0.630025 3.25331 0.679365L2.31432 2.70613C2.4184 2.60668 2.55485 2.51495 2.72215 2.43014C2.88944 2.34611 3.07446 2.24897 3.27567 2.1395C3.61102 1.96065 3.97028 1.75173 4.3542 1.51351C4.73812 1.27529 5.10508 1.02397 5.45508 0.761083C5.80508 0.497426 6.09573 0.244563 6.327 0.000949485C6.36401 0.0310157 6.39022 0.0826654 6.40564 0.157445C6.42028 0.232225 6.42799 0.289276 6.42799 0.328594C6.42799 0.482779 6.33317 0.651613 6.14275 0.835094C5.95233 1.01857 5.70487 1.20899 5.39958 1.40481C5.09429 1.60139 4.75894 1.7949 4.39352 1.98609C4.0281 2.17728 3.66884 2.35768 3.31499 2.52651C2.96113 2.69534 2.64197 2.84181 2.35904 2.96593C2.58261 3.21957 2.80078 3.4601 3.01278 3.68906C3.22479 3.91726 3.45607 4.14083 3.70585 4.35977C3.95563 4.57872 4.24781 4.80229 4.58316 5.03048C4.91852 5.25867 5.3248 5.5046 5.80123 5.76826C5.74881 5.83302 5.66709 5.89006 5.5553 5.9394C5.44352 5.99028 5.32402 6.01496 5.19759 6.01496Z" fill="#3C4242"/>
<path d="M11.178 5.73183C10.7231 5.73183 10.3862 5.64009 10.1665 5.45584C9.94678 5.27236 9.83654 5.0511 9.83654 4.79284C9.51583 5.07577 9.14733 5.29703 8.73026 5.45584C8.31319 5.61465 7.89149 5.69405 7.46748 5.69405C7.01263 5.69405 6.67188 5.61079 6.44446 5.44427C6.21703 5.27775 6.10371 5.07269 6.10371 4.82985C6.10371 4.60628 6.18774 4.37037 6.35503 4.12213C6.52309 3.87389 6.74666 3.6403 7.02573 3.42136C7.30481 3.20319 7.61241 3.0251 7.94777 2.88865C8.28312 2.75219 8.61462 2.68358 8.94303 2.68358C9.11418 2.68358 9.27299 2.71364 9.41793 2.77301C9.56363 2.83237 9.6361 2.95418 9.6361 3.13843C9.6361 3.32731 9.55207 3.50462 9.38478 3.67114C9.21748 3.83766 8.997 3.98568 8.72563 4.11442C8.4535 4.24394 8.15514 4.34878 7.83135 4.43127C7.50757 4.51376 7.18455 4.56388 6.86461 4.58392C6.84997 4.63403 6.8384 4.68105 6.83069 4.72577C6.82298 4.77048 6.81913 4.81288 6.81913 4.8522C6.81913 4.95165 6.84534 5.04956 6.89776 5.1467C6.94941 5.24383 7.03884 5.32324 7.16604 5.38491C7.29248 5.44735 7.47133 5.47819 7.70261 5.47819C8.09733 5.47819 8.48896 5.38491 8.87673 5.19912C9.26374 5.01255 9.60295 4.78282 9.89359 4.50991C9.96066 4.30638 10.0802 4.10286 10.2513 3.89856C10.4224 3.69504 10.6298 3.51002 10.8719 3.34349C11.114 3.17697 11.3769 3.04284 11.6598 2.94107C11.9427 2.83931 12.2303 2.78843 12.5209 2.78843C12.6921 2.78843 12.8509 2.81849 12.9958 2.87786C13.1407 2.93722 13.214 3.05902 13.214 3.24328C13.214 3.49691 13.0852 3.71893 12.8285 3.91012C12.5718 4.10131 12.2418 4.25396 11.8394 4.36883C11.437 4.48292 11.0238 4.55539 10.599 4.58469C10.5843 4.6348 10.5728 4.68183 10.5651 4.72654C10.5574 4.77125 10.5535 4.81365 10.5535 4.85297C10.5535 4.95242 10.5774 5.05418 10.626 5.15826C10.6745 5.26233 10.7601 5.34791 10.8827 5.41498C11.006 5.48205 11.1826 5.5152 11.4139 5.5152C11.7346 5.5152 12.0545 5.45198 12.3752 5.32555C12.6959 5.19912 12.9935 5.0326 13.2695 4.82599C13.5455 4.62015 13.776 4.39735 13.9625 4.15914L14.0967 4.22621C13.8955 4.52456 13.6364 4.78667 13.3196 5.01255C13.0027 5.23844 12.6604 5.41498 12.2912 5.54141C11.9211 5.66861 11.5503 5.73183 11.178 5.73183ZM6.91935 4.44207C7.12056 4.39735 7.34798 4.33182 7.60085 4.24471C7.85448 4.15759 8.0981 4.05506 8.33323 3.93557C8.56836 3.81607 8.76186 3.68502 8.91451 3.54085C9.06715 3.39669 9.14348 3.24559 9.14348 3.08601C9.14348 3.03127 9.12883 2.98887 9.09876 2.95957C9.06869 2.92951 9.00548 2.91486 8.90911 2.91486C8.73026 2.91486 8.53984 2.96111 8.33863 3.05285C8.13741 3.14459 7.94391 3.26486 7.75734 3.41442C7.57078 3.56321 7.40349 3.72742 7.25393 3.90627C7.10514 4.08436 6.99336 4.26321 6.91935 4.44207ZM10.653 4.44207C10.8542 4.39735 11.0739 4.33799 11.3129 4.26321C11.5511 4.18843 11.7785 4.10055 11.9951 3.99878C12.211 3.89702 12.3899 3.78061 12.5317 3.64878C12.6728 3.51696 12.7437 3.37202 12.7437 3.21321C12.7437 3.15847 12.7252 3.11222 12.6874 3.07521C12.6504 3.03821 12.5834 3.0197 12.4862 3.0197C12.248 3.0197 12.0075 3.08909 11.7654 3.22863C11.5233 3.36739 11.3036 3.54548 11.1055 3.76134C10.9081 3.97642 10.757 4.20385 10.653 4.44207Z" fill="#3C4242"/>
<path d="M13.0232 7.45332C12.9638 7.45332 12.906 7.43251 12.8497 7.39011C12.7934 7.34771 12.751 7.30299 12.721 7.25597C12.6909 7.20894 12.6763 7.18042 12.6763 7.1704C12.7803 6.92678 12.8829 6.70938 12.9839 6.51819C13.0849 6.327 13.1851 6.13041 13.2861 5.9292C13.3863 5.72799 13.4857 5.49208 13.5821 5.22149C13.6792 4.95089 13.7795 4.614 13.8843 4.21157C13.9884 3.80915 14.0932 3.30959 14.1973 2.71366C14.205 2.66895 14.2197 2.63657 14.242 2.61653C14.2644 2.59648 14.3199 2.58646 14.4093 2.58646C14.6028 2.58646 14.7408 2.62269 14.8233 2.69439C14.905 2.76609 14.9459 2.84472 14.9459 2.92875C14.9459 2.99813 14.9235 3.12225 14.8788 3.30111C14.8341 3.47996 14.7709 3.6912 14.6892 3.93481C14.8156 3.7706 14.9744 3.60408 15.164 3.43525C15.3537 3.26642 15.5719 3.12457 15.8178 3.01047C16.0637 2.89637 16.332 2.83932 16.6226 2.83932C16.9503 2.83932 17.2209 2.91796 17.4329 3.07368C17.6449 3.23018 17.7513 3.43525 17.7513 3.68888C17.7513 3.88239 17.6857 4.08746 17.5555 4.30332C17.4252 4.51917 17.2425 4.72347 17.0081 4.91466C16.7737 5.10585 16.4954 5.26158 16.1755 5.3803C15.8548 5.49979 15.5009 5.55915 15.1139 5.55915C14.9197 5.55915 14.7639 5.54451 14.6444 5.51444C14.5249 5.48438 14.4656 5.45508 14.4656 5.42501C14.4656 5.40497 14.4933 5.39418 14.5496 5.39109C14.6059 5.38878 14.6707 5.38724 14.7454 5.38724C15.0438 5.38724 15.3283 5.33867 15.6004 5.24153C15.8725 5.1444 16.1161 5.01642 16.3328 4.85761C16.5486 4.6988 16.7182 4.52226 16.8416 4.32876C16.9642 4.13525 17.0258 3.94406 17.0258 3.75519C17.0258 3.59638 16.9757 3.46069 16.8747 3.34891C16.7745 3.23712 16.6118 3.18162 16.3883 3.18162C16.1948 3.18162 16.0028 3.22247 15.8124 3.30419C15.622 3.38591 15.4431 3.49076 15.2758 3.61719C15.1078 3.74362 14.959 3.87545 14.8287 4.0119C14.6984 4.14836 14.5997 4.27171 14.5327 4.38041C14.3985 4.75277 14.2644 5.11202 14.1302 5.45739C13.9961 5.80277 13.8673 6.11576 13.7448 6.39638C13.6214 6.677 13.5104 6.90674 13.4094 7.08559C13.3092 7.26445 13.2252 7.37392 13.1581 7.41323C13.1195 7.44099 13.0748 7.45332 13.0232 7.45332Z" fill="#3C4242"/>
<path d="M21.8093 5.55992C21.5186 5.55992 21.302 5.49902 21.1609 5.37721C21.0191 5.25541 20.9489 5.10739 20.9489 4.93393C20.9489 4.81983 20.9805 4.67567 21.0438 4.50144C21.107 4.32798 21.191 4.14527 21.2951 3.95408C21.3992 3.76289 21.5202 3.5825 21.6582 3.41366C21.7962 3.24483 21.9434 3.10683 22.0999 2.99967C22.2564 2.89328 22.4091 2.83932 22.5586 2.83932C22.6257 2.83932 22.6835 2.8532 22.7321 2.88018C22.7807 2.90716 22.8046 2.94879 22.8046 3.00276C22.8046 3.06212 22.7467 3.15925 22.6311 3.29339C22.5155 3.42754 22.3798 3.58173 22.2233 3.75518C22.0668 3.92941 21.9311 4.11135 21.8155 4.30254C21.6998 4.49373 21.642 4.67644 21.642 4.85067C21.642 5.02952 21.6867 5.14902 21.7761 5.20838C21.8656 5.26774 22.0036 5.29781 22.1901 5.29781C22.4438 5.29781 22.7136 5.21378 23.0004 5.04417C23.2872 4.87534 23.5909 4.58007 23.9116 4.15761L24.0118 4.23239C23.796 4.65948 23.4845 4.98789 23.0782 5.21609C22.6712 5.44582 22.2487 5.55992 21.8093 5.55992ZM23.1499 2.14703C23.0304 2.14703 22.9248 2.12698 22.8315 2.08767C22.7383 2.04758 22.692 1.9859 22.692 1.9011C22.692 1.79702 22.783 1.70606 22.9657 1.62896C23.1484 1.55187 23.3288 1.51333 23.5076 1.51333C23.6194 1.51333 23.7089 1.53106 23.7759 1.56575C23.843 1.60044 23.8761 1.66057 23.8761 1.7446C23.8761 1.83866 23.7998 1.92962 23.6472 2.01674C23.4953 2.10385 23.3296 2.14703 23.1499 2.14703Z" fill="#3C4242"/>
<path d="M24.6475 5.70947C24.3268 5.70947 24.0809 5.64703 23.9098 5.52291C23.7386 5.39879 23.653 5.2153 23.653 4.97169C23.653 4.75352 23.7147 4.4837 23.8373 4.16299C23.9599 3.84228 24.1148 3.51387 24.3014 3.17543C24.2266 3.16541 24.1565 3.15693 24.0894 3.14922C24.0223 3.14151 23.9591 3.13072 23.8997 3.11607V2.98193C23.9591 2.98655 24.03 2.99195 24.1117 2.99658C24.1935 3.0012 24.2867 3.0066 24.3908 3.01122C24.5473 2.74294 24.7154 2.48314 24.8935 2.23259C25.0723 1.98204 25.2496 1.75847 25.4246 1.56188C25.5996 1.36606 25.7677 1.20879 25.928 1.09238C26.0884 0.975973 26.2241 0.917386 26.3359 0.917386C26.3952 0.917386 26.4492 0.93126 26.4978 0.958243C26.5463 0.985225 26.5702 1.02686 26.5702 1.08082C26.5702 1.16562 26.4924 1.30285 26.3359 1.49481C26.1794 1.686 25.9859 1.91342 25.7546 2.17631C25.5233 2.43996 25.2997 2.72521 25.0839 3.03358C25.1509 3.03358 25.2196 3.03358 25.2905 3.03358C25.3614 3.03358 25.43 3.03358 25.4971 3.03358C25.743 3.03358 26.0021 3.03127 26.2742 3.02587C26.5463 3.02125 26.82 3.00814 27.096 2.98887V3.12301C26.6859 3.15307 26.3189 3.17543 25.9951 3.19008C25.6713 3.20473 25.3822 3.21243 25.1286 3.21243C25.0985 3.21243 25.0708 3.21243 25.0446 3.21243C25.0184 3.21243 24.9906 3.21243 24.9605 3.21243C24.7894 3.47609 24.6437 3.74669 24.525 4.025C24.4055 4.3033 24.3461 4.57389 24.3461 4.83755C24.3461 5.0511 24.3947 5.20374 24.491 5.29548C24.5874 5.38722 24.7478 5.43348 24.9721 5.43348C25.3599 5.43348 25.7399 5.31938 26.1123 5.09042C26.4847 4.86222 26.8123 4.55154 27.096 4.15914L27.2409 4.23391C27.0621 4.51222 26.8362 4.76277 26.5648 4.98634C26.2927 5.20991 25.9928 5.38645 25.6652 5.51519C25.3367 5.64471 24.9983 5.70947 24.6475 5.70947Z" fill="#3C4242"/>
<path d="M30.986 5.7835C30.6283 5.7835 30.33 5.7041 30.0918 5.54529C29.8535 5.38647 29.734 5.14826 29.734 4.82987C29.734 4.58163 29.8065 4.33955 29.9522 4.10288C30.0972 3.86697 30.2891 3.65497 30.5281 3.4661C30.7663 3.27722 31.0307 3.12689 31.3214 3.0151C31.612 2.90332 31.8988 2.84781 32.1825 2.84781C32.4878 2.84781 32.6967 2.90717 32.8085 3.02667C32.9203 3.14616 32.9758 3.27028 32.9758 3.39903C32.9758 3.54319 32.9257 3.66962 32.8247 3.77909C32.7245 3.88856 32.588 3.9433 32.4169 3.9433C32.2904 3.9433 32.1825 3.9063 32.0923 3.83152C32.2041 3.7922 32.3012 3.71125 32.383 3.58944C32.4647 3.46764 32.5063 3.352 32.5063 3.24253C32.5063 3.18316 32.4893 3.13691 32.4562 3.10453C32.4223 3.07215 32.3575 3.05596 32.2604 3.05596C32.0592 3.05596 31.8526 3.11532 31.6398 3.23482C31.4278 3.35431 31.2296 3.50773 31.0477 3.6966C30.865 3.88548 30.7162 4.08438 30.6006 4.29253C30.4849 4.50145 30.4271 4.69727 30.4271 4.88152C30.4271 5.0357 30.4834 5.17678 30.5952 5.3063C30.707 5.43505 30.9228 5.4998 31.2435 5.4998C31.5419 5.4998 31.8418 5.44507 32.1432 5.3356C32.4446 5.22612 32.726 5.06962 32.9874 4.8661C33.2479 4.66257 33.4569 4.42359 33.6134 4.15068L33.7583 4.22546C33.5871 4.52381 33.352 4.79055 33.0544 5.02645C32.7561 5.26236 32.4284 5.44738 32.0707 5.58152C31.7122 5.71643 31.3507 5.7835 30.986 5.7835Z" fill="#3C4242"/>
<path d="M34.3284 5.59C34.0077 5.59 33.7787 5.51676 33.6407 5.37028C33.5027 5.2238 33.4341 5.0411 33.4341 4.82292C33.4341 4.58471 33.5012 4.301 33.6353 3.97336C33.7695 3.64572 33.9468 3.30034 34.1665 2.93723C34.3862 2.5749 34.6267 2.22104 34.8873 1.8749C35.1479 1.52952 35.4084 1.21576 35.6698 0.932054C35.9304 0.649123 36.1709 0.422467 36.3906 0.253634C36.6103 0.0848003 36.7838 0 36.9102 0C36.9919 0 37.059 0.0308388 37.1114 0.0932839C37.1638 0.155729 37.2047 0.229735 37.2348 0.31685C37.2641 0.403965 37.2795 0.481832 37.2795 0.551215C37.2795 0.685357 37.2294 0.860353 37.1284 1.07698C37.0282 1.29284 36.8863 1.53414 36.7036 1.80011C36.5209 2.06608 36.305 2.33437 36.0553 2.60496C35.8055 2.87556 35.5333 3.13536 35.2396 3.3836C34.9451 3.63184 34.6344 3.84539 34.306 4.02424C34.2613 4.15838 34.2258 4.28867 34.1996 4.41588C34.1734 4.54231 34.1603 4.66334 34.1603 4.77744C34.1603 4.97094 34.2012 5.11511 34.2829 5.20993C34.3646 5.30398 34.488 5.35178 34.6522 5.35178C34.8534 5.35178 35.053 5.29242 35.2504 5.17292C35.4478 5.05343 35.6343 4.9031 35.8093 4.72193C35.9843 4.54076 36.1354 4.35343 36.2619 4.15916L36.4292 4.21851C36.1308 4.64098 35.807 4.97479 35.4562 5.22072C35.107 5.46742 34.7308 5.59 34.3284 5.59ZM34.407 3.77138C34.6676 3.59715 34.9212 3.39748 35.1671 3.1716C35.4131 2.94572 35.642 2.71058 35.8548 2.46774C36.0676 2.22413 36.2557 1.98822 36.4191 1.76003C36.5826 1.53183 36.7098 1.32677 36.7992 1.1456C36.8886 0.964429 36.9333 0.824124 36.9333 0.724674C36.9333 0.675335 36.9241 0.642955 36.9056 0.627536C36.8871 0.612889 36.8701 0.605176 36.8555 0.605176C36.7961 0.605176 36.6936 0.668394 36.5479 0.794826C36.4029 0.921258 36.2333 1.09163 36.0391 1.30518C35.8456 1.51873 35.6482 1.76234 35.447 2.03525C35.2458 2.30816 35.0538 2.59417 34.8711 2.89252C34.6876 3.1901 34.5334 3.48382 34.407 3.77138Z" fill="#3C4242"/>
<path d="M36.5751 5.71644C36.3439 5.71644 36.1481 5.66555 35.9885 5.56379C35.8281 5.46203 35.7479 5.30707 35.7479 5.09815C35.7479 4.9193 35.8073 4.72657 35.9268 4.52073C36.0455 4.31489 36.2097 4.1106 36.4186 3.90938C36.6276 3.70817 36.8642 3.52469 37.1287 3.35817C37.3931 3.19165 37.6722 3.05905 37.9674 2.9596C38.2619 2.86015 38.5541 2.81081 38.8448 2.81081C39.1354 2.81081 39.3775 2.86169 39.571 2.96345C39.7645 3.06522 39.8616 3.2009 39.8616 3.36973C39.8616 3.49385 39.8115 3.57865 39.7105 3.62337C39.6095 3.66808 39.4777 3.69044 39.3135 3.69044C39.3281 3.65035 39.3412 3.60718 39.3528 3.56015C39.3644 3.51312 39.3698 3.46995 39.3698 3.42986C39.3698 3.31577 39.3289 3.21786 39.2472 3.13537C39.1647 3.05365 39.0236 3.01279 38.8224 3.01279C38.6135 3.01279 38.4015 3.06136 38.1848 3.15773C37.969 3.25487 37.7601 3.38361 37.5588 3.5455C37.3576 3.7074 37.1788 3.8824 37.0223 4.07128C36.8658 4.26015 36.7432 4.44672 36.653 4.6302C36.5636 4.81368 36.5189 4.97789 36.5189 5.12205C36.5189 5.31555 36.6191 5.41269 36.8211 5.41269C36.9922 5.41269 37.1788 5.3595 37.38 5.25234C37.5812 5.14595 37.7878 5.00872 38.0006 4.8422C38.2126 4.67568 38.4161 4.503 38.6096 4.32414C38.8031 4.14529 38.975 3.98108 39.1238 3.83229C39.1531 3.80222 39.1724 3.78758 39.1793 3.78758C39.2241 3.7922 39.2819 3.80222 39.3528 3.81764C39.4237 3.83229 39.4854 3.85233 39.5371 3.877C39.5895 3.90167 39.6157 3.93405 39.6157 3.97414C39.6157 4.01885 39.5818 4.07976 39.5147 4.15685C39.4476 4.23394 39.3728 4.32183 39.2911 4.42128C39.2086 4.52073 39.1346 4.62172 39.0676 4.72348C39.0005 4.82525 38.9673 4.92084 38.9673 5.01027C38.9673 5.08505 38.9966 5.15829 39.0568 5.22998C39.1161 5.30245 39.2133 5.33791 39.3474 5.33791C39.5486 5.33791 39.813 5.24 40.1407 5.04342C40.4683 4.8476 40.8006 4.55311 41.136 4.15994L41.2477 4.23471C41.0912 4.503 40.89 4.7389 40.6441 4.94242C40.3982 5.14595 40.1353 5.30553 39.8562 5.41963C39.5771 5.53373 39.3027 5.59078 39.0344 5.59078C38.7584 5.59078 38.5557 5.53604 38.4254 5.42657C38.2951 5.3171 38.2296 5.19837 38.2296 5.06886C38.2296 5.03879 38.2334 5.00564 38.2411 4.96864C38.2481 4.93163 38.2558 4.89309 38.2635 4.853C37.9428 5.14133 37.6506 5.35718 37.3862 5.50135C37.121 5.64474 36.8504 5.71644 36.5751 5.71644Z" fill="#3C4242"/>
<path d="M42.086 5.7465C41.736 5.7465 41.4585 5.69562 41.2534 5.59386C41.0483 5.49209 40.9034 5.36643 40.8171 5.21764C40.7315 5.06885 40.6883 4.91929 40.6883 4.77051C40.6883 4.62172 40.7184 4.50685 40.7777 4.42744C40.8379 4.34804 40.9103 4.28867 40.9959 4.24859C41.0815 4.2085 41.1632 4.1792 41.2418 4.15916C41.3205 4.13912 41.3737 4.11907 41.4037 4.0998C41.6273 3.93559 41.8324 3.76445 42.0189 3.58559C42.2055 3.40673 42.3689 3.21785 42.5108 3.01896V2.92953C42.5108 2.74605 42.557 2.61499 42.6503 2.5379C42.7436 2.4608 42.8423 2.42226 42.9464 2.42226C43.0057 2.42226 43.0504 2.43228 43.0805 2.45233C43.1106 2.47237 43.1252 2.49473 43.1252 2.5194C43.1252 2.54407 43.1144 2.58415 43.0921 2.63889C43.0697 2.69362 43.0581 2.76301 43.0581 2.84781C43.0581 3.01202 43.1067 3.18933 43.2031 3.38052C43.3002 3.57171 43.3966 3.77292 43.4937 3.98416C43.5901 4.19539 43.6386 4.41511 43.6386 4.6433C43.6386 4.70806 43.6333 4.77128 43.6217 4.83295C43.6109 4.8954 43.5939 4.95322 43.5716 5.00795C43.8322 4.97789 44.0781 4.90002 44.3094 4.77359C44.5406 4.64716 44.7642 4.4444 44.9801 4.1661L45.0803 4.24088C44.9384 4.51379 44.7264 4.72117 44.4435 4.86302C44.1606 5.00487 43.8507 5.09275 43.5153 5.12745C43.3958 5.34099 43.2077 5.49749 42.951 5.59694C42.695 5.69716 42.4059 5.7465 42.086 5.7465ZM42.1084 5.48592C42.1978 5.48592 42.3173 5.46588 42.4661 5.42657C42.6149 5.38648 42.7305 5.28471 42.813 5.12128C42.5 5.08196 42.2225 4.99947 41.9804 4.87535C41.7383 4.75123 41.5571 4.62711 41.4384 4.50299C41.2742 4.50839 41.1925 4.59473 41.1925 4.76356C41.1925 4.94242 41.2727 5.1074 41.433 5.25927C41.5918 5.4096 41.8177 5.48592 42.1084 5.48592ZM42.8685 5.00101C42.8831 4.95167 42.8947 4.89925 42.9016 4.84452C42.9094 4.78978 42.9132 4.72502 42.9132 4.65101C42.9132 4.41742 42.87 4.18537 42.7845 3.95409C42.6989 3.72281 42.6264 3.50541 42.5663 3.30189C42.3951 3.49077 42.214 3.67116 42.0243 3.84231C41.8347 4.01346 41.6535 4.15685 41.4824 4.27095C41.5941 4.42976 41.7676 4.57932 42.002 4.71808C42.2371 4.85762 42.5254 4.95167 42.8685 5.00101Z" fill="#3C4242"/>
<path d="M45.942 5.7465C45.592 5.7465 45.3145 5.69562 45.1094 5.59386C44.9043 5.49209 44.7594 5.36643 44.6731 5.21764C44.5875 5.06885 44.5443 4.91929 44.5443 4.77051C44.5443 4.62172 44.5744 4.50685 44.6337 4.42744C44.6939 4.34804 44.7663 4.28867 44.8519 4.24859C44.9375 4.2085 45.0192 4.1792 45.0978 4.15916C45.1765 4.13912 45.2297 4.11907 45.2597 4.0998C45.4833 3.93559 45.6884 3.76445 45.8749 3.58559C46.0615 3.40673 46.2249 3.21785 46.3668 3.01896V2.92953C46.3668 2.74605 46.413 2.61499 46.5063 2.5379C46.5996 2.4608 46.6983 2.42226 46.8023 2.42226C46.8617 2.42226 46.9064 2.43228 46.9365 2.45233C46.9666 2.47237 46.9812 2.49473 46.9812 2.5194C46.9812 2.54407 46.9704 2.58415 46.9481 2.63889C46.9257 2.69362 46.9141 2.76301 46.9141 2.84781C46.9141 3.01202 46.9627 3.18933 47.0591 3.38052C47.1562 3.57171 47.2526 3.77292 47.3497 3.98416C47.4461 4.19539 47.4946 4.41511 47.4946 4.6433C47.4946 4.70806 47.4892 4.77128 47.4777 4.83295C47.4669 4.8954 47.4499 4.95322 47.4276 5.00795C47.6882 4.97789 47.9341 4.90002 48.1654 4.77359C48.3966 4.64716 48.6202 4.4444 48.8361 4.1661L48.9363 4.24088C48.7944 4.51379 48.5824 4.72117 48.2995 4.86302C48.0166 5.00487 47.7066 5.09275 47.3713 5.12745C47.2518 5.34099 47.0637 5.49749 46.807 5.59694C46.5518 5.69716 46.2627 5.7465 45.942 5.7465ZM45.9644 5.48592C46.0538 5.48592 46.1733 5.46588 46.3221 5.42657C46.4709 5.38648 46.5865 5.28471 46.669 5.12128C46.356 5.08196 46.0784 4.99947 45.8364 4.87535C45.5943 4.75123 45.4131 4.62711 45.2944 4.50299C45.1302 4.50839 45.0485 4.59473 45.0485 4.76356C45.0485 4.94242 45.1287 5.1074 45.289 5.25927C45.4486 5.4096 45.6737 5.48592 45.9644 5.48592ZM46.7245 5.00101C46.7391 4.95167 46.7507 4.89925 46.7576 4.84452C46.7653 4.78978 46.7692 4.72502 46.7692 4.65101C46.7692 4.41742 46.726 4.18537 46.6405 3.95409C46.5549 3.72281 46.4824 3.50541 46.4223 3.30189C46.2511 3.49077 46.07 3.67116 45.8803 3.84231C45.6907 4.01346 45.5095 4.15685 45.3384 4.27095C45.4501 4.42976 45.6236 4.57932 45.858 4.71808C46.0931 4.85762 46.3822 4.95167 46.7245 5.00101Z" fill="#3C4242"/>
<path d="M49.1061 7.45334C48.9196 7.45334 48.7561 7.42019 48.6143 7.35312C48.4724 7.28605 48.4015 7.18814 48.4015 7.05862C48.4015 6.89981 48.4616 6.75796 48.5804 6.63384C48.6991 6.50972 48.8594 6.39562 49.0614 6.29078C49.2626 6.1867 49.4931 6.08725 49.7545 5.99243C50.0151 5.89838 50.2872 5.80355 50.5701 5.7095C50.6742 5.52602 50.7806 5.32095 50.8885 5.09507C50.9964 4.86919 51.099 4.61941 51.1961 4.3465C50.9579 4.60476 50.7027 4.82679 50.4306 5.01335C50.1584 5.19992 49.8694 5.29243 49.5641 5.29243C49.4222 5.29243 49.2827 5.27161 49.1447 5.22921C49.0067 5.18681 48.8934 5.12128 48.8039 5.03186C48.7145 4.94243 48.6698 4.82833 48.6698 4.68879C48.6698 4.55002 48.7053 4.38813 48.7762 4.20465C48.8471 4.02117 48.9342 3.84231 49.0391 3.66808C49.1431 3.49463 49.2511 3.35046 49.3636 3.23559C49.4762 3.12072 49.5725 3.06445 49.6543 3.06445C49.6843 3.06445 49.7383 3.07215 49.8162 3.0868C49.8948 3.10145 49.9688 3.12304 50.0397 3.15002C50.1107 3.17777 50.1461 3.2063 50.1461 3.23559C50.079 3.30035 50.0043 3.39209 49.9225 3.51158C49.8401 3.63108 49.7607 3.76368 49.682 3.91015C49.6042 4.05663 49.5386 4.19925 49.4862 4.33879C49.4338 4.47756 49.4083 4.59705 49.4083 4.6965C49.4083 4.78593 49.4376 4.85762 49.4978 4.91236C49.5571 4.96709 49.662 4.99408 49.8108 4.99408C49.9518 4.99408 50.1107 4.94859 50.2857 4.85608C50.4607 4.76434 50.6356 4.64639 50.8114 4.50223C50.9864 4.35807 51.1483 4.20388 51.2979 4.04044C51.3202 3.9857 51.3403 3.9302 51.3596 3.87315C51.3781 3.8161 51.395 3.75751 51.4097 3.69815C51.432 3.62876 51.486 3.54782 51.5716 3.45608C51.6571 3.36434 51.7936 3.31808 51.9794 3.31808C52.0164 3.31808 52.0534 3.31963 52.0912 3.32194C52.1282 3.32425 52.169 3.33042 52.2137 3.34044C52.2137 3.41985 52.1783 3.56786 52.1074 3.78372C52.0364 3.99958 51.9354 4.25245 51.8051 4.54C51.6749 4.82833 51.5199 5.1236 51.3411 5.42657C51.6911 5.33714 52.0341 5.18912 52.3695 4.98329C52.7048 4.77745 52.977 4.50223 53.1851 4.15994L53.33 4.23471C53.2183 4.47293 53.0487 4.68031 52.8212 4.85685C52.5938 5.0334 52.3386 5.1845 52.0557 5.3117C51.7728 5.43813 51.4929 5.54375 51.2169 5.62855C51.0234 5.94617 50.813 6.24452 50.5855 6.52283C50.3581 6.80113 50.1199 7.02624 49.8701 7.19739C49.6219 7.36776 49.3667 7.45334 49.1061 7.45334ZM49.0499 7.21435C49.1616 7.21435 49.3497 7.11644 49.6142 6.91986C49.8786 6.72327 50.16 6.37944 50.4583 5.88758C50.1531 5.99706 49.8693 6.10499 49.6088 6.21215C49.3482 6.31853 49.1393 6.43417 48.9828 6.55906C48.8263 6.68318 48.7484 6.82734 48.7484 6.99155C48.7484 7.03164 48.7708 7.07867 48.8155 7.1334C48.8602 7.18737 48.9381 7.21435 49.0499 7.21435Z" fill="#3C4242"/>
<path d="M53.4203 5.44122C53.3231 5.44122 53.2399 5.42503 53.1689 5.39265C53.098 5.36027 53.0625 5.30939 53.0625 5.24C53.0625 5.18527 53.0957 5.13439 53.1628 5.08736C53.2298 5.04033 53.3139 5.00256 53.4141 4.97557C53.5143 4.94859 53.613 4.93472 53.7101 4.93472C53.7996 4.93472 53.8705 4.94705 53.9221 4.97172C53.9738 4.99639 54 5.04419 54 5.11357C54 5.16368 53.9722 5.21302 53.916 5.26236C53.8597 5.3117 53.7872 5.3541 53.6978 5.38879C53.6084 5.42349 53.5174 5.44122 53.4203 5.44122Z" fill="#3C4242"/>
</svg>
