<svg width="158" height="174" viewBox="0 0 158 174" fill="none" xmlns="http://www.w3.org/2000/svg">
<path d="M16.1159 173.573C15.5265 173.51 14.9618 173.302 14.4719 172.968C3.66457 166.53 2.38318 152.662 1.46444 141.505V140.173C-1.09836 111.542 -0.300511 86.6862 3.88218 64.1538C7.79892 43.1219 11.8607 21.3639 33.8863 9.74679C47.74 2.48607 70.4184 -3.78235 88.6965 2.72809C105.621 8.75449 119.958 23.7842 126.22 41.9602C128.347 48.1076 130.016 54.3518 131.636 60.4024C135.117 73.3023 138.381 85.4761 145.658 96.9964C146.529 98.4001 147.448 99.7797 148.366 101.159C152.525 107.428 156.828 113.914 157.795 121.489C159.198 132.138 153.298 143.634 143.12 150.072C132.24 156.97 119.619 157.139 110.964 156.074L106.636 155.445L105.596 155.3C99.0444 154.283 92.8308 153.34 86.2545 155.131C81.286 156.608 76.4366 158.461 71.7481 160.673C66.3108 163.253 60.6448 165.319 54.8239 166.845C44.5418 168.881 34.092 169.951 23.6109 170.039L17.8567 170.281C17.7057 170.245 17.5483 170.245 17.3973 170.281C17.3549 170.562 17.3549 170.848 17.3973 171.128C17.5182 171.494 17.5276 171.887 17.4243 172.258C17.3209 172.628 17.1095 172.96 16.8171 173.21C16.6207 173.392 16.3783 173.518 16.1159 173.573ZM71.5547 2.46186C58.7772 2.75146 46.2402 5.99871 34.9259 11.9492C13.94 23.0097 9.99905 44.1626 6.17902 64.6378C2.02051 86.9524 1.34354 111.59 3.76128 140.004L3.88218 141.335C4.80092 151.67 5.91308 164.473 15.028 170.378C15.0276 169.798 15.2236 169.235 15.584 168.781C15.862 168.467 16.2051 168.218 16.5893 168.051C16.9735 167.883 17.3896 167.802 17.8084 167.813L23.5626 167.571C33.8831 167.544 44.1788 166.556 54.3162 164.618C59.9567 163.117 65.4447 161.091 70.7085 158.567C75.4948 156.318 80.4405 154.425 85.5051 152.904C92.6132 150.992 99.0686 151.984 105.887 152.904L106.926 153.073C108.329 153.267 109.731 153.485 111.157 153.654C119.45 154.695 131.466 154.55 141.742 148.015C151.122 142.085 156.587 131.533 155.305 121.804C154.386 114.785 150.252 108.541 146.263 102.442C145.344 101.038 144.401 99.6345 143.507 98.2307C136.036 86.3958 132.578 73.4475 129.218 60.959C127.598 54.9568 125.93 48.8579 123.85 42.662C117.806 25.1637 104.001 10.7149 87.7777 4.9305C82.5482 3.19622 77.0628 2.36153 71.5547 2.46186Z" fill="#3C4242"/>
</svg>
