<svg width="34" height="34" viewBox="0 0 34 34" fill="none" xmlns="http://www.w3.org/2000/svg">
<path d="M17.076 33.9997C13.8535 34.0175 10.6925 33.1171 7.96207 31.4036C5.23169 29.6902 3.0447 27.2344 1.6565 24.3232C0.2683 21.412 -0.263785 18.1655 0.122387 14.9628C0.508559 11.7602 1.79703 8.73364 3.83735 6.23667C5.87767 3.73971 8.58559 1.87541 11.6448 0.86151C14.7041 -0.152391 17.9884 -0.274038 21.1141 0.510784C24.2398 1.29561 27.0779 2.9545 29.297 5.2937C31.5161 7.6329 33.0245 10.5559 33.646 13.7212C34.5146 18.1079 33.6216 22.6605 31.1603 26.3926C28.699 30.1247 24.8678 32.7357 20.4968 33.6597C19.3698 33.881 18.2244 33.9949 17.076 33.9997ZM17.076 2.6469C16.1059 2.63673 15.1376 2.73446 14.189 2.93832C11.3493 3.4845 8.73645 4.86494 6.68365 6.90361C4.63085 8.94228 3.23112 11.5468 2.66297 14.385C2.09482 17.2232 2.38398 20.1665 3.49359 22.8395C4.60321 25.5126 6.48299 27.7942 8.89321 29.3935C11.3034 30.9928 14.1349 31.8372 17.0265 31.8191C19.918 31.8011 22.7387 30.9213 25.1288 29.292C27.5189 27.6628 29.3701 25.3578 30.4463 22.6711C31.5225 19.9845 31.7749 17.0378 31.1714 14.2069C30.4878 10.9659 28.7215 8.05488 26.1636 5.9535C23.6058 3.85212 20.409 2.68585 17.1003 2.6469H17.076Z" fill="#3C4242"/>
</svg>
