<svg width="64" height="88" viewBox="0 0 64 88" fill="none" xmlns="http://www.w3.org/2000/svg">
<path d="M36.4068 87.929C31.3945 87.8664 26.3939 87.4254 21.4478 86.6099C12.7604 85.3152 6.6109 81.7242 3.2189 76.008C-1.80809 67.507 -0.953994 54.3159 5.83001 35.6772C14.9323 10.7361 12.3212 1.74656 12.2968 1.67328C12.2455 1.51288 12.2263 1.34394 12.2402 1.17611C12.2542 1.00828 12.301 0.844838 12.378 0.695126C12.4551 0.545415 12.5608 0.412361 12.6893 0.303559C12.8177 0.194758 12.9662 0.112342 13.1265 0.0610151C13.2867 0.00968801 13.4555 -0.00954725 13.6231 0.00441405C13.7908 0.0183753 13.954 0.0652608 14.1036 0.142385C14.2531 0.219509 14.3861 0.32536 14.4948 0.453905C14.6034 0.582451 14.6858 0.731183 14.737 0.891581C14.737 1.28243 17.7386 10.6628 8.24589 36.5322C1.73032 54.438 0.925019 66.9452 5.43955 74.7622C8.48991 79.9165 13.883 82.9945 21.9359 84.1915C44.4598 87.587 58.1254 85.6571 61.2245 65.7482C64.2261 46.3767 46.5828 24.367 46.3876 24.2204C46.2843 24.0979 46.2067 23.956 46.1593 23.8029C46.1118 23.6498 46.0956 23.4887 46.1115 23.3292C46.1275 23.1698 46.1752 23.0151 46.252 22.8745C46.3288 22.7338 46.433 22.61 46.5584 22.5105C46.8082 22.308 47.1278 22.2123 47.4476 22.2444C47.7675 22.2764 48.0618 22.4335 48.2666 22.6815C49.0231 23.6097 66.8128 45.7416 63.616 66.2124C60.9317 82.7258 51.073 87.929 36.4068 87.929Z" fill="#3C4242"/>
</svg>
