<svg width="18" height="18" viewBox="0 0 18 18" fill="none" xmlns="http://www.w3.org/2000/svg">
<path d="M1.20851 17.9144C1.05094 17.921 0.893757 17.8941 0.747329 17.8354C0.600901 17.7768 0.468534 17.6878 0.358961 17.5742C0.24521 17.4613 0.154947 17.3269 0.0933328 17.1789C0.0317188 17.0308 0 16.8721 0 16.7117C0 16.5513 0.0317188 16.3925 0.0933328 16.2445C0.154947 16.0964 0.24521 15.9621 0.358961 15.8491L15.9419 0.347283C16.1688 0.124684 16.4737 0 16.7914 0C17.1091 0 17.4141 0.124684 17.6409 0.347283C17.7547 0.460221 17.8449 0.594589 17.9066 0.742633C17.9682 0.890677 17.9999 1.04947 17.9999 1.20984C17.9999 1.37022 17.9682 1.52901 17.9066 1.67706C17.8449 1.8251 17.7547 1.95947 17.6409 2.07241L2.05806 17.6714C1.94042 17.7677 1.80436 17.8388 1.65829 17.8806C1.51221 17.9224 1.35918 17.9339 1.20851 17.9144Z" fill="#D1D3D4"/>
</svg>
