<svg width="203" height="122" viewBox="0 0 203 122" fill="none" xmlns="http://www.w3.org/2000/svg">
<path d="M1.25432 121.174C0.95196 121.181 0.658296 121.072 0.433488 120.87C0.208679 120.667 0.0697416 120.386 0.045137 120.085C0.045137 119.697 -0.728736 110.546 4.13219 78.0584C7.42272 57.2618 12.9193 36.8757 20.5288 17.246C20.6129 17.0443 20.749 16.8685 20.9232 16.7366C21.0974 16.6048 21.3034 16.5216 21.5203 16.4956L175.256 0.00942171C175.549 -0.0277689 175.846 0.0459593 176.087 0.216136C176.329 0.386312 176.498 0.640677 176.562 0.929365L202.971 115.679C203.011 115.855 203.01 116.039 202.968 116.215C202.926 116.391 202.844 116.556 202.729 116.696C202.623 116.839 202.484 116.955 202.324 117.035C202.165 117.115 201.988 117.156 201.81 117.155L1.27851 121.174H1.25432ZM6.52638 78.4215C2.6328 104.422 2.36678 115.461 2.41515 118.729L200.262 114.783L174.458 2.52711L22.5118 18.8196C15.1253 38.0757 9.76781 58.0514 6.52638 78.4215Z" fill="#3C4242"/>
</svg>
