<svg width="54" height="8" viewBox="0 0 54 8" fill="none" xmlns="http://www.w3.org/2000/svg">
<path d="M5.19761 6.01501C5.0334 6.01501 4.84375 5.95025 4.62712 5.8215C4.41126 5.69199 4.18152 5.52084 3.93945 5.30729C3.69738 5.09375 3.45916 4.86169 3.22403 4.61037C2.98967 4.35982 2.77304 4.11004 2.57568 3.86103C2.37832 3.61279 2.21257 3.39153 2.07843 3.19802L0.994499 5.5378C0.942076 5.6519 0.860357 5.73284 0.748572 5.77987C0.636788 5.8269 0.515752 5.85542 0.385465 5.86545C0.255178 5.87547 0.126433 5.88009 0 5.88009C0.0963662 5.74133 0.195816 5.58174 0.296037 5.40289C0.397029 5.22403 0.515751 5.00817 0.653747 4.75453C0.791744 4.5009 0.953641 4.1933 1.14021 3.83019C1.32677 3.46785 1.54803 3.03382 1.80552 2.52963C2.06224 2.02544 2.36598 1.43337 2.71676 0.752637C2.73911 0.712549 2.76918 0.657043 2.80618 0.585346C2.84319 0.51365 2.86246 0.44735 2.86246 0.387988C2.86246 0.333252 2.84396 0.29008 2.80618 0.257701C2.76918 0.225322 2.69825 0.209132 2.59418 0.209132C2.41532 0.209132 2.24186 0.257701 2.07457 0.354067C1.90728 0.450434 1.75772 0.573781 1.62743 0.723341C1.49714 0.872131 1.39461 1.02632 1.31983 1.18513C1.24505 1.34394 1.20805 1.48579 1.20805 1.60991C1.20805 1.70474 1.22655 1.78876 1.26355 1.86354C1.01763 1.86354 0.844168 1.82269 0.743947 1.74097C0.642955 1.65925 0.592845 1.55826 0.592845 1.43876C0.592845 1.26993 0.666854 1.1011 0.816415 0.932265C0.965204 0.763431 1.15717 0.6077 1.3923 0.46662C1.62743 0.324769 1.87336 0.212216 2.13008 0.127414C2.3868 0.0433824 2.61962 0.000980116 2.82854 0.000980116C3.02976 0.000980116 3.16544 0.0379857 3.23636 0.112766C3.30729 0.187546 3.34275 0.269265 3.34275 0.358693C3.34275 0.413429 3.3335 0.468165 3.315 0.522901C3.2965 0.577637 3.27568 0.630058 3.25332 0.679398L2.31433 2.70617C2.41841 2.60672 2.55486 2.51498 2.72215 2.43018C2.88945 2.34615 3.07447 2.24901 3.27568 2.13954C3.61104 1.96068 3.97029 1.75176 4.35421 1.51354C4.73813 1.27533 5.1051 1.024 5.4551 0.761116C5.8051 0.497458 6.09574 0.244594 6.32702 0.000980116C6.36403 0.0310464 6.39024 0.0826962 6.40566 0.157476C6.4203 0.232257 6.42802 0.289308 6.42802 0.328625C6.42802 0.482811 6.33319 0.651646 6.14277 0.835127C5.95235 1.01861 5.70488 1.20902 5.39959 1.40484C5.09431 1.60143 4.75895 1.79493 4.39353 1.98612C4.02811 2.17732 3.66886 2.35771 3.315 2.52655C2.96114 2.69538 2.64198 2.84185 2.35905 2.96597C2.58262 3.21961 2.80079 3.46014 3.01279 3.68911C3.2248 3.9173 3.45608 4.14087 3.70586 4.35982C3.95564 4.57876 4.24782 4.80233 4.58318 5.03053C4.91853 5.25872 5.32481 5.50465 5.80125 5.76831C5.74883 5.83307 5.66711 5.89011 5.55532 5.93945C5.44354 5.99033 5.32404 6.01501 5.19761 6.01501Z" fill="#3C4242"/>
<path d="M11.1779 5.73188C10.7231 5.73188 10.3862 5.64014 10.1665 5.45589C9.94676 5.2724 9.83652 5.05114 9.83652 4.79288C9.51581 5.07581 9.14731 5.29707 8.73024 5.45589C8.31316 5.6147 7.89146 5.6941 7.46745 5.6941C7.0126 5.6941 6.67185 5.61084 6.44443 5.44432C6.217 5.2778 6.10367 5.07273 6.10367 4.82989C6.10367 4.60632 6.18771 4.37041 6.355 4.12217C6.52306 3.87393 6.74663 3.64034 7.02571 3.4214C7.30478 3.20323 7.61239 3.02514 7.94774 2.88869C8.28309 2.75223 8.61459 2.68362 8.94301 2.68362C9.11416 2.68362 9.27297 2.71368 9.4179 2.77305C9.56361 2.83241 9.63608 2.95422 9.63608 3.13847C9.63608 3.32735 9.55205 3.50466 9.38475 3.67118C9.21746 3.8377 8.99698 3.98572 8.72561 4.11447C8.45347 4.24398 8.15512 4.34883 7.83133 4.43132C7.50754 4.51381 7.18452 4.56392 6.86458 4.58396C6.84994 4.63407 6.83837 4.6811 6.83066 4.72581C6.82295 4.77053 6.8191 4.81293 6.8191 4.85225C6.8191 4.9517 6.84531 5.0496 6.89773 5.14674C6.94939 5.24388 7.03881 5.32328 7.16602 5.38496C7.29245 5.4474 7.47131 5.47824 7.70259 5.47824C8.0973 5.47824 8.48893 5.38496 8.87671 5.19916C9.26372 5.0126 9.60293 4.78286 9.89357 4.50995C9.96064 4.30643 10.0801 4.1029 10.2513 3.89861C10.4224 3.69508 10.6298 3.51006 10.8719 3.34354C11.1139 3.17701 11.3768 3.04288 11.6598 2.94111C11.9427 2.83935 12.2303 2.78847 12.5209 2.78847C12.692 2.78847 12.8509 2.81853 12.9958 2.8779C13.1407 2.93726 13.214 3.05906 13.214 3.24332C13.214 3.49695 13.0852 3.71898 12.8285 3.91017C12.5718 4.10136 12.2418 4.254 11.8394 4.36887C11.437 4.48297 11.0238 4.55544 10.599 4.58473C10.5843 4.63484 10.5728 4.68187 10.565 4.72658C10.5573 4.7713 10.5535 4.8137 10.5535 4.85302C10.5535 4.95247 10.5774 5.05423 10.626 5.1583C10.6745 5.26238 10.7601 5.34795 10.8827 5.41502C11.006 5.4821 11.1826 5.51524 11.4138 5.51524C11.7346 5.51524 12.0545 5.45203 12.3752 5.3256C12.6959 5.19917 12.9935 5.03264 13.2695 4.82603C13.5455 4.62019 13.776 4.3974 13.9625 4.15918L14.0967 4.22625C13.8955 4.5246 13.6364 4.78672 13.3196 5.0126C13.0027 5.23848 12.6604 5.41503 12.2912 5.54146C11.9211 5.66866 11.5503 5.73188 11.1779 5.73188ZM6.91932 4.44211C7.12053 4.3974 7.34796 4.33187 7.60082 4.24475C7.85446 4.15764 8.09807 4.0551 8.33321 3.93561C8.56834 3.81612 8.76184 3.68506 8.91448 3.54089C9.06713 3.39673 9.14345 3.24563 9.14345 3.08605C9.14345 3.03131 9.1288 2.98891 9.09874 2.95961C9.06867 2.92955 9.00545 2.9149 8.90909 2.9149C8.73023 2.9149 8.53981 2.96115 8.3386 3.05289C8.13739 3.14463 7.94388 3.2649 7.75732 3.41446C7.57075 3.56325 7.40346 3.72746 7.2539 3.90631C7.10511 4.0844 6.99333 4.26326 6.91932 4.44211ZM10.6529 4.44211C10.8541 4.3974 11.0739 4.33803 11.3129 4.26325C11.5511 4.18847 11.7785 4.10059 11.9951 3.99883C12.211 3.89706 12.3898 3.78065 12.5317 3.64883C12.6728 3.517 12.7437 3.37206 12.7437 3.21325C12.7437 3.15851 12.7252 3.11226 12.6874 3.07525C12.6504 3.03825 12.5833 3.01974 12.4862 3.01974C12.248 3.01974 12.0075 3.08913 11.7654 3.22867C11.5233 3.36744 11.3036 3.54552 11.1055 3.76138C10.9081 3.97647 10.757 4.20389 10.6529 4.44211Z" fill="#3C4242"/>
<path d="M13.0233 7.45335C12.9639 7.45335 12.9061 7.43253 12.8498 7.39013C12.7935 7.34773 12.7511 7.30302 12.721 7.25599C12.691 7.20896 12.6763 7.18044 12.6763 7.17042C12.7804 6.9268 12.8829 6.7094 12.9839 6.51821C13.0849 6.32702 13.1851 6.13043 13.2861 5.92922C13.3864 5.728 13.4858 5.4921 13.5822 5.2215C13.6793 4.95091 13.7795 4.61401 13.8844 4.21159C13.9885 3.80916 14.0933 3.3096 14.1974 2.71367C14.2051 2.66896 14.2197 2.63658 14.2421 2.61653C14.2645 2.59649 14.32 2.58647 14.4094 2.58647C14.6029 2.58647 14.7409 2.6227 14.8234 2.6944C14.9051 2.76609 14.946 2.84473 14.946 2.92876C14.946 2.99814 14.9236 3.12226 14.8789 3.30112C14.8342 3.47998 14.771 3.69121 14.6892 3.93482C14.8157 3.77061 14.9745 3.60409 15.1641 3.43526C15.3538 3.26643 15.5719 3.12457 15.8179 3.01048C16.0638 2.89638 16.3321 2.83933 16.6227 2.83933C16.9504 2.83933 17.221 2.91797 17.433 3.07369C17.645 3.23019 17.7514 3.43526 17.7514 3.68889C17.7514 3.8824 17.6858 4.08747 17.5555 4.30333C17.4253 4.51919 17.2426 4.72349 17.0082 4.91468C16.7738 5.10587 16.4955 5.26159 16.1756 5.38032C15.8549 5.49981 15.501 5.55917 15.114 5.55917C14.9197 5.55917 14.764 5.54453 14.6445 5.51446C14.525 5.4844 14.4657 5.4551 14.4657 5.42503C14.4657 5.40499 14.4934 5.39419 14.5497 5.39111C14.606 5.3888 14.6707 5.38726 14.7455 5.38726C15.0439 5.38726 15.3283 5.33869 15.6005 5.24155C15.8726 5.14441 16.1162 5.01644 16.3329 4.85763C16.5487 4.69882 16.7183 4.52227 16.8417 4.32877C16.9642 4.13527 17.0259 3.94408 17.0259 3.7552C17.0259 3.59639 16.9758 3.4607 16.8748 3.34892C16.7746 3.23713 16.6119 3.18163 16.3884 3.18163C16.1949 3.18163 16.0029 3.22248 15.8125 3.3042C15.6221 3.38592 15.4432 3.49077 15.2759 3.6172C15.1078 3.74363 14.9591 3.87546 14.8288 4.01191C14.6985 4.14837 14.5998 4.27172 14.5327 4.38042C14.3986 4.75278 14.2644 5.11203 14.1303 5.45741C13.9962 5.80279 13.8674 6.11578 13.7448 6.3964C13.6215 6.67702 13.5105 6.90676 13.4095 7.08561C13.3093 7.26447 13.2252 7.37394 13.1582 7.41326C13.1196 7.44101 13.0749 7.45335 13.0233 7.45335Z" fill="#3C4242"/>
<path d="M21.8094 5.55997C21.5187 5.55997 21.3021 5.49907 21.161 5.37726C21.0192 5.25545 20.949 5.10744 20.949 4.93398C20.949 4.81988 20.9806 4.67572 21.0438 4.50149C21.107 4.32803 21.1911 4.14531 21.2952 3.95412C21.3992 3.76293 21.5203 3.58254 21.6583 3.41371C21.7963 3.24487 21.9435 3.10687 22.1 2.99971C22.2565 2.89332 22.4091 2.83936 22.5587 2.83936C22.6258 2.83936 22.6836 2.85324 22.7322 2.88022C22.7807 2.9072 22.8046 2.94883 22.8046 3.0028C22.8046 3.06216 22.7468 3.15929 22.6312 3.29344C22.5155 3.42758 22.3799 3.58177 22.2234 3.75523C22.0669 3.92946 21.9312 4.11139 21.8155 4.30259C21.6999 4.49378 21.6421 4.67649 21.6421 4.85072C21.6421 5.02957 21.6868 5.14907 21.7762 5.20843C21.8656 5.26779 22.0036 5.29785 22.1902 5.29785C22.4438 5.29785 22.7137 5.21382 23.0005 5.04422C23.2872 4.87539 23.591 4.58012 23.9117 4.15765L24.0119 4.23243C23.796 4.65953 23.4846 4.98794 23.0783 5.21614C22.6713 5.44587 22.2488 5.55997 21.8094 5.55997ZM23.15 2.14706C23.0305 2.14706 22.9249 2.12702 22.8316 2.0877C22.7383 2.04762 22.6921 1.98594 22.6921 1.90114C22.6921 1.79706 22.783 1.70609 22.9658 1.629C23.1485 1.55191 23.3289 1.51336 23.5077 1.51336C23.6195 1.51336 23.7089 1.53109 23.776 1.56578C23.8431 1.60048 23.8762 1.66061 23.8762 1.74464C23.8762 1.83869 23.7999 1.92966 23.6473 2.01678C23.4954 2.10389 23.3296 2.14706 23.15 2.14706Z" fill="#3C4242"/>
<path d="M24.6476 5.70949C24.3269 5.70949 24.081 5.64704 23.9099 5.52292C23.7387 5.3988 23.6531 5.21532 23.6531 4.97171C23.6531 4.75353 23.7148 4.48371 23.8374 4.163C23.96 3.8423 24.1149 3.51388 24.3015 3.17544C24.2267 3.16542 24.1566 3.15694 24.0895 3.14923C24.0224 3.14152 23.9592 3.13073 23.8998 3.11608V2.98194C23.9592 2.98656 24.0301 2.99196 24.1119 2.99658C24.1936 3.00121 24.2869 3.00661 24.3909 3.01123C24.5474 2.74295 24.7155 2.48315 24.8936 2.2326C25.0724 1.98204 25.2497 1.75847 25.4247 1.56189C25.5997 1.36607 25.7678 1.2088 25.9282 1.09239C26.0885 0.975976 26.2242 0.917389 26.336 0.917389C26.3953 0.917389 26.4493 0.931263 26.4979 0.958246C26.5465 0.985228 26.5703 1.02686 26.5703 1.08083C26.5703 1.16563 26.4925 1.30285 26.336 1.49481C26.1795 1.68601 25.986 1.91343 25.7547 2.17631C25.5234 2.43997 25.2999 2.72522 25.084 3.03359C25.1511 3.03359 25.2197 3.03359 25.2906 3.03359C25.3615 3.03359 25.4301 3.03359 25.4972 3.03359C25.7431 3.03359 26.0022 3.03128 26.2743 3.02588C26.5464 3.02126 26.8201 3.00815 27.0961 2.98888V3.12302C26.686 3.15308 26.319 3.17544 25.9952 3.19009C25.6714 3.20474 25.3823 3.21244 25.1287 3.21244C25.0986 3.21244 25.0709 3.21244 25.0447 3.21244C25.0185 3.21244 24.9907 3.21244 24.9606 3.21244C24.7895 3.4761 24.6438 3.7467 24.5251 4.02501C24.4056 4.30331 24.3462 4.57391 24.3462 4.83757C24.3462 5.05111 24.3948 5.20376 24.4912 5.2955C24.5875 5.38724 24.7479 5.43349 24.9722 5.43349C25.36 5.43349 25.7401 5.3194 26.1124 5.09043C26.4848 4.86224 26.8124 4.55155 27.0961 4.15915L27.2411 4.23393C27.0622 4.51223 26.8363 4.76279 26.565 4.98636C26.2928 5.20992 25.9929 5.38647 25.6653 5.51521C25.3369 5.64473 24.9984 5.70949 24.6476 5.70949Z" fill="#3C4242"/>
<path d="M30.9863 5.78349C30.6286 5.78349 30.3302 5.70408 30.092 5.54527C29.8538 5.38646 29.7343 5.14825 29.7343 4.82985C29.7343 4.58161 29.8067 4.33954 29.9525 4.10286C30.0974 3.86696 30.2894 3.65495 30.5283 3.46608C30.7666 3.2772 31.031 3.12686 31.3216 3.01508C31.6123 2.90329 31.8991 2.84779 32.1828 2.84779C32.488 2.84779 32.697 2.90715 32.8087 3.02665C32.9205 3.14614 32.976 3.27026 32.976 3.39901C32.976 3.54317 32.9259 3.6696 32.8249 3.77907C32.7247 3.88855 32.5883 3.94328 32.4171 3.94328C32.2907 3.94328 32.1828 3.90628 32.0926 3.8315C32.2043 3.79218 32.3015 3.71123 32.3832 3.58942C32.4649 3.46762 32.5065 3.35198 32.5065 3.24251C32.5065 3.18314 32.4896 3.13689 32.4564 3.10451C32.4225 3.07213 32.3578 3.05594 32.2606 3.05594C32.0594 3.05594 31.8528 3.1153 31.64 3.2348C31.428 3.35429 31.2299 3.50771 31.0479 3.69658C30.8652 3.88546 30.7164 4.08436 30.6008 4.29251C30.4852 4.50143 30.4273 4.69725 30.4273 4.8815C30.4273 5.03569 30.4836 5.17677 30.5954 5.30629C30.7072 5.43503 30.9231 5.49979 31.2438 5.49979C31.5421 5.49979 31.842 5.44505 32.1434 5.33558C32.4449 5.22611 32.7263 5.06961 32.9876 4.86608C33.2482 4.66256 33.4571 4.42357 33.6136 4.15066L33.7585 4.22544C33.5874 4.52379 33.3523 4.79053 33.0547 5.02644C32.7563 5.26234 32.4287 5.44737 32.071 5.58151C31.7125 5.71642 31.3509 5.78349 30.9863 5.78349Z" fill="#3C4242"/>
<path d="M34.3285 5.59001C34.0078 5.59001 33.7788 5.51677 33.6408 5.3703C33.5028 5.22382 33.4342 5.04111 33.4342 4.82294C33.4342 4.58472 33.5013 4.30102 33.6354 3.97337C33.7696 3.64573 33.9469 3.30035 34.1666 2.93724C34.3863 2.5749 34.6268 2.22105 34.8874 1.8749C35.148 1.52953 35.4086 1.21576 35.6699 0.932057C35.9305 0.649125 36.171 0.422468 36.3907 0.253634C36.6104 0.0848006 36.7839 0 36.9103 0C36.9921 0 37.0591 0.0308389 37.1116 0.0932842C37.164 0.15573 37.2048 0.229736 37.2349 0.316851C37.2642 0.403966 37.2796 0.481833 37.2796 0.551217C37.2796 0.685359 37.2295 0.860356 37.1285 1.07699C37.0283 1.29285 36.8864 1.53415 36.7037 1.80012C36.521 2.06609 36.3052 2.33437 36.0554 2.60497C35.8056 2.87557 35.5335 3.13537 35.2397 3.38361C34.9452 3.63185 34.6346 3.8454 34.3061 4.02426C34.2614 4.1584 34.226 4.28869 34.1998 4.41589C34.1735 4.54232 34.1604 4.66335 34.1604 4.77745C34.1604 4.97095 34.2013 5.11512 34.283 5.20995C34.3647 5.304 34.4881 5.3518 34.6523 5.3518C34.8535 5.3518 35.0532 5.29243 35.2505 5.17294C35.4479 5.05344 35.6345 4.90312 35.8095 4.72195C35.9845 4.54078 36.1356 4.35344 36.262 4.15917L36.4293 4.21853C36.1309 4.641 35.8071 4.97481 35.4564 5.22074C35.1071 5.46743 34.7309 5.59001 34.3285 5.59001ZM34.4071 3.77139C34.6677 3.59716 34.9213 3.39749 35.1673 3.17161C35.4132 2.94573 35.6422 2.71059 35.8549 2.46775C36.0677 2.22413 36.2558 1.98823 36.4193 1.76003C36.5827 1.53184 36.7099 1.32677 36.7993 1.1456C36.8888 0.964432 36.9335 0.824126 36.9335 0.724676C36.9335 0.675337 36.9242 0.642957 36.9057 0.627538C36.8872 0.612891 36.8702 0.605178 36.8556 0.605178C36.7962 0.605178 36.6937 0.668396 36.548 0.794829C36.4031 0.921261 36.2335 1.09164 36.0392 1.30518C35.8457 1.51873 35.6483 1.76235 35.4471 2.03526C35.2459 2.30817 35.0539 2.59418 34.8712 2.89253C34.6877 3.19011 34.5336 3.48383 34.4071 3.77139Z" fill="#3C4242"/>
<path d="M36.5755 5.71643C36.3442 5.71643 36.1484 5.66554 35.9888 5.56378C35.8284 5.46202 35.7483 5.30706 35.7483 5.09814C35.7483 4.91928 35.8076 4.72655 35.9271 4.52071C36.0459 4.31487 36.2101 4.11058 36.419 3.90937C36.6279 3.70815 36.8646 3.52467 37.129 3.35815C37.3934 3.19163 37.6725 3.05903 37.9678 2.95958C38.2623 2.86013 38.5545 2.81079 38.8451 2.81079C39.1357 2.81079 39.3778 2.86167 39.5713 2.96343C39.7648 3.0652 39.862 3.20088 39.862 3.36971C39.862 3.49383 39.8118 3.57863 39.7109 3.62335C39.6099 3.66806 39.478 3.69042 39.3138 3.69042C39.3285 3.65033 39.3416 3.60716 39.3531 3.56013C39.3647 3.5131 39.3701 3.46993 39.3701 3.42984C39.3701 3.31575 39.3292 3.21784 39.2475 3.13535C39.165 3.05363 39.024 3.01277 38.8227 3.01277C38.6138 3.01277 38.4018 3.06134 38.1852 3.15771C37.9693 3.25485 37.7604 3.38359 37.5592 3.54548C37.358 3.70738 37.1791 3.88238 37.0226 4.07126C36.8661 4.26014 36.7435 4.4467 36.6533 4.63018C36.5639 4.81366 36.5192 4.97787 36.5192 5.12204C36.5192 5.31554 36.6194 5.41268 36.8214 5.41268C36.9926 5.41268 37.1791 5.35948 37.3803 5.25232C37.5815 5.14594 37.7882 5.00871 38.0009 4.84219C38.2129 4.67567 38.4165 4.50298 38.61 4.32413C38.8035 4.14527 38.9754 3.98106 39.1242 3.83227C39.1535 3.80221 39.1727 3.78756 39.1797 3.78756C39.2244 3.79218 39.2822 3.80221 39.3531 3.81762C39.4241 3.83227 39.4857 3.85231 39.5374 3.87698C39.5898 3.90165 39.616 3.93403 39.616 3.97412C39.616 4.01883 39.5821 4.07974 39.515 4.15683C39.448 4.23392 39.3732 4.32181 39.2915 4.42126C39.209 4.52071 39.135 4.6217 39.0679 4.72347C39.0008 4.82523 38.9677 4.92082 38.9677 5.01025C38.9677 5.08503 38.997 5.15827 39.0571 5.22997C39.1165 5.30244 39.2136 5.3379 39.3477 5.3379C39.549 5.3379 39.8134 5.23999 40.141 5.0434C40.4687 4.84758 40.801 4.55309 41.1363 4.15992L41.2481 4.2347C41.0916 4.50298 40.8904 4.73888 40.6445 4.94241C40.3985 5.14593 40.1356 5.30552 39.8566 5.41961C39.5775 5.53371 39.303 5.59076 39.0347 5.59076C38.7588 5.59076 38.556 5.53603 38.4257 5.42655C38.2954 5.31708 38.2299 5.19836 38.2299 5.06884C38.2299 5.03878 38.2338 5.00563 38.2415 4.96862C38.2484 4.93162 38.2561 4.89307 38.2638 4.85298C37.9431 5.14131 37.6509 5.35717 37.3865 5.50133C37.1213 5.64473 36.8507 5.71643 36.5755 5.71643Z" fill="#3C4242"/>
<path d="M42.0862 5.74648C41.7362 5.74648 41.4587 5.6956 41.2536 5.59384C41.0486 5.49208 40.9036 5.36642 40.8173 5.21763C40.7317 5.06884 40.6885 4.91928 40.6885 4.77049C40.6885 4.6217 40.7186 4.50683 40.778 4.42742C40.8381 4.34802 40.9106 4.28866 40.9962 4.24857C41.0817 4.20848 41.1634 4.17919 41.2421 4.15914C41.3207 4.1391 41.3739 4.11905 41.404 4.09978C41.6275 3.93557 41.8326 3.76443 42.0192 3.58557C42.2057 3.40671 42.3692 3.21783 42.511 3.01893V2.92951C42.511 2.74603 42.5573 2.61497 42.6506 2.53787C42.7439 2.46078 42.8425 2.42224 42.9466 2.42224C43.006 2.42224 43.0507 2.43226 43.0807 2.4523C43.1108 2.47235 43.1255 2.4947 43.1255 2.51937C43.1255 2.54404 43.1147 2.58413 43.0923 2.63887C43.07 2.6936 43.0584 2.76299 43.0584 2.84779C43.0584 3.012 43.107 3.18931 43.2033 3.3805C43.3005 3.57169 43.3968 3.77291 43.494 3.98414C43.5903 4.19537 43.6389 4.41509 43.6389 4.64328C43.6389 4.70804 43.6335 4.77126 43.6219 4.83293C43.6111 4.89538 43.5942 4.9532 43.5718 5.00794C43.8324 4.97787 44.0783 4.9 44.3096 4.77357C44.5409 4.64714 44.7645 4.44438 44.9803 4.16608L45.0805 4.24086C44.9387 4.51377 44.7267 4.72115 44.4438 4.863C44.1608 5.00485 43.8509 5.09274 43.5155 5.12743C43.3961 5.34098 43.2079 5.49747 42.9512 5.59692C42.6953 5.69715 42.4062 5.74648 42.0862 5.74648ZM42.1086 5.48591C42.198 5.48591 42.3175 5.46587 42.4663 5.42655C42.6151 5.38646 42.7307 5.2847 42.8132 5.12126C42.5002 5.08194 42.2227 4.99945 41.9806 4.87533C41.7386 4.75122 41.5574 4.62709 41.4387 4.50297C41.2745 4.50837 41.1927 4.59472 41.1927 4.76355C41.1927 4.9424 41.2729 5.10738 41.4333 5.25926C41.5921 5.40959 41.818 5.48591 42.1086 5.48591ZM42.8687 5.001C42.8834 4.95166 42.895 4.89924 42.9019 4.8445C42.9096 4.78976 42.9135 4.72501 42.9135 4.651C42.9135 4.4174 42.8703 4.18535 42.7847 3.95407C42.6991 3.72279 42.6267 3.50539 42.5665 3.30187C42.3954 3.49075 42.2142 3.67115 42.0246 3.84229C41.8349 4.01344 41.6538 4.15683 41.4826 4.27093C41.5944 4.42974 41.7679 4.5793 42.0022 4.71807C42.2373 4.85761 42.5257 4.95166 42.8687 5.001Z" fill="#3C4242"/>
<path d="M45.942 5.74648C45.592 5.74648 45.3145 5.6956 45.1094 5.59384C44.9043 5.49208 44.7594 5.36642 44.6731 5.21763C44.5875 5.06884 44.5443 4.91928 44.5443 4.77049C44.5443 4.6217 44.5744 4.50683 44.6338 4.42742C44.6939 4.34802 44.7664 4.28866 44.8519 4.24857C44.9375 4.20848 45.0192 4.17919 45.0979 4.15914C45.1765 4.1391 45.2297 4.11905 45.2597 4.09978C45.4833 3.93557 45.6884 3.76443 45.8749 3.58557C46.0615 3.40671 46.225 3.21783 46.3668 3.01893V2.92951C46.3668 2.74603 46.4131 2.61497 46.5063 2.53787C46.5996 2.46078 46.6983 2.42224 46.8024 2.42224C46.8617 2.42224 46.9065 2.43226 46.9365 2.4523C46.9666 2.47235 46.9812 2.4947 46.9812 2.51937C46.9812 2.54404 46.9704 2.58413 46.9481 2.63887C46.9257 2.6936 46.9142 2.76299 46.9142 2.84779C46.9142 3.012 46.9627 3.18931 47.0591 3.3805C47.1562 3.57169 47.2526 3.77291 47.3497 3.98414C47.4461 4.19537 47.4947 4.41509 47.4947 4.64328C47.4947 4.70804 47.4893 4.77126 47.4777 4.83293C47.4669 4.89538 47.45 4.9532 47.4276 5.00794C47.6882 4.97787 47.9341 4.9 48.1654 4.77357C48.3967 4.64714 48.6202 4.44438 48.8361 4.16608L48.9363 4.24086C48.7945 4.51377 48.5825 4.72115 48.2995 4.863C48.0166 5.00485 47.7067 5.09274 47.3713 5.12743C47.2518 5.34098 47.0637 5.49747 46.807 5.59692C46.5518 5.69715 46.2627 5.74648 45.942 5.74648ZM45.9644 5.48591C46.0538 5.48591 46.1733 5.46587 46.3221 5.42655C46.4709 5.38646 46.5865 5.2847 46.669 5.12126C46.356 5.08194 46.0785 4.99945 45.8364 4.87533C45.5943 4.75122 45.4132 4.62709 45.2944 4.50297C45.1302 4.50837 45.0485 4.59472 45.0485 4.76355C45.0485 4.9424 45.1287 5.10738 45.289 5.25926C45.4486 5.40959 45.6737 5.48591 45.9644 5.48591ZM46.7245 5.001C46.7392 4.95166 46.7507 4.89924 46.7577 4.8445C46.7654 4.78976 46.7692 4.72501 46.7692 4.651C46.7692 4.4174 46.7261 4.18535 46.6405 3.95407C46.5549 3.72279 46.4824 3.50539 46.4223 3.30187C46.2512 3.49075 46.07 3.67115 45.8803 3.84229C45.6907 4.01344 45.5095 4.15683 45.3384 4.27093C45.4502 4.42974 45.6236 4.5793 45.858 4.71807C46.0931 4.85761 46.3822 4.95166 46.7245 5.001Z" fill="#3C4242"/>
<path d="M49.1062 7.45336C48.9196 7.45336 48.7562 7.42021 48.6143 7.35314C48.4725 7.28607 48.4016 7.18816 48.4016 7.05864C48.4016 6.89983 48.4617 6.75798 48.5804 6.63386C48.6992 6.50974 48.8595 6.39564 49.0615 6.2908C49.2627 6.18672 49.4932 6.08727 49.7546 5.99245C50.0151 5.89839 50.2873 5.80357 50.5702 5.70952C50.6743 5.52604 50.7807 5.32097 50.8886 5.09509C50.9965 4.86921 51.0991 4.61942 51.1962 4.34651C50.958 4.60477 50.7028 4.8268 50.4307 5.01337C50.1585 5.19993 49.8694 5.29245 49.5641 5.29245C49.4223 5.29245 49.2827 5.27163 49.1447 5.22923C49.0067 5.18683 48.8934 5.1213 48.804 5.03187C48.7146 4.94244 48.6699 4.82834 48.6699 4.68881C48.6699 4.55004 48.7053 4.38814 48.7762 4.20466C48.8472 4.02118 48.9343 3.84233 49.0391 3.6681C49.1432 3.49464 49.2511 3.35047 49.3637 3.2356C49.4763 3.12073 49.5726 3.06446 49.6543 3.06446C49.6844 3.06446 49.7384 3.07216 49.8162 3.08681C49.8949 3.10146 49.9689 3.12305 50.0398 3.15003C50.1107 3.17778 50.1462 3.20631 50.1462 3.2356C50.0791 3.30036 50.0043 3.3921 49.9226 3.51159C49.8401 3.63109 49.7607 3.76369 49.6821 3.91016C49.6042 4.05664 49.5387 4.19927 49.4863 4.33881C49.4338 4.47757 49.4084 4.59706 49.4084 4.69651C49.4084 4.78594 49.4377 4.85764 49.4978 4.91237C49.5572 4.96711 49.662 4.9941 49.8108 4.9941C49.9519 4.9941 50.1107 4.94861 50.2857 4.8561C50.4607 4.76436 50.6357 4.64641 50.8115 4.50224C50.9865 4.35808 51.1484 4.20389 51.298 4.04045C51.3203 3.98572 51.3404 3.93021 51.3596 3.87316C51.3781 3.81611 51.3951 3.75752 51.4097 3.69816C51.4321 3.62877 51.4861 3.54783 51.5716 3.45609C51.6572 3.36435 51.7937 3.31809 51.9795 3.31809C52.0165 3.31809 52.0535 3.31964 52.0912 3.32195C52.1282 3.32426 52.1691 3.33043 52.2138 3.34045C52.2138 3.41986 52.1784 3.56787 52.1074 3.78374C52.0365 3.9996 51.9355 4.25246 51.8052 4.54002C51.6749 4.82835 51.52 5.12361 51.3411 5.42659C51.6911 5.33716 52.0342 5.18914 52.3695 4.9833C52.7049 4.77746 52.977 4.50224 53.1852 4.15995L53.3301 4.23473C53.2183 4.47294 53.0487 4.68033 52.8213 4.85687C52.5939 5.03341 52.3387 5.18452 52.0558 5.31172C51.7728 5.43815 51.493 5.54377 51.217 5.62857C51.0235 5.94619 50.813 6.24454 50.5856 6.52285C50.3582 6.80115 50.12 7.02626 49.8702 7.19741C49.622 7.36779 49.3668 7.45336 49.1062 7.45336ZM49.0499 7.21437C49.1617 7.21437 49.3498 7.11647 49.6142 6.91988C49.8787 6.72329 50.1601 6.37946 50.4584 5.8876C50.1531 5.99707 49.8694 6.10501 49.6088 6.21216C49.3483 6.31855 49.1393 6.43419 48.9829 6.55908C48.8264 6.6832 48.7485 6.82737 48.7485 6.99157C48.7485 7.03166 48.7709 7.07869 48.8156 7.13343C48.8603 7.18739 48.9381 7.21437 49.0499 7.21437Z" fill="#3C4242"/>
<path d="M53.4202 5.4412C53.3231 5.4412 53.2398 5.42501 53.1689 5.39263C53.098 5.36026 53.0625 5.30937 53.0625 5.23999C53.0625 5.18525 53.0957 5.13437 53.1627 5.08734C53.2298 5.04032 53.3138 5.00254 53.4141 4.97556C53.5143 4.94858 53.613 4.9347 53.7101 4.9347C53.7995 4.9347 53.8705 4.94704 53.9221 4.97171C53.9738 4.99637 54 5.04417 54 5.11356C54 5.16367 53.9722 5.21301 53.9159 5.26235C53.8597 5.31169 53.7872 5.35409 53.6978 5.38878C53.6083 5.42347 53.5174 5.4412 53.4202 5.4412Z" fill="#3C4242"/>
</svg>
